<?xml version="1.0"?>
<svg xmlns:rdf="http://www.w3.org/1999/02/22-rdf-syntax-ns#" xmlns="http://www.w3.org/2000/svg" xmlns:cc="http://creativecommons.org/ns#" xmlns:xlink="http://www.w3.org/1999/xlink" xmlns:dc="http://purl.org/dc/elements/1.1/" xmlns:svg="http://www.w3.org/2000/svg" id="svg5788" viewBox="0 0 512.83 511.77" version="1.1">
  <defs id="defs5790">
    <linearGradient id="linearGradient5735" y2="498.77" gradientUnits="userSpaceOnUse" y1="513.62" x2="1135.8" x1="1103.9">
      <stop id="stop5708" stop-color="#2b1100" offset="0"/>
      <stop id="stop5714" stop-color="#673818" offset=".36364"/>
      <stop id="stop5716" stop-color="#9b5831" offset=".60606"/>
      <stop id="stop5710" stop-color="#aa5d2a" offset="1"/>
    </linearGradient>
  </defs>
  <g id="layer1" transform="translate(219.64 -293.56)">
    <g id="g5737" transform="matrix(.52217 -.097265 .097265 .52217 -617.15 268.58)">
      <path id="path5720" stroke-linejoin="round" style="color:#000000" d="m319.19 1.0625s-103.9 45.744-125.44 40.844c-3.1272-0.71138-5.4528-0.5225-7.0938 0.34375l-11-15.312-19.906 15.219 9.7812 13.562c-66.9 34.752-118.48 19.456-164.48-13.969 0.0086 0.053 0.0276 0.104 0.0338 0.156-0.28013-0.201-0.56427-0.39-0.8438-0.594 12.022 104.21 69.308 184.39 171.88 240.53-0.0006-0.0104 0.0006-0.0208 0-0.0312 0.28212 0.15518 0.56094 0.31394 0.84375 0.46875-3.3092-57.748-6.4491-115.42 42.062-157.56l7.5625 10.5 20.5-14.375-11.688-16.25c1.1008-1.2002 1.994-2.9442 2.625-5.3125 6.21-23.282 85.17-98.226 85.17-98.226z" transform="matrix(1.8509 .34476 -.34476 1.8509 728.65 183.57)" stroke="#333" stroke-linecap="round" stroke-width="2.1246" fill="#4d4d4d"/>
      <g id="g5731" transform="matrix(.99996 -.0087904 .0087904 .99996 -4.8562 10.06)">
        <path id="path5718" stroke-linejoin="round" style="color:#000000" d="m988.11 262.43 31.24-14.26c2.0004-0.91314 3.9156-0.9808 4.2941-0.15167l472.6 1035.5c0.3785 0.8291-0.9274 2.2318-2.9278 3.1449l-31.24 14.26c-2.0004 0.9131-3.9156 0.9808-4.2941 0.1516l-472.71-1035.5c-0.37847-0.82912 0.92734-2.2318 2.9278-3.1449z" stroke="#4d2012" stroke-linecap="round" stroke-width="4" fill="#ff7f2a"/>
        <path id="rect2985-6" style="color:#000000" stroke-width="0" fill="url(#linearGradient5735)" d="m988.11 262.43 31.24-14.26c2.0004-0.91314 3.9156-0.9808 4.2941-0.15167l472.6 1035.5c0.3785 0.8291-0.9274 2.2318-2.9278 3.1449l-31.24 14.26c-2.0004 0.9131-3.9156 0.9808-4.2941 0.1516l-472.71-1035.5c-0.37847-0.82912 0.92734-2.2318 2.9278-3.1449z"/>
      </g>
      <path id="path3011" stroke-width="0" fill="#666" d="m1085.8 487.24c-106.29 61.05-120.49 169.66-134.37 278.44-170.48-139.27-248.88-307.43-235.2-504.45 73.946 78.076 164.57 124.23 301.39 81.985"/>
      <path id="path3834" style="color:#000000" stroke-width="0" fill="#4d4d4d" d="m1319.1 295.59s-171.96 111.48-191.46 152.42c-15.677 32.914-48.078-12.425-63.217-45.59s-25.072-88.969 8.3947-74.51c38.182 16.496 246.28-32.32 246.28-32.32z"/>
      <path id="path3015" stroke-width="0" fill="#666" d="m1002.4 315.28 42.074-21.323 92.44 197.1-42.874 19.571"/>
      <path id="path3019" stroke-width="0" fill="#f00" d="m1083.2 476.1 14.157 25.609"/>
      <path id="path3024" stroke-width="0" fill="#b3b3b3" d="m716.23 261.22c-13.677 197.03 64.735 365.19 235.21 504.47 1.3261-10.392 2.646-20.781 4.0579-31.129-144.72-126.61-216.14-276.19-214.22-448.78-8.5805-7.7433-16.916-15.968-25.053-24.559z"/>
      <rect id="rect3029" ry="1.3959" style="color:#000000" rx="3.7553" transform="matrix(.71456 -.32618 .31471 .68944 1505.3 55.063)" height="211.43" width="20" y="78.076" x="-737.14" stroke-width="0" fill="#1a1a1a"/>
      <path id="path3830-1" stroke-width="0" fill="#999" d="m1012.9 489.6c-62.72 36.02-71.08 100.14-79.25 164.35-100.61-82.24-146.9-181.52-138.87-297.83 43.644 46.103 97.124 73.366 177.85 48.449"/>
      <path id="path3832" stroke-width="0" fill="#666" d="m982.88 494.09c-48.956 28.115-55.479 78.159-61.857 128.28-78.528-64.195-114.66-141.68-108.38-232.46 34.064 35.984 75.806 57.263 138.81 37.815"/>
      <rect id="rect3837" ry="1.3959" style="color:#000000" rx="3.7553" transform="matrix(.55855 -.25496 .40264 .88206 1376.3 64.981)" height="211.43" width="20" y="78.076" x="-665.71" stroke-width="0" fill="#8e8e8e"/>
      <path id="path3849" stroke-width="0" fill="#e6e6e6" d="m714.85 260.12c-13.677 197.03 64.735 365.19 235.21 504.47 0.32267-2.5284 0.63766-5.0617 0.96097-7.5891-163-135.93-239.31-299.05-228.88-489.36-2.4459-2.4771-4.8809-4.9746-7.2908-7.5191z"/>
      <rect id="rect4154" style="color:#000000" transform="matrix(.55855 -.25496 .41671 .91288 1341.6 72.962)" rx="3.7553" ry="1.3959" height="211.43" width="20" y="78.076" x="-665.71" stroke-width="0" fill="#444"/>
    </g>
  </g>
  <metadata>
    <rdf:RDF>
      <cc:Work>
        <dc:format>image/svg+xml</dc:format>
        <dc:type rdf:resource="http://purl.org/dc/dcmitype/StillImage"/>
        <cc:license rdf:resource="http://creativecommons.org/licenses/publicdomain/"/>
        <dc:publisher>
          <cc:Agent rdf:about="http://openclipart.org/">
            <dc:title>Openclipart</dc:title>
          </cc:Agent>
        </dc:publisher>
        <dc:title>Axe</dc:title>
        <dc:date>2013-01-22T17:08:21</dc:date>
        <dc:description>Cleanup of pauthonic's beautiful work, also removed BG and added a comic style border around it.</dc:description>
        <dc:source>http://openclipart.org/detail/174402/axe-by-qubodup-174402</dc:source>
        <dc:creator>
          <cc:Agent>
            <dc:title>qubodup</dc:title>
          </cc:Agent>
        </dc:creator>
        <dc:subject>
          <rdf:Bag>
            <rdf:li>arm</rdf:li>
            <rdf:li>armory</rdf:li>
            <rdf:li>arms</rdf:li>
            <rdf:li>axe</rdf:li>
            <rdf:li>axes</rdf:li>
            <rdf:li>battle</rdf:li>
            <rdf:li>ceremonial</rdf:li>
            <rdf:li>clip art</rdf:li>
            <rdf:li>clipart</rdf:li>
            <rdf:li>execution</rdf:li>
            <rdf:li>iron</rdf:li>
            <rdf:li>medieval</rdf:li>
            <rdf:li>metal</rdf:li>
            <rdf:li>weapon</rdf:li>
            <rdf:li>weapons</rdf:li>
            <rdf:li>wood</rdf:li>
            <rdf:li>wooden</rdf:li>
          </rdf:Bag>
        </dc:subject>
      </cc:Work>
      <cc:License rdf:about="http://creativecommons.org/licenses/publicdomain/">
        <cc:permits rdf:resource="http://creativecommons.org/ns#Reproduction"/>
        <cc:permits rdf:resource="http://creativecommons.org/ns#Distribution"/>
        <cc:permits rdf:resource="http://creativecommons.org/ns#DerivativeWorks"/>
      </cc:License>
    </rdf:RDF>
  </metadata>
</svg>
