<?xml version="1.0"?>
<svg xmlns:rdf="http://www.w3.org/1999/02/22-rdf-syntax-ns#" xmlns="http://www.w3.org/2000/svg" xmlns:cc="http://creativecommons.org/ns#" xmlns:dc="http://purl.org/dc/elements/1.1/" xmlns:svg="http://www.w3.org/2000/svg" id="svg2" viewBox="0 0 428.15 642.29" version="1.1">
  <title id="title4702">dwarf warrior</title>
  <g id="layer2" transform="translate(-15.937 -86.625)">
    <path id="path4694" d="m255.88 86.625c-4.4227 0.01983-7.5472 1.8993-10.719 3.4688-2.4024 1.1889-3.5131 1.8723-4.375 2.375-1.9753-0.08206-16.142-0.6875-20.25-0.6875-2.1264 0-3.0117 0.56194-4.1875 1.0938-1.1758 0.53181-2.3972 1.1891-3.7188 1.9688-2.643 1.5594-5.6351 3.5664-8.625 5.6875s-5.9484 4.3403-8.375 6.2812c-2.4266 1.941-4.1182 3.2908-5.5312 4.9688-2.7888 3.3117-2.1017 5.8161-1.9688 8.5625 0.13296 2.7464 0.59221 5.6981 1.125 8.5312 0.86651 4.6078 1.613 7.2791 2.0312 8.8438-1.1114 1.8972-2.1362 3.8243-3.0938 5.75-0.21333 0.0927-0.2638 0.0333-0.625 0.25-2.3076 1.3846-2.2352 2.0463-2.9375 3.0625s-1.3974 2.1596-2.0312 3.375c-0.63381 1.2154-1.1898 2.4491-1.5938 3.8438-0.202 0.69732-0.37978 1.4124-0.375 2.5 0.005 1.0876 0.23615 3.0764 2.0938 4.5625 0.42554 0.34044 0.78849 0.50706 1.1875 0.75 0.24642 2.7648 0.56811 5.0699 0.8125 6.3125-0.0604 0.18397-0.0617 0.16971-0.125 0.375-0.30059 0.97511-0.75593 1.6803-0.71875 3.875 0.0129 0.7635 0.15949 1.438 0.375 2.0625-0.9331 1.0985-1.8515 2.1157-2.8438 3.625-2.8947 4.4032-5.8712 10.821-4.2188 18.062 0.72742 3.188 1.8407 7.3032 2.9688 11.469-0.39083 0.86239-0.92522 2.0966-1.4688 2.5625-1.7281 1.4812-1.7378 2.4666-1.9688 3.2812-0.23099 0.81462-0.33519 1.5326-0.4375 2.3438-0.20463 1.6223-0.32108 3.5224-0.375 5.6875-0.10783 4.3303-0.0126 9.7326 0.15625 15.156 0.1688 5.4236 0.40686 10.86 0.59375 15.094 0.0934 2.1169 0.16861 3.926 0.21875 5.2812 0.0501 1.3553 0.0373 2.5907 0.0625 2.1875-0.0942 1.5068 0.0813 2.5804 0.34375 3.5312l-16.75 17.406a5.0318 5.0318 0 0 0 -1.03 5.37c-0.66683 1.4344-1.1067 3.0604-0.78125 4.6875 0.49779 2.4889 1.4236 2.9871 2.1875 3.8125 0.76385 0.82536 1.5738 1.5673 2.5 2.3438 0.85354 0.71553 1.862 1.4076 2.8125 2.125a5.0318 5.0318 0 0 0 0 0.0312c-0.27318 0.56121-0.1548 0.33878-0.0312 0.0937 0.038-0.0754-0.0755 0.1849 0 0.0312-0.18518 0.37208-0.40874 0.7356-0.5625 1-0.004 0.006 0.004 0.025 0 0.0312-0.0146 0.0239-0.0167 0.007-0.0312 0.0312-0.008 0.0127 0.008 0.0183 0 0.0312-0.007 0.0115-0.0243-0.0116-0.0312 0a5.0318 5.0318 0 0 0 0 0.0312c-0.1853 0.31067-0.34791 0.48176-0.3125 0.4375-0.46207 0.57778-0.69751 1.1726-0.6875 1.1562h-0.0312c-0.007 0.0153 0.007 0.0469 0 0.0625-0.67379 1.4426-0.63742 4.1774 0.5 5.75a5.0318 5.0318 0 0 0 0.0312 0.0625c0.57921 0.77774 0.74847 0.8209 0.65625 0.71875-0.006-0.007 0.0408 0.0715 0.0312 0.0625l0.0312-0.0312c1.3719 1.3136 2.3304 1.5292 3.1562 1.7812 0.008 0.003 0.023-0.003 0.0312 0-0.0331-0.008 0.21444 0.0859 0.75 0.21875 0.47466 0.11716 0.76254 0.16549 0.875 0.1875 0.29294 0.0582 0.50031 0.0986 0.65625 0.125a5.0318 5.0318 0 0 0 0.0312 0c0.25855 0.0429 0.48591 0.0614 0.71875 0.0937 0.01 0.001 0.0213-0.001 0.0312 0 0.42389 0.0598 0.82783 0.11716 1.1875 0.15625 0.5101 0.0539 1.0024 0.11705 1.5312 0.15625 1.0684 0.0822 1.1893 0.0587 2.0312 0.0937-2.6797 9.8671-6.4044 23.943-9.0625 36.219-0.76891 0.51004-2.6963 1.6953-3.2812 4.5938-0.57097 2.8293-1.0089 5.2843-1.3125 7.2188-0.15181 0.96721-0.27524 1.7927-0.34375 2.5625-0.0269 0.30267 0.0565 0.80899 0.0312 1.0938a5.0318 5.0318 0 0 0 0 0.0312 5.0318 5.0318 0 0 0 0.0625 1.625c0.004 0.0179-0.004 0.013 0 0.0312a5.0318 5.0318 0 0 0 0 0.0312 5.0318 5.0318 0 0 0 0.0312 0.0937c0.0163 0.0693 0.0459 0.088 0.0625 0.15625a5.0318 5.0318 0 0 0 0.0625 0.21875 5.0318 5.0318 0 0 0 0.21875 0.59375c0.35417 1.231 0.75658 2.2538 1.1562 3.0938-0.34571 0.98669-0.72913 2.1483-0.96875 3.4062-0.50184 2.6347 1.1387 4.9984 2.25 5.9062 0.11019 0.09 0.17487 0.0767 0.28125 0.15625-0.29761 1.6838-0.0787 2.6388 0.25 3.3438-1.7781 0.5968-3.7118 0.91671-5.9688 3.625-2.1664 2.5997-2.1911 4.8563-2.2812 7.0312-0.0728 1.7552 0.10869 3.3607 0.59375 5.0625 0.0003 0.0646-0.001 0.34384-0.0312 0.71875-0.0604 0.74982-0.18694 1.8924-0.375 3.25-0.37613 2.7153-0.95582 6.2752-1.5625 9.7812-1.1367 6.5692-2.2255 12.187-2.375 12.969l-1.75 2.875c-1.2482 2.0283-1.2027 3.6003-1.1562 5.0625 0.0464 1.4622 0.28081 2.832 0.65625 4.1562 0.26838 0.94664 0.70894 1.8503 1.1562 2.75-2.0374 2.2606-4.2466 4.6146-5.4688 6.2812-1.588 2.1655-1.8974 3.7823-2.625 6.1562-0.72756 2.374-1.4519 5.1568-2.0625 7.875-0.61058 2.7182-1.1131 5.3566-1.4375 7.5625-0.16218 1.103-0.29261 2.0766-0.34375 3-0.0256 0.4617-0.0336 0.90374 0 1.4375 0.0292 0.46461 0.10435 1.1218 0.53125 2.125l-39.906 36.375-0.25-2.4062 10.281-9.4062a5.0318 5.0318 0 0 0 1.5938 -4.2188l-4.6875-47.75a5.0318 5.0318 0 0 0 -3.27 -4.21l-5.625-2.0625a5.0318 5.0318 0 0 0 -1.8125 -0.3125l-37.407 0.65a5.0318 5.0318 0 0 0 -2.6875 0.84375l-34.156 22.812a5.0318 5.0318 0 0 0 -0.8125 0.6875l-5.5938 5.75a5.0318 5.0318 0 0 0 -1.376 4.32l6.9688 42.625a5.0318 5.0318 0 0 0 3.5938 4.0312l9.437 2.66 0.6875 4.9375c-3.7142 5.2094-7.1764 11.116-9.0312 15.062a5.0318 5.0318 0 0 0 -0.4375 1.625c-1.492 14.513 1.7904 24.801 4.8125 33.969-0.21943-0.6657-0.21488-0.6217 0.03125 0.125a5.0318 5.0318 0 0 0 3.6562 3.3438l9.0625 4.0312 1.6562 11.969c-2.4128 1.5857-5.2496 3.5421-7.875 6.4062a5.0318 5.0318 0 0 0 -1.2812 3.9688l4.3438 39.219a5.0318 5.0318 0 0 0 2.4688 3.7812l6.529 3.81a5.0318 5.0318 0 0 0 1.7812 0.625l38 5.6562a5.0318 5.0318 0 0 0 4.4688 -1.5625l26.656-29.188a5.0318 5.0318 0 0 0 0.8125 -1.1875l3.1-6.34a5.0318 5.0318 0 0 0 0.46875 -2.8125l-4.375-36.031a5.0318 5.0318 0 0 0 -3.0625 -4.0625c-3.1985-1.3255-6.541-1.7448-9.1875-1.8438l-0.84375-7.75 9.0312-11.281 0.1875-0.15625a5.0318 5.0318 0 0 0 1.84 -4.45l-0.25-2.625 45.625-42.25c0.071 2.488 1.1571 4.0413 2.0938 5.625 0.59082 0.99896 1.2379 1.9052 2 2.75 0.76208 0.84479 1.2782 1.7982 3.625 2.4688 0.29248 0.0836 1.8297 0.49738 2.7188 0.75-0.1652 1.4647-0.32053 2.9097-0.46875 4.4062-0.002 0.021 0.002 0.0415 0 0.0625-2.4733-0.19404-5.1052 0.14358-7.2188 1.875-2.2546 1.847-3.0938 4.7278-3.0938 7.0938 0 2.1127 0.32938 4.2846 0.625 6.5312 0.29562 2.2467 0.5625 4.5177 0.5625 5.5 0 2.2822 0.88757 3.9016 1.7188 5.1562-0.69919-1.0573-0.71247-1.0129 0.0312 0.0937a5.0318 5.0318 0 0 0 0.0312 0c0.32968 0.48877 0.56812 0.77997 0.71875 0.96875a5.0318 5.0318 0 0 0 0 0.0312c0.33399 0.41751 0.57386 0.62656 0.65625 0.71875-0.33739-0.37871-0.30792-0.28757 0.15625 0.21875 0.36339 0.39582 0.64422 0.6138 0.75 0.71875 0.26141 0.25954 0.54255 0.53939 0.84375 0.8125 0.25851 0.23445 0.57117 0.55057 1 0.90625 0.32409 0.26874 0.50246 0.37494 0.75 0.5625 0.51182 1.7528 4.4387 15.146 8.4375 29.531 2.0586 7.4058 4.0886 14.881 5.5625 20.719 0.73694 2.9186 1.3309 5.4414 1.7188 7.2812 0.19392 0.9199 0.33091 1.6914 0.40625 2.1875 0.0189 0.12441 0.0257 0.18143 0.0312 0.28125 0.002-0.17648-0.0714 0.21347-0.5625 0.9375-0.44557 0.65688-1.1163 1.4366-1.8438 2.2188 0.15562-0.16729 0.0933-0.1092-0.1875 0.1875-0.70357 0.74332-1.428 1.4514-2.0625 2.0312-0.38439 0.35183-0.39749 0.39899-0.0625 0.0937-0.63918 0.58059-1.2831 1.0883-1.7812 1.5-0.009 0.008-0.0219 0.0235-0.0312 0.0312-0.34339 0.27956-0.8125 0.65625-0.8125 0.65625a5.0318 5.0318 0 0 0 -1.7812 4.6875l0.0937 0.53125v0.0625l0.53125 3.6875-20.125 6.5625-2.0312-1a5.0318 5.0318 0 0 0 -2.9062 -0.46875 5.0318 5.0318 0 0 0 -0.0312 0 5.0318 5.0318 0 0 0 -1.7812 0.28125s-7.4541 2.6128-15.406 5.8438c-3.9761 1.6155-8.0879 3.3825-11.562 5.125-3.4746 1.7425-6.0789 2.7347-8.4375 5.8438-2.0899 2.7547-2.4554 5.4826-2.7812 8.5938-0.32585 3.1112-0.27733 6.5638 0 9.9688s0.77618 6.7506 1.5938 9.7188c0.81757 2.9681 1.5112 5.5839 4.2188 7.9375 2.752 2.3923 5.3514 2.9089 9.0625 3.9375s8.1913 1.9464 12.875 2.6875c9.3674 1.4822 19.098 2.4313 26.125 0.8125 9.1327-2.1039 36.491-3.3033 49.781-2.3438 9.9282 0.71683 24.635 0.66741 34.406-0.46875 0.16618-0.0192 0.23486-0.0295 0.25-0.0312 0.72769-0.0869 1.3607-0.2001 1.9062-0.28125 0.011-0.002 0.0202 0.002 0.0312 0 1.7583-0.25916 3.2986-0.54282 4.7812-1 0.0112-0.003 0.02-0.0278 0.0312-0.0312 0.0278-0.009 0.066 0.009 0.0937 0 0.0584-0.0164 0.0329 0.0188 0.0937 0a5.0318 5.0318 0 0 0 0.0625 -0.0312c0.60502-0.19603 0.92336-0.36755 0.9375-0.375 0.0136-0.005 0.018 0.005 0.0312 0 0.30622-0.12504 0.52343-0.24769 0.59375-0.28125a5.0318 5.0318 0 0 0 0.0312 0c0.0553-0.0268 0.15755-0.0884 0.34375-0.1875-0.0201 0.0107 0.0467-0.008 0.0312 0-0.17798 0.0972-0.11987 0.077 0.28125-0.15625 0.3027-0.17602 0.55694-0.36182 0.78125-0.53125-1.2868 0.97169-0.935 0.74108 0.15625-0.125h0.0312c0.29777-0.24187 0.66042-0.61314 0.90625-0.90625h0.0312c0.0125-0.0151 0.0195-0.048 0.0312-0.0625 0.00099-0.002 0.0297-0.028 0.0312-0.0312 0.001-0.002-0.001-0.0285 0-0.0312 0.002-0.004 0.0288-0.0261 0.0312-0.0312 0.12847-0.26993 0.82501-1.8285 0.90625-2-0.0863 0.32652-0.21892 0.81291-0.21875 0.8125 0.00019-0.00045-0.5305 0.93134-0.625 1.0938 0.18714-0.24007 0.42047-0.55482 0.6875-1.0312a5.0318 5.0318 0 0 0 0.0312 -0.0312c0.41809-0.75629 0.75344-1.5397 1.0312-2.4375 0.11379-0.36719 0.23654-0.80192 0.34375-1.25a5.0318 5.0318 0 0 0 0 -0.0312 5.0318 5.0318 0 0 0 0 -0.0312c0.0106-0.0477-0.009-0.0174 0-0.0625 0.0844-0.35919 0.16823-0.73553 0.25-1.1875 0.24356-1.3486 0.43333-2.8184 0.53125-4.4062 0.0658-1.0498 0.0873-2.1313 0.0937-3.25 0.0003-0.0592 0.00015-0.0674 0-0.0312 0.0121-2.2863-0.11187-4.7338-0.34375-7.3125a5.0318 5.0318 0 0 0 0 -0.0312c-0.00089-0.01 0.00089-0.0214 0-0.0312-0.47105-5.1958-1.4593-10.909-3.0625-16.594a5.0318 5.0318 0 0 0 0 -0.0312c-0.006-0.0222-0.0249-0.0403-0.0312-0.0625-0.005-0.0191 0.005-0.0434 0-0.0625-0.50887-1.7897-1.1213-3.5445-1.75-5.2812 0.36639-0.34037 0.75129-0.58131 1.0938-1 1.5641-1.9123 2.4984-4.9156 2.0312-7.7188 0.0929 0.55718-0.0775-1.2937-0.0625-3.375s0.0711-4.8874 0.15625-8.125c0.17037-6.4753 0.44631-14.761 0.625-23.062 0.17869-8.3015 0.27801-16.586 0.0937-23.25-0.0921-3.3322-0.25418-6.2545-0.53125-8.6562-0.13854-1.2009-0.28491-2.2567-0.53125-3.2812-0.24634-1.0246-0.41291-1.9985-1.4688-3.4062-1.1415-1.522-2.5342-2.5407-3.9062-3.3438 0.19492 0.11361 0.0195-0.0322-0.5625-0.34375-0.27856-0.14884-0.44263-0.22148-0.5-0.25-0.49453-0.24628-0.88528-0.39746-1.125-0.5-0.55799-0.23823-0.81266-0.30553-0.75-0.28125 0.0529 0.0205-0.20954-0.12397-0.84375-0.34375-0.18983-0.066-0.3541-0.11864-0.46875-0.15625 0.0327 0.0107-0.029-0.0101-0.0937-0.0312-0.009-0.003-0.0227 0.003-0.0312 0-0.58925-0.19069-1.2472-0.40941-1.9688-0.59375-0.4173-0.1058-0.64451-0.1535-0.65625-0.15625-0.20947-0.0496-0.35698-0.0486-0.5625-0.0937-0.0463-1.7216-0.4293-2.6437-0.90625-3.2812 0.26981-0.34296 0.6098-0.59459 0.8125-1 0.94968-1.8994 0.88711-3.9799 0.5-5.4375-0.30679-1.1552-0.78314-1.9076-1.25-2.6562l0.90625-1.4375a5.0318 5.0318 0 0 0 0.65625 -1.625c0.13538-0.003 0.33913 0.003 0.46875 0 1.5386-0.0332 2.3114-0.0218 3.3438-0.125 3.2853-0.32853 4.1335-1.896 4.9062-3.0625 1.1261 0.91297 2.5302 1.7831 4.5 1.9062 1.5825 0.099 1.4222-0.0726 2.0312-0.15625 0.60909-0.0837 1.3467-0.19967 2.2188-0.34375 1.7441-0.28816 3.9805-0.69621 6.4375-1.1562 3.219-0.60271 6.3362-1.2649 9.5-1.9375 0.59778 2.739 1.215 5.6425 1.75 7.9062 0.43358 1.8345 0.83072 3.4449 1.1875 4.75s0.47708 2.0166 1.1562 3.375c0.15442 0.30885 1.1101 2.5812 1.7812 4.1562-0.33699 0.2278-0.34511 0.2782-0.75 0.53125-1.8097 1.1311-3.1698 3.1039-3.6562 4.9375-0.48649 1.8336-0.32964 3.443-0.0625 4.8125 0.53429 2.7391 1.624 4.8831 2.1562 6.125-0.038-0.0887 0.83191 2.3788 1.7188 5.25 0.88684 2.8712 1.9716 6.5398 3.0625 10.344 2.1818 7.6078 4.3971 16.07 4.875 18.938 1.1358 6.8151 2.209 19.693 1.4062 25.312-0.15599 1.0919-1.4389 4.3935-2.9375 7.2812-1.4986 2.8878-3.0484 5.4357-3.9375 7.125-0.99077 1.8825-1.0552 4.7409-0.0937 6.5938 0.9614 1.8529 2.2923 2.7577 3.4375 3.4375 0.1655 0.0982 0.30483 0.12932 0.46875 0.21875-2.3127 6.1144-4.4311 13.597-4.4062 25.375 0.0256 12.103 0.28715 20.589 4.8438 27.438 4.6592 7.0029 12.878 9.682 21.938 11.094 9.0594 1.4117 19.558 1.5924 30.469 2.1875 16.499 0.89993 30.212-1.3761 38.531-5.4688 0.014-0.007 0.0173-0.0244 0.0312-0.0312 1.4878-0.72754 2.7993-1.5443 3.9062-2.4375-0.15927 0.1293-0.002 0.0413 0.4375-0.34375 0.0645-0.0561 0.20399-0.18304 0.4375-0.40625 0.14354-0.13748 0.1978-0.19741 0.15625-0.15625 1.0231-1.013 1.9743-2.2291 2.5-3.9375 1.1222-3.6472 1.8166-9.1409 2.0312-14.781 0.10732-2.8202 0.0581-5.5536-0.28125-8.0625-0.30962-2.2894-0.39527-4.6198-2.875-6.875a5.0318 5.0318 0 0 0 0.29 -3.76s-3.8852-11.916-6.4062-18.562c0.11455-0.18117 0.26792-0.26782 0.375-0.46875 0.96362-1.8082 1.1559-4.5186 0.3125-6.6875-1.0789-2.7743-3.3572-7.0492-4.8125-10.688-0.02-0.0501-0.52821-2.01-0.90625-4.375s-0.76968-5.3607-1.0625-8.5c-0.58565-6.2786-0.84322-13.334-0.5-17.281 0.40358-4.6411 1.3132-15.466 2.0625-25.719 0.37465-5.1265 0.71715-10.114 0.9375-14.125 0.22035-4.0106 0.38817-6.5426 0.1875-8.75-0.0228-0.25056-0.10445-0.77052-0.21875-1.3125h0.0312c-0.0116-0.0601-0.0502-0.0966-0.0625-0.15625-0.0226-0.0953-0.003-0.11615-0.0312-0.21875h-0.0312c-0.86154-3.8722-2.6485-6.1176-4.125-7.5938-0.1028-1.5615-0.55729-3.4377-1.75-5.6562-0.0564-0.10494-0.0962-0.20747-0.15625-0.3125-0.12014-0.21007-0.17711-0.41531-0.3125-0.625l0.0312-0.0312a5.0318 5.0318 0 0 0 -0.25 -0.375 5.0318 5.0318 0 0 0 0 -0.0625c-0.16742-0.23785-0.41794-0.55528-0.71875-0.90625-1.3634-1.5906-6.6066-7.5541-11.594-13.188 0.13584-3.6838 0.0734-7.3376 0.125-11.062 0.90868 0.60281 1.5954 1.0435 2.25 1.4375 0.37957 1.4924 1.0014 3.9181 1.9062 7.0938 1.0598 3.7195 2.0905 7.3685 3.4688 10.125 0.6078 1.2156 1.485 2.2142 2.3438 2.9688v0.0312c-0.26468-0.22955-0.38975-0.32006 0.0937 0.0937a5.0318 5.0318 0 0 0 0.0312 0.0312c0.28653 0.24301 0.511 0.41422 0.71875 0.5625 0.05 0.0359 0.23899 0.16956 0.5625 0.375 0.15568 0.0983 0.33168 0.20006 0.53125 0.3125 0.57222 0.32374 0.91586 0.4788 1.0312 0.53125a5.0318 5.0318 0 0 0 0.0312 0c0.15457 0.0696 0.36073 0.16593 0.65625 0.28125-0.26793-0.1062-0.1862-0.0587 0.3125 0.125a5.0318 5.0318 0 0 0 0.0312 0c0.57542 0.20926 1.0159 0.32615 1.3125 0.40625 0.006 0.002 0.0249-0.002 0.0312 0 0.8052 0.22001 1.4061 0.26537 2.125 0.375 0.57441 0.88186 1.3567 1.7452 2.5625 2.4688 1.8277 1.0966 2.6184 1.0028 3.75 1.1875 1.1316 0.18466 2.3548 0.30798 3.5938 0.40625 2.478 0.19654 4.9955 0.28125 6.5938 0.28125 1.5804 0 2.1021-0.24158 3.25-0.5s2.4979-0.60493 4.0625-1.0312c3.1292-0.85264 6.9935-1.9926 10.844-3.25 3.8503-1.2574 7.683-2.6055 10.812-3.9062 1.5648-0.65039 2.9362-1.2973 4.1562-1.9688 1.2201-0.67143 2.2848-0.88954 3.6875-3.0938 1.3724-2.1566 2.7579-5.1372 4-8.4062s2.4782-6.0735 2.1562-9.9375c-0.20049-2.4058-0.97942-3.7521-1.8125-5.375s-1.8121-3.2701-2.7812-4.7812c-1.757-2.7396-3.1959-4.617-3.5-5.0312-0.16708-0.34795-8.6184-17.972-14.094-29.344 0.24991-0.33317 0.55056-0.66361 0.71875-1 1.0982-2.1964 1.5439-4.3057 2.0312-6.5312 0.48736-2.2256 0.81819-3.77 0.90625-5.5312 0.10545-2.1089-0.2764-3.8877-0.78125-5.1875-0.072-0.18524-0.1328-0.16609-0.21875-0.34375l-0.8125-48.094c1.1871-1.3548 2.3032-3.3884 2-5.75h0.0625s-0.0591-0.37731-0.0625-0.40625c-0.0405-0.34231-0.25951-2.2745-0.6875-4.8125-0.23208-1.3763-0.50514-2.8272-0.84375-4.1875s-0.43175-2.4026-1.6875-4.2188c-0.13153-0.19023-0.29391-0.37359-0.4375-0.5625 0.57206-0.028 1.2173 0.10493 1.7188-0.0312 2.2251-0.60423 3.8125-2.2812 3.8125-2.2812a5.0318 5.0318 0 0 0 1.1875 -3.8438c-1.0014-9.589-7.0237-15.36-9.9062-20.531-1.508-2.705-3.7286-3.9672-5.0312-4.7812-1.3026-0.81405-1.7151-1.2127-1.7188-1.2188a5.0318 5.0318 0 0 0 0 -0.0312l-2.3438-3.875c0.30036-3.557 0.59375-7.1875 0.59375-7.1875a5.0318 5.0318 0 0 0 -0.4 -2.35l-4.75-11.156c1.572-0.6479 2.9251-1.631 3.7188-2.875 1.3822-2.1664 1.5248-4.1465 1.4688-5.875 0.002-0.0188-0.002-0.0435 0-0.0625 0.11516-1.0114 0.24267-2.1555 0.28125-3.3125 0.0393-1.1786 0.2736-2.0934-0.5-4.1562-0.84207-2.2455-1.2954-2.2191-2.0312-3.125-0.49039-0.60366-1.1198-1.2841-1.7188-1.9688 0.0882-0.0278 0.16109-0.0329 0.25-0.0625 3.0174-1.0058 4.9034-2.6678 6.3438-4.25a5.0318 5.0318 0 0 0 2.875 -4.2188 5.0318 5.0318 0 0 0 -1.7188 -5.5938c-0.35713-0.83225-0.5773-1.5702-1.125-2.5-0.84713-1.4381-1.9246-3.121-4.125-4.2812-1.6482-8.1396-6.3488-14.704-10.531-20.719-0.14664-1.3248-0.44022-2.321-0.8125-3.5312-0.48275-1.5694-1.0866-3.2785-1.6875-4.9062-1.2018-3.2554-2.4062-6.1562-2.4062-6.1562a5.0318 5.0318 0 0 0 -1.0312 -1.5938s-2.9935-3.4412-6.4375-5.5938c-10.957-6.848-22.778-12.681-35.156-16.969-0.0754-0.0889-0.13942-0.1823-0.21875-0.28125 1.2133 0.53349 2.4358 0.94671 4.2188 1.125 0.83187 0.0832 1.587 0.67999 3.9688-0.78125 0.39014-0.23935 0.75834-0.77463 1.125-1.25 0.59525 0.17228 1.2689 0.38259 1.8125 0.53125 0.87652 0.23972 1.6361 0.44013 2.375 0.59375 0.36947 0.0768 0.71456 0.13833 1.1562 0.1875 0.44169 0.0492 0.76572 0.29461 2.3438-0.15625 1.6635-0.47529 3.5654-3.0036 3.6875-4.5 0.12212-1.4964-0.21683-2.1123-0.40625-2.5625-0.37884-0.90048-0.64597-1.1956-0.9375-1.5938-0.58305-0.79629-1.2449-1.538-2.0625-2.4375-1.5704-1.7278-3.7094-3.9115-5.9688-6.1562 0.0235 0.009 0.039 0.0223 0.0625 0.0312 3.6798 1.3945 7.351 2.8052 10.312 3.875 1.4808 0.53488 2.782 0.96734 3.8438 1.3125 1.0617 0.34516 1.2628 0.638 3.125 0.78125 0.78113 0.0601 1.7812 0.37858 3.75-0.9375 0.9844-0.65804 2.0509-2.0869 2.2812-3.4688 0.23035-1.3818-0.12146-2.4111-0.40625-3.0625-1.1392-2.6057-2.0074-2.6115-3.0312-3.3438-2.0478-1.4645-4.8928-2.9766-8.5938-4.4375 0.49429 0.19511-0.54867-0.35418-1.6875-1.4375s-2.5993-2.6674-4.1875-4.5312c-3.1764-3.7276-6.93-8.6231-10.469-13.562-3.5387-4.9394-6.8695-9.9323-9.3125-13.844-1.2215-1.9557-2.2248-3.6304-2.875-4.8438-0.31625-0.59014-0.53558-1.0672-0.65625-1.3438-0.0322-0.56216-0.10779-2.5422-0.125-5.1875-0.0186-2.8523 0.001-6.3935-0.0312-9.9688-0.0326-3.5753-0.11489-7.1776-0.25-10.25s-0.15506-5.2145-0.8125-7.5625c-0.21455-0.76626-0.53421-1.8752-0.9375-3.0938-0.26996-0.81167-0.58705-1.6663-0.90625-2.5312-0.17649-0.4779-0.3459-0.8702-0.46875-1.1875 0.0468 0.12092 0.009-0.0653-0.1875-0.5625-2.7849-7.0314-7.0116-16.895-16.281-20.438-4.1379-1.5811-6.8117 0.14666-8.7188 1.0312-0.67481 0.31301-1.0997 0.50797-1.5312 0.71875-0.21411-0.0518-0.38312-0.10698-0.6875-0.1875-1.1534-0.3051-2.6719-0.71433-4.4375-1.1562-3.5311-0.88384-8.0397-1.9895-12.5-3.0312s-8.8591-2.0221-12.188-2.6875c-1.6642-0.33272-3.0565-0.56719-4.1875-0.71875-0.1029-0.01379-0.21504-0.01851-0.3125-0.03125-0.0648-0.05855-0.057-0.06339-0.125-0.125-1.2764-1.1571-3.2329-2.9026-5.5625-4.75-4.6592-3.6948-10.6-8.1893-17.969-8.1562zm17.625 15.812c-0.60401 1.3462-0.72892 3.1107-0.34375 4.0938-0.14121-0.36041-1.2557-0.86456 0.15625-3.875 0.0377-0.0803 0.14178-0.13995 0.1875-0.21875zm-88.531 66.344c0.0358 0.21329 0.10256 0.38771 0.15625 0.59375l-0.15625 0.0312c0.00001 0.00005-0.0729-0.41983-0.0937-0.59375l0.0937-0.0312zm164.84 59.72c-0.0625-0.009 0.27777 0.0651 0.40625 0.0937-0.30162-0.0105-0.36492-0.0878-0.40625-0.0937zm-159.47 32.062c-0.0356 0.1388-0.0559 0.27819-0.21875 0.625-0.21142 0.45032-0.56202 1.296-2 2.125v0.0312c-1.1124 0.64089-2.533 0.71991-3.4375 0.53125-0.90446-0.18866-1.4222-0.49391-1.75-0.71875-0.46268-0.31736-0.49522-0.40732-0.59375-0.53125l2.91-1.62 0.34375 0.34375 1.2812-0.21875 3.4688-0.5625zm136.54 112.85c0.013 0.19341 0.0467 0.37574 0.0625 0.5625l-0.125-0.28125c0.0204-0.0819 0.0404-0.19192 0.0625-0.28125zm2.375 6.5312c0.29951 0.40006 0.54793 0.80129 0.9375 1.2188 0.6715 0.71957 1.4882 1.4871 2.875 2.0938 0.82291 0.35998 1.9766 0.46763 3.1875 0.375 0.1259 0.39538 0.23767 0.81305 0.375 1.1875 0.62126 1.694 1.3203 3.1707 1.9375 4.3125s0.82872 1.5737 1.5 2.4688c1.2278 1.637 2.1834 1.9285 3.0938 2.375 0.91033 0.44646 1.823 0.77511 2.8125 1.125 1.9791 0.69977 4.1995 1.3724 6.3125 2.0312 1.6127 0.50288 2.8724 0.96083 4.0312 1.4062-0.47837 1.0964-1.0566 2.2959-1.6875 3.5312-1.4828 2.9033-2.9688 5.5-2.9688 5.5a5.0318 5.0318 0 0 0 -0.5625 1.375s-0.53499 2.2418-0.34375 5c0.0736 1.0615 0.36667 2.3302 0.8125 3.625-0.4641 0.30425-0.94461 0.6018-1.4062 0.90625-2.8076 1.8516-2.9691 4.4435-3.0312 6.1562s0.17444 3.2758 0.5 4.875c0.15574 0.76502 0.42844 1.337 0.625 2.0938-1.407-2.6889-2.8772-5.5366-4.0312-7.6875-0.90781-1.692-1.7076-3.1338-2.3438-4.25-0.31807-0.5581-0.58176-1.0182-0.84375-1.4375-0.26199-0.41931-0.20057-0.57556-1.1562-1.5312-1.5163-1.5163-2.6048-1.8737-3.6562-2.1562a5.0318 5.0318 0 0 0 -0.40625 -3l-3.9375-8.5625v-0.0312a5.0318 5.0318 0 0 0 0.28125 -2.0938l-1.1-12.66a5.0318 5.0318 0 0 0 -2.06 -3.66 5.0318 5.0318 0 0 0 0.34375 -4.3438l-0.0937-0.25zm24.625 62.406c0.95768 0.51065 0.97076 0.63881 1.5938 0.84375 0.12661 1.0225 0.23529 2.0587 0.40625 3-0.6052-1.164-1.3259-2.5445-2-3.8438z"/>
    <path id="path3386" fill="#784421" d="m95.801 563.89 106.57-98.64-11.9-30.04-108.84 99.2z"/>
    <path id="path3388" fill="#502d16" d="m95.235 567.86 106.58-98.64-6.25-13.04-108.84 99.21z"/>
    <path id="path3376" d="m39.114 508.9 13.038 94.101 32.312 3.4012-9.6368-93.534z" fill="#666"/>
    <path id="path3378" d="m74.827 512.87 9.6368 93.534 20.407-21.541-9.6368-89.566z" fill="#4d4d4d"/>
    <path id="path3390" fill="#deaa87" d="m163.94 433.87s-10.021 10.823-12.226 13.829c-2.2046 3.0063-6.213 21.645-5.4113 23.249 0.80168 1.6034 1.4029 3.2067 1.4029 3.2067s8.0168-8.0168 10.622-8.4176c2.6055-0.40084 8.618 16.434 8.618 16.434l21.846-6.213-5.0105-37.679z"/>
    <path id="path3336" d="m178.56 341.5-5.6687 32.879s-1.7006 2.8344-1.984 4.2515c-0.28344 1.4172 3.4012 5.9522 3.4012 5.9522l-3.6847 1.4172-7.3693 49.318 22.108 8.5031 24.376-82.196z" fill="#501616"/>
    <path id="path3342" fill="#28170b" d="m163.34 424.45c9.1605-1.1999 15.21 3.045 22.447 5.2109l-4.8101 10.622c-5.1699-2.474-11.543-4.6043-20.443-6.0126z"/>
    <path id="path3340" fill="#28170b" d="m170.96 396.19c9.1605-1.1999 15.21 3.045 22.447 5.2109l-4.8101 10.622c-5.1699-2.474-11.543-4.6043-20.443-6.0126z"/>
    <path id="path3334" fill="#c8ab37" d="m184.8 300.41s-8.4499 30.099-12.416 48.702c-0.36916 1.7315-2.6958 1.9585-3.0037 3.4841-1.1266 5.5827-1.7885 9.5776-1.5865 10.453l9.7759 4.1621c6.6285-0.52498 13.543-49.455 20.835-72.47z"/>
    <path id="path3348" d="m185 339.47-8.0312 21.844-9.1562 1.8125c0.85008 3.6062 2.0938 4.875 2.0938 4.875s-1.2348 3.131-1.5312 4.6875c-0.30924 1.6235 4.0938 2.4062 4.0938 2.4062 1.5094-2.4759 1.0749-7.5567 5.0938-7.875 3.174-0.25138 6.4348-11.649 9.75-25.938l-2.31-1.81z" fill="#504416"/>
    <path id="path3107" fill="#c8ab37" d="m186.98 637.17-27.78 9.046-4.3994-1.9654s-29.398 10.296-33.04 15.096c-3.6421 4.8008-1.8961 25.704 2.3392 29.386 4.2353 3.6816 33.004 8.7729 43.63 6.3251s37.263-3.4583 51.256-2.448 39.215 0.36669 41.583-2.6239c3.8749-4.8937 2.6771-34.851-9.8982-52.156z"/>
    <path id="path3109" fill="#504416" d="m188.18 637.16 4.8285 4.9878 24.477 16.739s14.062 10.104 20.867 9.9121c6.8057-0.19181 9.9176-0.41164 9.9176-0.41164 2.7692 7.8572 0.75843 16.049-0.51723 24.189 6.6523-0.47614 11.812-1.3163 12.819-2.5881 3.8749-4.8937 2.6627-34.85-9.9126-52.154z"/>
    <path id="path3084" fill="#c8ab37" d="m307.04 653.13c-3.3843 10.22-8.4568 16.339-8.4176 34.873 0.0253 11.958 0.56505 19.476 4.0084 24.652 6.8142 10.242 26.455 9.8206 48.502 11.023 22.046 1.2025 39.282-4.0084 40.886-9.2193l-9.3048-30.464 1.288-20.844c0.32138-5.201-35.675-31.265-35.675-31.265z"/>
    <path id="path3100" fill="#504416" d="m344.47 633.88-37.438 19.25c-0.90641 2.7371-1.9195 5.1901-2.9375 7.6562h3.875s18.168-11.784 28.469-12.75c27.21-2.5509 43.65 20.573 43.65 20.573l-1.838 1.4178-5.5305-2.835c1.9759 6.6516 1.4567 11.307 1.6875 16.562l2.0102-0.002c1.1929 6.1747 1.5299 11.836 0.83359 16.877l-0.9375 21.469c8.9174-1.788 14.814-4.6842 15.719-7.625 1.6034-5.2109 3.2067-22.47 0-24.875s-0.8125-5.5938-0.8125-5.5938-5.2146-16.034-7.2188-20.844c-1.7455-4.1893-26.316-23.844-32.938-29.094z"/>
    <path id="path3119" d="m182.53 505.33s-5.6687 36.28-2.8344 41.949c2.8344 5.6687 66.891 43.082 66.891 43.082s0.72836-26.622 0.72836-28.225c0-1.6034-5.6117-6.0126-5.6117-6.0126s4.8101 1.6034 6.0126-0.80168c1.2025-2.405-2.405-5.6118-2.405-5.6118l2.8059-4.4092-1.6034-24.852 39.683-4.8101s7.2151 36.476 8.8185 39.683c1.6034 3.2067 9.2193 22.046 9.2193 22.046l55.316-3.2067s7.616-76.56-2.405-88.986-174.61 20.156-174.61 20.156z" fill="#501616"/>
    <path id="path3092" fill="#504416" d="m182.18 423.65s-17.837 29.462-18.439 30.865c-0.60126 1.4029 0.48263 3.6636 1.0365 4.5225 0.86038 1.3342 2.1702 3.2939 2.1702 3.2939s-5.2109 19.842-6.213 22.447c-1.0021 2.6054-0.80168 9.4197 1.4029 10.422 2.2046 1.0021 10.021 5.4113 10.021 5.4113s-1.8038 6.213-2.2046 8.4176c-0.40084 2.2046 2.6054 6.8143 4.0084 7.2151 1.4029 0.40083 11.223 3.2067 12.025 3.2067 0.80168 0 2.405-2.2046 2.405-2.2046s0.60126 4.2088 0.40084 5.8122 3.2067 7.0147 4.6096 7.0147 19.441 5.2109 21.044 5.2109c1.6034 0 8.0168-5.0105 8.0168-5.0105s1.2025 2.6055 0.80168 4.8101c-0.40084 2.2046 2.405 5.8122 4.8101 6.213 2.405 0.40084 26.255 0.20042 28.259 0 2.0042-0.20042 4.8101-8.0168 4.8101-8.0168s2.2046 6.6138 5.4113 6.8143c1.3418 0.0839 24.932-4.3176 27.658-5.6117 2.6361-1.2516 3.6076-19.04 3.6076-19.04s3.1966 3.0063 5.0004 3.0063 26.504-8.1342 29.276-10.647c2.1104-1.9131 0.84613-8.6768 0.84613-8.6768s1.3543 2.2876 2.7572 2.4881c1.4029 0.20042 21.846-7.2151 21.846-7.2151l8.2172-5.2109s-7.2151-23.249-8.2172-25.052c-1.0021-1.8038-4.2088-2.6054-4.2088-2.6054s3.6076-3.0063 2.405-4.8101c-1.2025-1.8038-18.038-35.073-19.441-36.476-1.4029-1.4029-8.618-2.6054-8.618-2.6054z"/>
    <path id="path3071" d="m395.03 308s9.8206 10.221 10.422 11.825c0.60126 1.6034-0.40084 7.8164-0.40084 7.8164l-16.034-13.629z" fill="#c8ab37"/>
    <path id="path3075" fill="#504416" d="m179.78 390.58 3.0063 5.2109-0.60125 3.4071-1.4272 13.325-0.60422 2.6627s-1.566 13.102 1.6407 17.511l14.821 11.395 4.4092-51.909z"/>
    <path id="path3070" fill="#c8ab37" d="m183.72 372.85-3.5663 2.2302-0.76997 15.892 3.1875 1.2188 12.232 0.19621 5.0431-19.118-11.856-0.88372zm-0.74251 22.154-2.8125 2.375-0.60126 13.165 1.2188 2 14.638 3.4192-0.40084-20.182zm-3.0613 19.851-0.99202 2.9886 1.2914 12.182 15.411 11.852-1.4246-24.535z"/>
    <path id="path3064" d="m241.61 367.36 75.536 1.4286 3.9286 3.9286 3.5714 9.2857-2.5 2.5 0.53571 3.75 3.3929 0.35715 1.0714 12.679-2.6786 2.6786 0.53572 1.25 2.3214-0.17857 3.9286 8.5714-1.6071 4.6428-28.929 15.536-36.429 13.036z" fill="#504416"/>
    <path id="path3052" fill="#c8ab37" d="m260.18 371.65s25.536-2.1429 28.75-0.00001c3.2143 2.1429 5 5 5 5s1.7857 8.9286 1.0714 11.429c-0.71429 2.5-22.321 1.4286-22.321 1.4286z"/>
    <path id="path3025" d="m213.93 258.79-7.1429 40.714 51.429 2.1429 56.071-58.571-25-10.714z" fill="#241c1c"/>
    <path id="path3015" fill="#504416" d="m270.97 278.59s-5.8084-3.0305-8.8388-1.7678-11.869 11.112-14.647 11.112c-2.7779 0-31.315 0.25254-31.315 0.25254l-7.3236-9.849s-16.162 19.698-18.435 20.708c-2.2728 1.0102-13.89 45.962-13.637 49.497 0.25254 3.5355 6.3135 9.3439 6.3135 9.3439l5.9254 15.374 10.19 0.2606s32.625-5.5334 36.918-6.0385c4.2931-0.50507 85.038 7.6326 85.543 6.1174 0.50508-1.5152 13.127-55.738 13.127-55.738l-22.151-33.969z"/>
    <path id="path3033" d="m173.75 293.23s-2.5254 7.5761-4.5457 10.102c-2.0203 2.5254 10.607 2.5254 10.607 2.5254l28.284-14.142-13.637-5.0508z" fill="#504416"/>
    <path id="path3790" fill="#312a25" d="m386.38 266.46c5.4942 9.6424 12.271 19.028 14.647 29.294l-57.074-16.162 7.0711-21.718z"/>
    <path id="path3051" fill="#deaa87" d="m210.62 118.73s-18.863 22.828-21.718 36.618c-0.88998 4.2991 1.0102 13.132 1.0102 13.132s-1.0284 2.7102-1.0102 3.7881c0.0263 1.552 2.0203 2.2728 2.0203 2.2728s-11.232 9.968-8.8388 20.456c2.985 13.082 11.364 40.659 11.364 40.659l60.104 4.5457 39.901-52.528-1.5152-56.569-52.023-26.769z"/>
    <path id="path3057" fill="#b4754b" d="m231.31 153.31s-6.5059 0.10605-9.75 2.5312c-1.5301 1.1439-1.2986 4.9513-1.2188 5.5625 2.2823 17.479 0.875 28.531 0.875 28.531s3.7973-1.0076 5.3125-0.25c1.5152 0.75761 3.5985 5.5727 1.875 7.4688-2.0341 2.2377-8.9375-1.4062-8.9375-1.4062s-3.4281 3.2787-7.4688 3.5312c-4.0406 0.25254-7.6875-3.5312-7.6875-3.5312s-1.2584 3.1727-3.5312 1.5312c-1.9422-1.4027-1.5312 2-1.5312 2s4.2871 4.0414 6.8125 3.0312 3.5481 2.0312 8.0938 2.0312 8.3285-3.0338 9.8438-2.7812c1.5152 0.25254 4.532 2.9139 7.5625 2.1562 3.0305-0.75762 4.8931-5.1516 4.8125-6.8438-0.0534-1.1216-2.3274-7.6228-5.5-9.9062-1.489-5.7611-3.7395-13.167-3.5938-14.188 0.25254-1.7678 2.5312-0.5 2.5312-0.5s10.946 4.7877 8.0179 2.1194c-2.6192-2.8987-2.2975-4.4522-2.5804-7.432 0 0-3.4358-1.1339-6.7188-0.25-1.8571 0.5-2.9062 0.25-2.9062 0.25s-0.90295 0.38943 0.65625-2.0312c3.9445-6.1239 20.633 1.2324 20.188 3.2812l1.2812-1s-6.6934-6.6799-9.2188-7.4375c-2.5254-0.75762-6.4332-1.5401-9.9688-0.65625 0-2.5254 2.75-5.8125 2.75-5.8125zm2.2812 6.5938-0.375 1.875c-1.894-0.46976-3.4822-0.12267-5.25 1 1.3985-2.727 3.7607-2.7903 5.625-2.875zm17.562 5.7812s3.1744 2.5518 2.78 4.0663c-0.21887 0.84056-2.28 0.62119-2.28 0.62119l-2.53 0.63c0.45936 1.2543 0.10074 0.10727-2.5127 0.0677 0 0-0.45209 3.4075-2.2199 3.7863-1.7678 0.37881-4.5524 0.25127-4.5524 0.25127 3.3386 1.7333 6.3027 2.2972 8.9069 0.99746 1.9742-0.98526 3.2062-1.9319 2.6593-3.6965 0 0 4.7219-0.006 4.0906-1.2686-0.62-1.26 6.01-0.26 6.01-0.26-3.7354-1.1543-7.1113-3.0274-10.344-5.1875z"/>
    <path id="path3053" fill="#782121" d="m222.49 148.53c-0.13776 2.5607 1.5152 6.8185 3.0305 7.0711 1.5152 0.25254 7.9783-2.9019 12.122-2.7779 5.0855 0.1522 14.647 4.2932 14.647 4.2932s-0.88388-7.4499-5.5558-11.112c-3.482-2.7291-6.5266-4.1126-10.228-4.4194-4.0185-0.33313-8.534 0.46253-11.743 2.9042-1.2298 0.93574-2.1898 2.4975-2.2728 4.0406z"/>
    <path id="path3000" fill="#b4754b" d="m214.41 155.59c-0.37881 0.12627-1.375 1.9062-1.375 1.9062s-2.407-1.4024-5.4375-1.7812c-3.0305-0.37881-6.0843 5.4256-9.8438 6.6875-2.6697 0.89615-7.1117 1.0688-8.4375 0.4375 0 0 0.46875 3.2322 0.46875 5s2.0186 0.50127 3.2812 0.375c1.2627-0.12627 0.004 3.4012-0.375 3.9062-0.37881 0.50508-2.0186 0.0275-3.2812 0.40625-1.2627 0.37881 1.75 1.875 1.75 1.875 3.1986-1.1783 2.2195 2.0482 8.5938 2.0312 3.5418-0.36525 8.9688-5.8125 8.9688-5.8125s-2.2722 11.764-4.6075 17.81c-5.7282 3.188-4.7337 6.371-4.9863 7.0655-0.50508 1.389 1.7724-2.5249 2.6562-3.1562 0.88388-0.63135 2.7787 0.13975 3.0312 1.7812 0.25254 1.6415 1.875-3.5625 1.875-3.5625s8.0976-35.095 7.7188-34.969zm-13.5 8.1562 0.53125 1.1875c-1.108 0.22635-1.9913 1.2387-2.8661 2.2812-0.0119-1.0074 0.41528-2.4167 2.3348-3.4688zm4.9062 4.0938s-0.61039 6.4407-5.9062 7.2812c-1.0054 0.15958-2.4241-4.1429-2.4241-4.1429s1.8413-2.0721 3.8616-2.4509c2.0203-0.37881 4.4688-0.6875 4.4688-0.6875z"/>
    <path id="path3055" fill="#782121" d="m189.66 158.88c0.28826-1.4413 14.777-0.3966 17.173 0.75761 2.594 1.2498 3.0305-6.566 3.0305-6.566s-2.5254-6.566-4.7982-7.0711c-2.2728-0.50508-13.637 1.2627-14.9 2.0203-1.2627 0.75761-5.5558 8.0812-4.2932 9.0914 1.2627 1.0102 3.7881 1.7678 3.7881 1.7678z"/>
    <path id="path3059" d="m225.77 166.71s3.6824-0.96563 5.5558-0.88388c5.2013 0.22694 15.152 3.7881 15.152 3.7881l-0.12627-1.2627s-5.4445-3.8608-8.5863-4.7982c-2.8707-0.8565-6.2211-1.8334-8.9651-0.63134-1.4812 0.64882-3.0305 3.7881-3.0305 3.7881z"/>
    <path id="path3086" transform="translate(-.63135 -.063135)" fill="#f2f2f2" d="m232.08 164c0 0.52303-0.45226 0.94702-1.0102 0.94702-0.55789 0-1.0102-0.42399-1.0102-0.94702 0-0.52302 0.45226-0.94701 1.0102-0.94701 0.55789 0 1.0102 0.42399 1.0102 0.94701z"/>
    <path id="path2998" d="m208.6 166.84-1.3258-2.1466s-5.6385-0.068-7.5761 1.6415c-0.90338 0.79701-1.1996 3.4093-1.1996 3.4093s1.2627-1.5152 2.2728-1.6415c1.0102-0.12626 7.8287-1.2627 7.8287-1.2627z"/>
    <path id="path3005" transform="matrix(.84375 0 0 .86667 5.5578 24.833)" fill="#f2f2f2" d="m232.08 164c0 0.52303-0.45226 0.94702-1.0102 0.94702-0.55789 0-1.0102-0.42399-1.0102-0.94702 0-0.52302 0.45226-0.94701 1.0102-0.94701 0.55789 0 1.0102 0.42399 1.0102 0.94701z"/>
    <path id="path3016" fill="#b4754b" d="m267.14 120.58c-7.3918 12.083-10.122 24.167-13.929 36.25 0 0 4.2857 6.4286 4.8214 8.75 0.53572 2.3214-1.0714 5.1786-1.0714 5.1786s-5.5744 3.9047-5.7143 7.1429c-0.12482 2.8886 7.8571 13.036 6.6071 17.143-1.25 4.1071-9.1071 10.536-9.1071 10.536l0.35714 23.393h53.571l34.821-52.5-48.571-55.714z"/>
    <path id="path3017" fill="#c8ab37" d="m219.2 303.08s-2.2587 28.463-2.8088 30.047c-0.44604 1.2838-9.9318 17.436-11.684 17.9-7.2961 1.9283-17.665 1.5566-18.873 1.5566-1.7678 0-6.5969-6.5969-6.5969-6.5969l11.17-43.16s8.3338-10.859 9.3439-10.859c1.0102 0 19.445 11.112 19.445 11.112z"/>
    <path id="path3019" fill="#c8ab37" d="m226.5 333.66c-0.25253 1.5152 13.962 17.621 16.74 18.126 2.7779 0.50507 46.425 0.28344 48.446-0.97926 2.0203-1.2627 17.173-36.113 17.173-36.113l-6.0609-3.283-4.2931-11.617-15.405-7.3236-1.2627 3.0304-17.678-2.7779c-3.7881-0.50508 0.50508-11.869 0.50508-11.869s-2.1982-1.2264-5.0948 0.428c-5.0794 2.9012-12.306 9.421-13.593 9.421-2.0203 0-7.8287 17.425-7.8287 17.425l2.2728-14.142-8.0812 17.173 1.7678 9.3439-6.0609-6.3135z"/>
    <path id="path3031" d="m189.4 257.37-25.254 26.264 1.5152 2.5254s-2.5254 0.50508-2.0203 3.0305c0.50508 2.5254 14.647 11.617 14.647 11.617l28.789-13.132z" fill="#c8ab37"/>
    <path id="path3102" fill="#deaa87" d="m373.85 472.17s-10.971 9.7542-11.538 13.155c-0.56687 3.4012 1.6176 29.077 2.4679 31.627 0.85031 2.5509 8.9324 7.0029 8.9324 7.0029s3.5388 14.255 5.5228 18.223c1.984 3.9681 9.07 3.6847 9.07 3.6847l41.308-21.43-18.004-55.817-22.171-9.7685z"/>
    <path id="path3038" fill="#501616" d="m323.68 304.09-1.1337 29.477s6.6607 28.769 13.747 28.91l5.0653 12.668c-3.2113 3.9511 2.2116 12.718 2.7292 13.408 1.7006 2.2675 18.14 5.1018 18.14 7.9362s-6.2356 13.605-6.2356 13.605-1.7025 7.2228 3.4569 9.3848l1.1063 12.418c-1.7937 10.093 2.0616 20.924 2.8061 22.413 1.7006 3.4012 7.3693 20.407 7.3693 20.407l33.445-15.872 5.1018-64.623-5.6687-23.809z"/>
    <path id="path3061" fill="#504416" d="m360.25 382.32s2.2675 8.2196 3.1178 9.9203c0.85031 1.7006 6.738 4.9059 9.9203 3.9681 7.9279-2.3363 22.991-9.121 35.132-10.667 7.4014-0.94277 8.2509-0.91639 10.149 0.31192 3.4071 2.2046 5.1706 0.15179 5.1706 0.15179-0.79066-7.5711-5.9155-12.574-9.2846-18.618-1.4896-2.6721-5.0723-3.2437-6.6566-5.8608l-5.5999-9.2502z"/>
    <path id="path3010" fill="#782121" d="m233.21 110.58c-3.3928 5-17.857 8.2143-20.714 9.1072-2.8571 0.89285-15.893 18.75-15.893 18.75s-5.5357-20-2.6786-23.393c2.8571-3.3929 22.857-18.214 26.607-18.214s21.429 0.71429 21.429 0.71429 9.7598-5.8742 13.929-5.8929c9.663-0.04333 22.547 14.523 21.964 13.036-0.46018-1.1745 34.322 7.3572 36.071 8.0357 0.99897 0.38733 5.6814-3.3575 8.3929-2.3214 9.0537 3.4595 14.464 20 15.714 24.464l-62.143 117.86s-12.5 17.143-13.571 18.571c-1.0714 1.4286 1.9643-8.5714 1.6071-9.2857-0.35714-0.71428-20.357 22.5-21.964 26.607-1.6071 4.1071-4.1071 16.786-5 14.821-0.89285-1.9643 4.2857-21.429 2.8572-23.214-0.70934-1.8282-6.9634 17.671-8.7268 24.268-0.68366 2.6173-1.3113-1.9844-0.33177-8.0558 0.97076-6.0172-0.13524-11.771-1.921-9.2708-1.7857 2.5-1.9072 13.304-1.6303 19.98 0.26559 6.4048 5.6456 18.615 3.1456 18.972-2.5 0.35714-13.393-23.214-14.286-24.464-0.89286-1.25 2.3214 10.893 0.89285 9.6429-1.4286-1.25-5.8928-12.679-6.0714-14.107-0.17858-1.4286 1.7857 7.1428 0.17857 7.5-1.6072 0.35714-4.6429-4.2857-5.3572-8.9286-0.71-4.65-4.46-9.65-4.46-6.79 0 2.8571 0.35714 5.3571-1.6071 1.9643-1.9643-3.3929-13.393-34.643-14.107-31.786-0.71428 2.8571 4.1072 14.464 2.6786 14.464s-6.4286-11.25-6.25-14.107c0.17858-2.8571-2.5-43.393 0-45.536 2.5-2.1429 3.5714-6.0714 3.5714-6.0714l9.1071 15.179s2.5-15.357 5.5357-17.857 20.357-1.9643 23.036-1.25c2.6786 0.71429 19.107 10.179 21.964 13.393 2.8571 3.2143 2.8571 4.2857 2.8571 4.2857s8.5714-15.893 11.964-16.429c3.3929-0.53571 23.965-7.0193 23.965-7.0193l5.1786-39.679s-8.9647-9.7302-12-11.695c-3.0357-1.9643-15.893-25.714-18.929-28.393-3.0357-2.6786-8.0357-4.8214-8.0357-4.8214s2.5 1.25-3.3929 1.0714c-5.8928-0.17857-13.571-4.1072-13.571-4.1072z"/>
    <path id="path3392" fill="#501616" d="m299.19 120.84c-3.8436-0.004-7.9911 0.67699-12.625 2.4062l22.656 39.969s-7.8683-1.9997-13.031-4.5312c-9.1956-4.5088-24.219-18.906-24.219-18.906 2.2757 3.5753 4.2362 6.4157 5.1875 7.0312 3.0357 1.9643 8.375 10.906 8.375 10.906l-0.53 12.31-0.90625 1.625 1.25 4.0938-2.6562 1.25 2.6562 1.7812-5.53 3.22s4.1295 0.71875 3.5938 1.9688c-0.53572 1.25-3.0625 9.8125-3.0625 9.8125s-16.951 10.902-20.344 11.438c-0.22796 0.036-0.47565 0.22346-0.75 0.46875 0 0 13.496 12.732 17.344 20.938 2.1374 4.5577 2.7812 14.844 2.7812 14.844l-9.2188-7.625-0.40625 18.438-2.375-4.4062-4.0625 14.594c0.35324-0.32353 0.59126-0.53622 0.625-0.46875 0.35714 0.71429-2.6964 10.71-1.625 9.2812 1.0714-1.4286 13.594-18.562 13.594-18.562s2.2946 3.75 3.1875 2.5c0.89286-1.25 11.812-13.938 11.812-13.938s55.522-3.567 56.594-4.2812c1.0714-0.71428-15.897-17.491-15.719-18.562 0.17857-1.0714 19.991 9.6428 23.562 10 3.5714 0.35714-4.0848-3.7411-5.1562-4.8125s14.812 4.4509 16.062 4.0938c1.25-0.35714-16.241-17.152-19.812-20.188-3.5714-3.0357-0.5491-3.0134 1.5938-2.6562 2.1429 0.35714 29.304 11.228 31.625 11.406 2.3214 0.17857-1.433-2.8527-8.2188-5.5312-6.7857-2.6786-31.987-39.625-32.344-43.375-0.35714-3.75 0.1875-28.036-1.0625-32.5-0.3865-1.3804-1.177-3.9293-2.3438-6.875-5.3929 3.2364-9.3068 2.3883-14-0.78125-7.112-3.0166-14.044-6.3672-22.5-6.375z"/>
    <path id="path3012" fill="#b4754b" d="m294.96 185.65s4.0406-11.869 10.859-13.637c6.8185-1.7678 13.888 1.6246 15.657 7.0711 4.0424 12.443-16.162 33.588-19.445 34.093-3.283 0.50508-10.102 9.0914-10.102 9.0914s1.7678-25.506 0.50508-27.022c-1.2627-1.5152 2.5254-9.5964 2.5254-9.5964z"/>
    <path id="path3786" fill="#754c31" d="m298.75 188.93s2.7779-9.0914 6.3135-9.849c3.5355-0.75762 12.627-0.00001 12.879 3.5355 0.25254 3.5355-1.0102 10.354-3.7881 17.678l-14.647 9.3439s9.0042-5.9229 11.869-10.859c2.5998-4.4791 4.2932-14.142 3.7881-14.9-0.50507-0.75762-11.364-1.7678-11.364-0.75761s4.9896 2.7682 4.2931 4.7982c-0.61088 1.7804-5.5558 1.0102-5.5558 1.0102s-2.2728 4.2932 0.50508 5.8084 2.5254 7.5761 0.75762 8.3338c-1.7678 0.75761-8.5863 2.7779-8.5863 2.7779s4.5457-4.0406 5.0508-5.8084c0.50508-1.7678-1.5152-11.112-1.5152-11.112z"/>
    <path id="path3009" fill="#504416" d="m310.87 240.45s-12.879-3.7881-17.173 0c-10.177 11.36-16.503 23.85-20.203 38.386l16.92 2.5254z"/>
    <path id="path3013" fill="#312a25" d="m374.38 292.97 4.0312 27.25s16.826 8.8416 22.438 9.8438c5.6118 1.0021 4.8017-5.8341 4-7.4375-0.65468-1.3094-7.5022-7.1808-8.9462-11.665-0.87362-2.7128 4.9978-1.446 9.165-2.835 4.5457-1.5152 6.0625-5.2812 6.0625-5.2812l-18.19-7.59-8.19 2.87z"/>
    <path id="path3078" d="m331.76 363.19s-0.14172 10.487 0.42516 11.904c0.56687 1.4172 2.5509 4.3933 4.1098 3.543 1.5589-0.85031 3.2595-2.6926 3.2595-2.6926l7.6528-4.3933-5.527-15.589z" fill="#28170b"/>
    <path id="path3093" fill="#782121" d="m333.88 331.03c-3.0392-0.57294-5.8018-0.0393-7.3438 5.3772 0 0 4.7972 19.549 6.7812 20.967 1.984 1.4172 8.7812-1.4062 8.7812-1.4062zm12.781 44.188s-4.2544 2.5763-3.6875 4.8438c0.56687 2.2675 2.2681 7.0603 3.9688 7.3438 1.7006 0.28343 9.9062 1.7188 9.9062 1.7188l-5.1-4.82zm17.281 22.688-7.0938 12.188 2 5.375 21.812-9.9062-3.4062-7.0938s-7.0806 2.8459-8.7812 2.5625c-1.7006-0.28344-4.5312-3.125-4.5312-3.125zm15.031 30.625-16.75 7.0625s-0.53999 3.4003 0.59375 8.2188c1.1337 4.8184 3.0938 9.9375 3.0938 9.9375l12.47-6.26z"/>
    <path id="path3040" d="m327.09 313.73s18.99 62.072 19.557 64.623c0.56688 2.5509 8.2196 6.8025 10.487 6.2356 2.2675-0.56687 43.933-9.6368 45.35-13.038 1.4172-3.4012 2.8344-24.092 2.8344-24.092l-23.525-55.27z" fill="#c8ab37"/>
    <path id="path3042" d="m381.78 292.19-54.688 21.531s2.3994 7.8698 3.375 11.062h0.0312l11.312 2.8438 0.46875 0.3125c3.5624 10.273 8.6687 24.331 13.156 33.969 1.9639 4.2177 11.326 3.4084 13.594 3.125 2.2675-0.28344-9.1163-2.2199-10.781-5.9688-3.8212-8.6041-7.7171-18.919-10.812-27.5l0.0625 0.0312s24.666 9.3459 27.5 9.0625c2.8344-0.28344 5.9375-9.625 5.9375-9.625l15.594 29.188s4.2478 1.9869 4.5312 3.6875c0.22258 1.3355-0.19134 6.399-0.40625 8.9375 1.0103-0.48795 1.6578-0.90997 1.8125-1.2812 1.4172-3.4012 2.8438-24.094 2.8438-24.094l-23.531-55.281z" fill="#504416"/>
    <path id="path3011" fill="#c8ab37" d="m302.04 293.74 3.0305 13.637s52.78 19.698 58.336 19.951c5.5558 0.25254 17.425-2.7779 12.879-6.8185-4.5457-4.0406-10.859-15.405-5.5558-17.678 5.3033-2.2728 22.728-5.5558 28.537-3.5355 5.8084 2.0203 11.617 4.7982 11.617 4.7982s-1.9181-6.7592-4.7982-7.8287l-68.69-25.506z"/>
    <path id="path3073" fill="#504416" d="m302.63 302.39 36.677 13.428 10.221-10.221c0.80792-0.80792 18.639 9.3195 18.639 9.3195l-15.23-12.83s0.56323 0.38449 5.5115-4.0084c2.3391-2.0766 0.10262-2.3636 3.1354-3.9338 8.3592-4.3278 21.115-6.6885 21.115-6.6885l-35.374-15.533-46.096 22.447 1.2025 8.8185z"/>
    <path id="path3788" fill="#c8ab37" d="m325.19 232.53c-6.6883 0.0592-15.831 0.59962-17.094 3.125-2.0203 4.0406-2.0312 10.094-2.0312 10.094l-7.5625 12.125-4.0312 2.0312s-11.619 27.256-9.0938 29.781c2.5254 2.5254 53.531 23.25 53.531 23.25s12.64-17.167 11.125-19.188c-1.51-2.02-2.03-4.06-2.03-4.06l11.09-20.19s18.355 5.2821 29.062 3.625c6.13 7.0009 9.7487 14.42 11.844 22.094l4.2812-1.0625c-1.1842-7.672-6.3257-14.553-11-21.375 0.0956-0.0734 0.1875-0.15396 0.1875-0.25 0-2.5254-4.6652-13.871-4.6652-13.871s-3.4017-3.5307-5.4598-4.817c-15.614-9.7587-32.968-17.494-51-21.219-2.3363-0.48255-3.1433-0.12926-7.1562-0.0937z"/>
    <path id="path3795" fill="#c8ab37" d="m271.07 271.65c0.89286-1.4286 16.25-1.9643 15.714 0.71429 0 0-3.9286 18.214-7.1428 19.286-3.2143 1.0714-12.857 2.1429-15.357-1.0714-1.0963-1.4096 4.1071-15.893 6.7857-18.929z"/>
    <path id="path3797" fill="#504416" d="m267.86 289.15c4.8214 1.25 10.179 0.53572 11.429-0.17857 1.25-0.71428 5.1786-14.107 5.1786-14.107s-2.6786 4.2857-3.0357 5.5357c-0.35714 1.25-1.4286 8.0357-4.1071 7.6786-2.6786-0.35714-8.3929-0.71428-9.2857-1.7857-0.80023-0.96028-0.17857 2.8571-0.17857 2.8571z"/>
    <path id="path3021" d="m186.63 360.41 2.7779 11.112 11.364-3.283 0.25254-9.0914z" fill="#c8ab37"/>
    <path id="path3023" d="m258.35 359.4 35.86-2.2728s1.2627 9.5964 0.25254 9.849c-1.0102 0.25253-36.113-1.2627-36.113-1.2627z" fill="#c8ab37"/>
    <path id="path3035" fill="#c8ab37" d="m205.36 354.15c0.0001-2.4485 36.071-1.9859 38.571-0.35714 2.1159 1.3786 5.1786 9.8214 5.5357 12.321 0.35715 2.5 17.679 24.464 22.321 27.321 4.6429 2.8571 4.6429 6.7857 4.6429 8.9286 0 2.1428-5.2906 35.237-6.0714 39.643-2.5 14.107-29.346 24.47-46.786 23.571-16.316-0.84043-27.969-12.849-29.821-19.464-2.5-8.9286-3.3929-54.821-3.3929-54.821s9.6429-19.286 10.357-22.857c0.71429-3.5714 0.35714-14.643 4.6429-14.286z"/>
    <path id="path3037" fill="#504416" d="m215 395.58s10.483 1.1798 10.483-1.0931l-0.12627-30.335 15.357 0.71429s22.143 31.429 24.643 32.857c2.5 1.4286 3.2143 6.4286 3.2143 6.4286l-3.57 1.42s-0.71429 20.357-2.1429 23.571c-0.60524 1.3618-1.9195 4.9466-3.5245 6.7342-2.1833 2.4318-4.6898 2.934-4.6898 2.934l1.7857-43.597s-15-21.786-16.786-24.286c-1.7857-2.5-10.714-2.8571-10.714-2.8571s-1.2881 21.071-1.4286 28.036c-0.0844 4.1845-11.071 1.4286-11.071 1.4286z"/>
    <path id="path3039" d="m212.14 365.22 0.17857 3.9286s-4.2857 0.35714-5.7143 0.71429c-1.4286 0.35714-11.25 23.75-11.25 23.75l-2.1429-0.35715s10.357-26.071 11.607-26.607c1.25-0.53571 7.3214-1.4286 7.3214-1.4286z" fill="#504416"/>
    <path id="path3041" fill="#e9ddaf" d="m205.36 356.83c6.25-1.25 32.5-1.4286 35-1.4286s1.3764-0.85066 0.17857-1.25c-0.91382-0.30464-28.548-1.3257-33.571 0.71429-1.9991 0.81186-5.1786 2.1428-1.6071 1.9643z"/>
    <path id="path3045" fill="#504416" d="m226.53 409.78c1.0089 0.70735 1.8222 28.652 3.0304 29.042 0.60087 0.19379 1.1364 2.5254 1.1364 2.5254l-3.7881 1.5152-2.0203-31.946z"/>
    <path id="path3043" fill="#e9ddaf" d="m216.79 411.29c0-0.74697 7.8644 0.51925 8.75-0.25254 0 0 1.9643-1.7118 0.19652-1.5855l-7.9094 0.34817z"/>
    <path id="path3047" fill="#e9ddaf" d="m229.68 441.09c-0.49607 0.99213 21.504-0.82506 26.011-2.7779 5.2745-2.2852 8.9897-13.185 8.46-14.773 0 0 0.0428 8.8109-0.88388 10.859-0.94028 2.0783-3.9387 5.3848-7.8435 6.5582-9.659 2.9024-25.726 4.0973-27.259 2.2807-0.97727-1.158 1.5152-2.1466 1.5152-2.1466z"/>
    <path id="path3049" fill="#e9ddaf" d="m217.56 444.12s-13.77-0.56019-15.784-0.88388c-7.0711-1.1364-7.4499-8.7126-7.4499-8.7126s0.75762-2.5254 1.6415 0 2.5852 6.1829 4.0406 6.4397c2.1466 0.3788 17.804 0.50507 17.804 0.50507z"/>
    <path id="path3054" fill="#c8ab37" d="m297.86 373.61 3.75 12.857 11.607-0.17857-3.3928-13.571z"/>
    <path id="path3056" fill="#c8ab37" d="m278.39 393.97s14.821-1.7857 15.893-1.4286c1.0714 0.35714 3.2143 2.1428 3.2143 4.2857s1.4286 10.357 0.53571 12.321c-0.89285 1.9643-3.3928 3.5714-6.7857 3.9286-3.3929 0.35714-11.786 2.6786-11.786 2.6786l1.79-18.4z"/>
    <path id="path3058" d="m278.04 420.4-2.5 21.964s17.5-9.1072 18.393-10.179c0.89286-1.0714 1.25-3.3928 1.25-3.3928s0.35714-7.3214 0-8.3929c-0.35714-1.0714-1.7857-2.5-3.5714-2.3214-1.7857 0.17857-13.571 2.3214-13.571 2.3214z" fill="#c8ab37"/>
    <path id="path3060" d="m304.82 393.26c-0.89286 0.71429-1.6072 1.25-1.9643 3.0357-0.35714 1.7857-1.7857 9.4643-1.0714 11.429 0.71429 1.9643 1.6072 3.5714 3.5714 3.3929 1.9643-0.17858 9.1071-1.9643 9.1071-1.9643l-0.53571-17.857z" fill="#c8ab37"/>
    <path id="path3062" d="m302.14 417.18c0.89285 0 10.893-2.5 10.893-2.5l0.71429 10.536s-11.071 6.7857-12.321 6.9643c-1.25 0.17858-3.3929-1.25-3.0357-2.6786 0.35714-1.4286 0.35714-9.6428 1.4286-10.714 1.0714-1.0714 2.3214-1.6072 2.3214-1.6072z" fill="#c8ab37"/>
    <path id="path3066" fill="#501616" d="m197.81 236.77 2.0042 2.2046-1.2025-15.633 1.8038 3.6076 1.4029-2.405s2.405 7.4155 3.2067 7.4155c0.80168 0 1.4029-8.0168 1.4029-8.0168l1.8038 1.6034 1.4029-1.4029 4.2088-1.0021 0.80168 2.405 1.2025-2.0042 2.8059 6.8143 1.6034-5.2109 1.4029 2.405 1.0021-2.6054 3.0063 5.4113 0.80168-5.4113 3.2067 0.40084 1.4029 4.6096 0.40084-3.6076 2.2046 2.8059 0.80168-3.4071 2.8059 0.80167 1.8038 5.4113 0.80168-3.0063 2.8059-1.0021 3.6076 6.0126 5.6117 14.831 1.4029-11.743 1.2025 18.639-0.20042 2.2046-1.4029-2.2046-0.20042 2.2046-10.221-21.846-1.4029 2.6054-1.2025 2.8059-3.0063-7.2151-1.0021-0.20042-0.20042 4.0084-3.4071-4.0084-0.40084 3.0063-2.6055-4.6096-2.405-0.60125 0.60126 6.6138-5.0105-6.0126-0.40084 2.2046-1.6034-2.405-0.80168 6.6138-3.808-7.8164-0.80168 2.405-1.0021-2.6054-4.2088 1.2025-1.4029 1.0021-0.80168-0.80167-1.6034 8.0168-3.808-8.0168-0.60126 2.6054-2.6054-3.2067 1.8038 16.434z"/>
    <path id="path3050" fill="#e9ddaf" d="m369.03 365.03 24.659-3.4012-5.6687-2.2675-23.95 3.6847z"/>
    <path id="path3063" d="m395.22 377.75-28.844 7.2188-4.9062 1.5625c0.68573 2.3181 1.469 4.8442 1.9062 5.7188 0.76331 1.5266 5.5629 4.2588 8.8438 4.125l1.5625-4 24.438-6.8125-3-7.8125z" fill="#c8ab37"/>
    <path id="path3076" fill="#e9ddaf" d="m312.25 235.85s-5.4546 4.4065 2.8059 6.213c7.4057 1.6196 42.088 25.854 42.088 25.854-9.191-15.284-22.436-23.027-44.894-32.067z"/>
    <path id="path3089" fill="#28170b" d="m389.82 405.41c-13.827 3.2371-25.191 9.5288-36.877 17.236-2.0964 1.3826 0.38481 9.578 2.0042 13.829 0.76697 2.0133 5.6118 3.2067 5.6118 3.2067v-7.2151c7.5679-5.3655 15.347-9.4624 23.449-11.624z"/>
    <path id="path3091" fill="#28170b" d="m381.8 448.7c-6.746 3.0817-13.689 6.1251-19.641 12.626-0.90785 0.99165 3.3841 11.838 4.4092 12.827 0.81172 0.78291 1.6851 0.99987 3.7964 0.18147 0.008-1.6617 2.2513-3.9243 2.9324-4.3325 6.9096-4.1415 11.013-4.9763 17.923-7.6738z"/>
    <path id="path3065" fill="#b4754b" d="m389.22 459.12-4.625 8 25.656 5.2188s16.241 45.902 14.438 47.906c-1.8038 2.0042-37.281 12.031-37.281 12.031l0.8125-2.8125s6.0057-8.0325 7.4087-10.438c1.4029-2.405-1.4062-23.438-1.4062-23.438l4.21-2.59s-13.624-4.2229-11.219-2.2188c2.405 2.0042 2.0021 20.65 1 23.656-1.0021 3.0063-3.2083 5.6067-6.2146 5.4062-2.6498-0.17665-12.225-0.60548-15.475-0.71875 2.6318 2.3283 7.1875 4.8438 7.1875 4.8438s0.18234 0.6742 0.21875 0.8125l0.4375 0.0625 8.625 6.2188-1.9375 4.4375 2.125 2.5938-2.7812 5.5625c2.7398 2.4238 7.9062 2.2188 7.9062 2.2188s-0.0109 1.9622 1.4062 2.8125c1.4172 0.85031 8.5094 1.1562 11.344 1.1562 2.8344 0 30.578-8.2885 32.562-11.406 1.984-3.1178 5.6897-11.849 5.4062-15.25-0.28344-3.4012-7.4688-13.125-7.4688-13.125s-18.935-39.433-19.938-41.438l-21.188-9.3438z"/>
    <path id="path3080" fill="#c8ab37" d="m418.35 395.07c-2.3111-3.3425-8.7865-7.6528-9.9203-7.0859-1.1337 0.56687-12.119 4.4318-13.82 6.4159-1.7006 1.984-7.991 8.4998-11.56 12.022-8.8126 8.6952-7.782 39.495-6.3648 43.463 1.4172 3.9681 4.2859 12.657 9.3878 13.86 4.9658 1.1704 26.609 5.3023 26.609 5.3023l5.1018-8.5031z"/>
    <path id="path3082" fill="#504416" d="m414.28 391.06 1.375 12.812s-3.8386-4.1148-6.5312-3.4062c-2.6926 0.70859-17.712 9.335-18.562 10.469-0.85031 1.1337-7.9128 24.94-7.0625 28.625 0.85031 3.6847 4.67 14.762 6.9375 15.188 2.2675 0.42515 1.5625-2.2812 1.5625-2.2812s-5.9688-9.2034-5.9688-11.188c0-1.9841 4.3953-26.52 5.8125-27.938 1.4172-1.4172 13.461-8.3583 16.438-8.5 2.9761-0.14171 5.6875 2.4062 5.6875 2.4062l0.96875 52.438-5.7848-2.1286 4.9411 3.9724-2.125 7.375c0.10874 0.0249 0.71875 0.15625 0.71875 0.15625l1.4062 5.375s2.835 2.83 3.9688 0.5625c1.1337-2.2675 2.3377-8.691 2.4062-10.062 0.14172-2.8344-0.96875-4.0938-0.96875-4.0938l-0.89-51.6s2.5502-0.71798 2.125-2.8438-1.1013-9.4564-2.4062-11.344c-0.90661-1.3112-2.4481-2.7438-4.0625-4z"/>
    <path id="path3087" fill="#e9ddaf" d="m393.41 456.01 13.747 2.9761-3.6847-2.2675-8.6448-2.5509z"/>
    <path id="path3083" fill="#c8ab37" d="m191.5 452.59c-1.005 13.952-2.5843 35.848-3 37.719-0.007 0.0307-0.0252 0.0627-0.0312 0.0937 0.85237 1.4516 1.6874 2.7915 2.125 3.375 1.2025 1.6034 17.845 4.8308 20.25 5.0312 2.405 0.20042 5.0183-4.0141 5.2188-6.2188 0.20041-2.2046 0-21.438 0-21.438-8.7829-4.1035-16.845-10.729-24.562-18.562z"/>
    <path id="path3090" fill="#c8ab37" d="m222.87 470.14c11.037 0.28115 20.495-2.4198 28.86-4.8101 0 0 3.2067 25.453 3.0063 29.261-0.0261 0.4962-0.80823 5.2979-3.1967 5.641-6.9157 0.9935-23.331 0.90473-25.463 0.37157-3.2067-0.80168-2.6054-4.8101-3.0063-9.6201z"/>
    <path id="path3094" fill="#c8ab37" d="m182.78 438.68-7.4155 28.66c-0.36549 1.4126 1.2463 2.4215 3.0488 3.7065 2.6581 1.8948 5.3162 2.3422 7.9742 2.1056l4.2088-27.658z"/>
    <path id="path3096" d="m177.81 430.91c-4.9082 8.1248-13.186 21.817-13.969 23.406 2.9324 1.6975 8.0503 4.5938 8.9062 4.5938 1.2025 0 3.43-0.37831 4.0312-1.7812 0.60126-1.4029 5.4062-20.656 5.4062-20.656l-4.375-5.5625zm-11.531 33.875c-0.98387 3.7308-4.6498 17.708-5.5312 20-0.47029 1.2228-0.67353 3.3653-0.53125 5.4062 3.5221 1.6324 8.1335 3.7311 9.3438 4 1.8038 0.40083 3.9925-1.3891 4.5938-3.5938 0.60126-2.2046 2.4062-18.25 2.4062-18.25l-10.281-7.5625z" fill="#c8ab37"/>
    <path id="path3104" fill="#c8ab37" d="m178.37 479.56 8.8185 3.0063s-0.80168 8.8185-0.60126 10.221c0.20042 1.4029 3.0063 3.808 3.0063 3.808s-1.2025 10.021-1.2025 11.424c0 1.4029-2.0386 8.5979-4.7757 8.3975-1.231-0.0901-7.2622-2.5246-10.938-4.4335-1.1363-0.59008-1.9927-2.5944-2.324-3.1623-1.4029-2.405 8.0168-29.261 8.0168-29.261z"/>
    <path id="path3106" fill="#c8ab37" d="m191 500.21s21.244 4.8101 22.247 4.8101c1.0021 0 4.8101-1.0021 4.8101-1.0021s0.20042 20.242-0.60126 22.447c-0.80168 2.2046-2.5224 6.2516-4.9275 6.0511-2.405-0.20042-20.927-5.6503-22.129-6.8528-1.2025-1.2025 0.60126-25.453 0.60126-25.453z"/>
    <path id="path3108" d="m224.87 507.62 30.865-0.80167s1.4029 23.85 1.2025 25.453c-0.20042 1.6034-0.60126 5.4113-3.4071 5.6118-2.8059 0.20042-26.455 0.60126-28.059-0.40084-1.6034-1.0021-0.60125-29.863-0.60125-29.863z" fill="#c8ab37"/>
    <path id="path3110" fill="#c8ab37" d="m289.41 444.5-15.031 5.8125s-1.1848 4.145-2.3874 5.548c-0.60126 0.70147-4.1759 5.8004-7.0334 8.0312-3.1409 1.2389-4.2892-0.10686-4.2892-0.10686s2.3949 28.31 1.9941 29.512c-0.40084 1.2025 4.7823 4.6846 8.2137 4.9781 3.1574 0.27007 22.948-6.4996 24.752-6.9005 1.8038-0.40084 2.5938-6.2016 2.5938-8.4062s-8.8125-38.469-8.8125-38.469z"/>
    <path id="path3112" fill="#c8ab37" d="m263.84 503.53 4.8798 1.7618 25.902-6.2884s0.17611 27.385-0.20042 30.122c-0.2443 1.7759-1.1497 4.3992-3.1539 4.8-1.5182 0.30364-18.317 3.9314-24.259 3.8866-1.9021-0.0144-3.7817-4.2145-3.9215-5.5142-0.15602-1.4507 0.75306-28.767 0.75306-28.767z"/>
    <path id="path3115" d="m293.92 440.85 3.9681-3.543 20.266-6.9442l8.5031 25.509c0.56688 1.7006 1.4172 6.519-0.56687 6.8025-1.984 0.28343-20.833 7.511-20.833 7.511l-4.3933 2.5509z" fill="#c8ab37"/>
    <path id="path3117" d="m300.73 478.26 2.8344-0.56687 23.383-7.6528s3.9681 29.761 4.3933 31.887c0.42515 2.1258 0.85031 5.3853-1.7006 5.9522-2.5509 0.56687-24.517 8.3614-26.076 8.3614-1.5589 0-2.6926-1.5589-2.6926-1.5589z" fill="#c8ab37"/>
    <path id="path3121" fill="#c8ab37" d="m323.08 521.65s15.633-1.2025 20.844-1.2025c5.2109 0 9.6201 8.8185 9.6201 8.8185s18.839 21.244 21.244 24.05c2.405 2.8059-0.20043 8.8185-0.20043 8.8185s6.213 1.2025 6.6138 5.6117l-6.4134 73.754 7.2151 22.046s-24.852-19.24-36.877-20.042c-12.025-0.80168-39.282 16.434-39.282 16.434s-9.2193-1.4029-7.2151-5.2109c1.3817-2.6253 6.7143-11.125 7.4155-16.034 1.0021-7.0147-0.20042-19.641-1.4029-26.856-1.2025-7.2151-8.8185-32.869-10.021-35.675-1.2025-2.8059-3.6076-7.6159-0.40084-9.6201 3.2067-2.0042 4.8101-3.6076 4.8101-3.6076s-2.0042-8.4176 0.40084-10.823c2.405-2.405 14.43-22.848 17.637-25.654 3.2067-2.8059 6.0126-4.8101 6.0126-4.8101z"/>
    <path id="path3123" d="m315.86 551.11s37.278 0.80168 39.282 0.20042c2.0042-0.60126 6.8143 3.6076 6.8143 3.6076l-1.2025 1.6034s-16.835 1.0021-21.044 1.4029c-4.2088 0.40084-19.24-2.405-20.443-2.405-1.2025 0-4.8101 4.4092-5.2109 6.6138-0.40084 2.2046-3.0063 8.4176-1.4029 9.4197s6.4134 7.0147 6.213 9.6201c-0.20042 2.6054-3.0063 61.729-3.0063 61.729s-1.6034-57.52-2.6054-60.527c-1.0021-3.0063-5.8122-9.6201-4.8101-12.426s4.8101-15.232 5.4113-16.234c0.60125-1.0021 2.0042-2.6054 2.0042-2.6054z" fill="#504416"/>
    <path id="path3125" fill="#e9ddaf" d="m314.06 643.91-4.4092 8.8185c5.2109-4.0084 22.447-11.224 31.666-12.626 1.4011-0.2132 2.8059-6.4134 2.8059-6.4134-9.757 0.68983-17.699 2.753-30.063 10.221z"/>
    <path id="path3127" fill="#e9ddaf" d="m359.55 569.15s-2.8059 3.6076-3.6076 6.8143c-0.80168 3.2067 3.2067 6.213 4.4092 3.808s2.8059-9.4197 2.8059-9.4197z"/>
    <path id="path3129" fill="#e9ddaf" d="m305.44 546.1s-5.2109 3.808-5.8122 7.2151c-0.60126 3.4071-0.20042 9.6201 1.0021 12.226 1.2025 2.6054 6.8143 22.247 6.8143 22.247s-6.6138-30.464-5.6118-33.069c1.0021-2.6054 3.6076-8.618 3.6076-8.618z"/>
    <path id="path3131" d="m344.92 522.45c-2.2046 0.20042-18.639-0.40084-21.645 1.2025-3.0063 1.6034-9.4197 8.8185-9.4197 8.8185s8.4176-6.8143 10.422-6.8143c2.0042 0 20.643-3.2067 20.643-3.2067z" fill="#e9ddaf"/>
    <path id="path3133" fill="#e9ddaf" d="m297.62 566.34s-2.6054 0.20042-3.4071 1.6034c-0.80168 1.4029 1.2025 8.4176 1.2025 8.4176-0.7131-4.4987 0.24952-7.6568 2.2046-10.021z"/>
    <path id="path3135" d="m372.94 551.22-5.56 72.84 6.59-35.06s3.2188 1.2037 3.2188 2.4062-6.6088 38.471-5.4062 43.281c1.2025 4.8101 2.4062 18.438 2.4062 18.438s-15.234-9.0033-19.844-10.406c-1.9975-0.60792-5.87-0.0472-9.625 0.78125 0.13189 0.004 0.27778-0.009 0.40625 0 12.025 0.80168 36.875 20.062 36.875 20.062s4.9967-1.4237 3.5938-5.0312c-0.74592-1.9181-3.1779-6.6166-4.7812-10.625-1.6034-4.0084-3.6142-23.249-2.8125-32.469 0.80168-9.2193 3.5883-43.278 3.1875-47.688-0.40083-4.4092-4.4062-7.625-4.4062-7.625s0.40503-4.0066-2-6.8125c-0.19254-0.22463-1.4586-1.6531-1.8438-2.0938z" fill="#504416"/>
    <path id="path3140" fill="#c8ab37" d="m174.77 531.27c-3.6076-0.40084-5.2109 1.2025-5.2109 4.0084s1.2025 8.8185 1.2025 12.025c0 3.2067 6.0126 7.2151 6.0126 7.2151s17.236 58.923 16.835 63.333c-0.40084 4.4092-9.2193 11.223-9.2193 11.223l0.80167 5.6118s22.447 6.8143 27.257 11.624c4.8101 4.8101 10.422 17.236 22.046 17.637 11.624 0.40084 13.228-13.228 17.236-14.43l8.0168-78.564c-3.6076-4.8101-16.034-5.2109-16.034-5.2109l-3.2067 1.6034-27.658-8.0168s2.405-4.4092-2.0042-6.4134-12.827-4.8101-17.637-10.021c-4.8101-5.2109-8.0168-10.021-11.624-10.823-3.6076-0.80168-6.8143-0.80168-6.8143-0.80168z"/>
    <path id="path3142" fill="#504416" d="m209.64 554.72 1.6034 54.514s2.2046-50.305 1.4029-53.111c-0.80168-2.8059-3.0063-1.4029-3.0063-1.4029z"/>
    <path id="path3144" d="m171.62 549.69c1.6679 2.5176 5.1562 4.8438 5.1562 4.8438s0.17593 0.64792 0.1875 0.6875c4.9635 0.83781 10.694 1.7819 11.812 1.9062 1.8038 0.20042 6.625 3.8125 6.625 3.8125s-3.4183-4.4204-6.625-6.625c-2.8531-1.9615-14.497-4.1462-17.156-4.625z" fill="#504416"/>
    <path id="path3149" fill="#e9ddaf" d="m192.12 621.25c-2.6077 3.8444-7.75 7.8125-7.75 7.8125l0.0937 0.59375 23.969 8.0312s-2.5642-6.9758-4.2046-9c-2.2068-2.7233-8.8819-6.8585-12.108-7.4375z"/>
    <path id="path3154" fill="#504416" d="m247.19 566.06c-2.244 0.74209-2.0901 3.114-2.2812 3.6875-0.20042 0.60125 4.4008 77.358 4 79.562-0.40084 2.2046-6.9824 11.971-14.418 11.836-12.707-0.23034-16.642-12.821-17.644-14.024-1.0021-1.2025-5-2.4062-5-2.4062l0.28125 1.3125c0.10486 0.0936 0.22031 0.18906 0.3125 0.28125 4.8101 4.8101 10.438 17.224 22.062 17.625 11.624 0.40084 13.21-13.204 17.219-14.406 4.0084-1.2025 9.6142-2.8149 8.8125-7.625-0.80168-4.8101 2.8263-66.127-0.78125-70.938-2.3936-3.1915-8.6099-4.4261-12.562-4.9062z"/>
    <path id="path3159" fill="#e9ddaf" d="m170.36 532.87c3.1822 0.00054 6.4942 0.47661 10.021 1.1023 1.2025 0.10021 1.8464-1.2202 0.60125-1.6034-1.3027-0.40084-6.3132-1.4029-8.117-0.90189-1.8038 0.50105-2.5052 1.4029-2.5052 1.4029z"/>
    <path id="path3161" fill="#e9ddaf" d="m297.82 262.91c2.0598 1.5954 48.101 27.858 48.101 27.858s-43.422-28.053-45.094-29.261c-3.6076-2.6055-7.7381-2.262-3.0063 1.4029z"/>
    <path id="path3088" fill="#e9ddaf" d="m348.06 657.2c-10.734-0.77081-29.263 1.344-32.186 2.5459-6.5793 2.7056-12.332 9.779-15.004 17.847-0.96801 5.1207 0.27463 5.8189 2.1919 11.685l2.9688-1.4688c-1.7245-2.6921-2.5833-6.7724-2.7108-9.3713 2.4519-5.8752 5.9909-13.184 13.942-14.693 17.302-3.2846 53.704 1.8202 53.423 2.5232 0 0 0.0667-0.75803-0.0629-3.9672-3.1794-0.65575-14.871-4.5475-22.562-5.0998z"/>
    <path id="path3098" fill="#e9ddaf" d="m309.65 689.14c0.68314-5.458 6.5863-7.8217 11.621-6.8025 0.21159 6.0802 1.4148 9.6031 2.2675 14.03-4.9365-1.5903-10.04-2.7361-13.888-7.2276z"/>
    <path id="path3114" fill="#504416" d="m155.65 644.19 3.5314 1.742c4.1295 13.215 11.202 24.691 18.161 36.235 0 0-9.2042-10.005-13.141-17.265-3.1458-5.8021-8.5516-20.712-8.5516-20.712z"/>
    <path id="path3116" fill="#e9ddaf" d="m180.62 682.36s26.924-2.3768 28.629-2.9966c6.705-2.4361-14.967-37.903-16.695-37.616 0 0 13.674 24.77 15.711 33.707 1.3422 5.8882-28.179 5.3802-28.179 5.3802z"/>
    <path id="path3118" fill="#e9ddaf" d="m127.48 659.02c-3.423-0.7376-4.9309 2.3994-4.9836 4.869 0.76441 3.788 4.982 5.505 9.2584 5.9825z"/>
    <path id="path3329" d="m172.09 297.62c-0.86635 2.1393-1.9387 4.5094-2.9062 5.7188-1.427 1.7838 4.4231 2.2837 8 2.4375 0.6969-1.5067 1.375-3.25 1.375-3.25l-6.4688-4.9062z" fill="#c8ab37"/>
    <path id="path3338" fill="#c8ab37" d="m171.2 384.87c-0.98731 4.4513-0.86049 7.3307 2.5509 10.204 3.4957 2.944-5.3853 28.344-6.2356 32.312-0.8503 3.9681-5.8161 10.317-8.3614 10.487-1.7203 0.11468-3.7232-6.6512-2.4092-8.7865l2.2675-3.6847s5.2609-27.387 4.535-29.194c-0.76204-1.8965-0.85031-6.519 0.56687-8.2196s7.0859-3.1178 7.0859-3.1178z"/>
    <path id="path3344" d="m175.37 369.73-1.4029 4.6096-2.6054 4.6096s1.0021 2.405 2.8059 2.8059c1.8038 0.40084 2.8059-1.0021 2.8059-1.0021l0.20042-6.6138 2.8059-2.6054z" fill="#782121"/>
    <path id="path3346" fill="#782121" d="m174.37 385.97 4.0084 1.0021-3.6076 5.6117-2.405-5.2109c-0.63487-1.3756 1.114-1.6255 2.0042-1.4029z"/>
    <path id="path3353" d="m173.94 395.56c-1.428 0.0752-3.0669 0.32979-3.9688 1.0312-1.5639 1.2164-8.9687 32.533-11 41.25 0.059 0.0116 0.12901 0.0351 0.1875 0.0312 2.5453-0.16968 7.4934-6.5319 8.3438-10.5 0.81511-3.8038 8.9959-27.28 6.5938-31.812-0.0596 0.003-0.0958-0.003-0.15625 0z" fill="#504416"/>
    <path id="path3358" fill="#ccc" d="m26.574 467.38 34.133-22.823 37.431-0.66894-27.94 24.522z"/>
    <path id="path3384" fill="#333" d="m84.062 580.38-1.7218 5.4225 20.872-16.352 10.676-13.323z"/>
    <path id="path3360" fill="#666" d="m20.974 473.13 6.964 42.62 49.463 1.67-5.963-43.11zm11.245 72.25c-1.4001 13.619 1.5954 22.842 4.625 32.031l47.218 2.97c-2.8042-9.184-7.4796-16.289-3.875-32.594zm10.067 62.759 4.3535 39.204 45.938 5.6875-4.6392-40.12z"/>
    <path id="path3362" fill="#4d4d4d" d="m103.75 445.97-32.312 28.344 5.9633 43.111 31.037-23.705zm7.4688 76.125-31.031 25.688c-2.4231 11.979-1.2597 22.882 3.875 32.594l30.436-24.76zm5.2975 63.168-28.579 27.644 4.6392 40.12 28.344-31.75z"/>
    <path id="path3380" fill="#808080" d="m32.219 545.38 47.969 2.4062 31.031-25.688c-4.1924-1.9547-6.2853-5.3474-13.374-8.2676l-21.119 17.466-34.214-2.68c-4.0766 5.2156-8.3389 12.606-10.293 16.763z"/>
    <path id="path3382" fill="#808080" d="m42.286 608.13c3.1178-3.4012 7.4805-5.9858 10.031-7.6864l31.746 3.1518 20.707-19.676s7.0967-0.5885 11.746 1.3383l-28.582 27.65z"/>
    <path id="path4417" d="m26.574 467.38-5.5993 5.7502 50.463 1.1788-1.2389-5.8988z" fill="#999"/>
    <path id="path4419" d="m70.199 468.41 1.2389 5.8988 32.312-28.344-5.6117-2.0771z" fill="#666"/>
    <path id="path4421" fill="#4d4d4d" d="m27.938 515.75 12.31 3.469 36.28 1.984 0.87311-3.7793z"/>
    <path id="path4423" d="m77.401 517.42 31.039-23.7-12.072 11.04-19.84 16.44z" fill="#333"/>
    <path id="path4425" fill="#4d4d4d" d="m46.639 647.34 6.5294 3.8037 37.98 5.6687 1.4277-3.7849z"/>
    <path id="path4427" fill="#333" d="m92.577 653.03 28.344-31.75-3.1142 6.341-26.657 29.194z"/>
    <path id="path4431" fill="#4d4d4d" d="m36.827 577.29 12.538 5.6006 32.975 2.9082 1.7218-5.4225z"/>
  </g>
  <metadata>
    <rdf:RDF>
      <cc:Work>
        <dc:format>image/svg+xml</dc:format>
        <dc:type rdf:resource="http://purl.org/dc/dcmitype/StillImage"/>
        <cc:license rdf:resource="http://creativecommons.org/licenses/publicdomain/"/>
        <dc:publisher>
          <cc:Agent rdf:about="http://openclipart.org/">
            <dc:title>Openclipart</dc:title>
          </cc:Agent>
        </dc:publisher>
        <dc:title>dwarf warrior</dc:title>
        <dc:date>2011-08-29T19:30:34</dc:date>
        <dc:description>armor, armour, battle hammer, beard, clip art, clipart, dwarf, fantasy, hammer, rpg, soldier, warrior, weapon, </dc:description>
        <dc:source>http://openclipart.org/detail/158563/dwarf-warrior-by-tzunghaor</dc:source>
        <dc:creator>
          <cc:Agent>
            <dc:title>tzunghaor</dc:title>
          </cc:Agent>
        </dc:creator>
        <dc:subject>
          <rdf:Bag>
            <rdf:li>armor</rdf:li>
            <rdf:li>armour</rdf:li>
            <rdf:li>battle hammer</rdf:li>
            <rdf:li>beard</rdf:li>
            <rdf:li>clip art</rdf:li>
            <rdf:li>clipart</rdf:li>
            <rdf:li>dwarf</rdf:li>
            <rdf:li>fantasy</rdf:li>
            <rdf:li>hammer</rdf:li>
            <rdf:li>rpg</rdf:li>
            <rdf:li>soldier</rdf:li>
            <rdf:li>warrior</rdf:li>
            <rdf:li>weapon</rdf:li>
          </rdf:Bag>
        </dc:subject>
      </cc:Work>
      <cc:License rdf:about="http://creativecommons.org/licenses/publicdomain/">
        <cc:permits rdf:resource="http://creativecommons.org/ns#Reproduction"/>
        <cc:permits rdf:resource="http://creativecommons.org/ns#Distribution"/>
        <cc:permits rdf:resource="http://creativecommons.org/ns#DerivativeWorks"/>
      </cc:License>
    </rdf:RDF>
  </metadata>
</svg>
