<?xml version="1.0" encoding="UTF-8" standalone="no"?>
<!-- Created with Inkscape (http://www.inkscape.org/) -->

<svg
	 xmlns:dc="http://purl.org/dc/elements/1.1/"
	 xmlns:cc="http://creativecommons.org/ns#"
	 xmlns:rdf="http://www.w3.org/1999/02/22-rdf-syntax-ns#"
	 xmlns:svg="http://www.w3.org/2000/svg"
	 xmlns="http://www.w3.org/2000/svg"
	 xmlns:xlink="http://www.w3.org/1999/xlink"
	 xmlns:sodipodi="http://sodipodi.sourceforge.net/DTD/sodipodi-0.dtd"
	 xmlns:inkscape="http://www.inkscape.org/namespaces/inkscape"
	 width="1280"
	 height="720"
	 id="svg4352"
	 version="1.1"
	 inkscape:version="0.48.4 r9939"
	 sodipodi:docname="tesm.svg">
	<metadata
		 id="metadata7216">
		<rdf:RDF>
			<cc:Work
				 rdf:about="">
				<dc:format>image/svg+xml</dc:format>
				<dc:type
					 rdf:resource="http://purl.org/dc/dcmitype/StillImage" />
				<dc:title></dc:title>
			</cc:Work>
		</rdf:RDF>
	</metadata>
	<sodipodi:namedview
		 pagecolor="#ffffff"
		 bordercolor="#666666"
		 borderopacity="1"
		 objecttolerance="10"
		 gridtolerance="10"
		 guidetolerance="10"
		 inkscape:pageopacity="0"
		 inkscape:pageshadow="2"
		 inkscape:window-width="1366"
		 inkscape:window-height="745"
		 id="namedview7214"
		 showgrid="false"
		 inkscape:zoom="0.6319767"
		 inkscape:cx="593.81622"
		 inkscape:cy="263.15409"
		 inkscape:window-x="-8"
		 inkscape:window-y="-8"
		 inkscape:window-maximized="1"
		 inkscape:current-layer="svg4352" />
	<defs
		 id="defs4354">
		<pattern
			 id="img1"
			 patternUnits="userSpaceOnUse"
			 width="35"
			 height="38">
			<image
				 sodipodi:absref="C:\Users\Brendan\Documents\GitHub\LordsOfTheHinterlands\Male_Warrior_Dance2.gif"
				 xlink:href="dwarf.png"
				 id="image7207"
				 height="38"
				 width="35"
				 y="0"
				 x="0" />
		</pattern>
	</defs>
	<defs
		 id="defs4355">
		<polygon
				 id="polyhex"				 
				 points="7.2,24.941532 0,12.470766 7.1999999,3.446201e-08 21.6,-4.3077517e-08 28.8,12.470766 21.6,24.941532 " />
		</defs>
	
 <g
     inkscape:groupmode="layer"
     id="layer2"
     inkscape:label="background"
     sodipodi:insensitive="true">
    <rect
       style="fill:#aa4400;stroke:#000000;stroke-width:2.86246586"
       id="rect5196"
       width="1275.8268"
       height="718.03662"
       x="1.6895746"
       y="1.5531235" />
  

<use x="91.635" y="107.1" width="37px" height="32px" id="svguse1x1" xlink:href="#polyhex"></use><use x="139.635" y="107.1" width="37px" height="32px" id="svguse1x2" xlink:href="#polyhex"></use><use x="187.635" y="107.1" width="37px" height="32px" id="svguse1x3" xlink:href="#polyhex"></use><use x="235.635" y="107.1" width="37px" height="32px" id="svguse1x4" xlink:href="#polyhex"></use><use x="283.635" y="107.1" width="37px" height="32px" id="svguse1x5" xlink:href="#polyhex"></use><use x="331.635" y="107.1" width="37px" height="32px" id="svguse1x6" xlink:href="#polyhex"></use><use x="379.635" y="107.1" width="37px" height="32px" id="svguse1x7" xlink:href="#polyhex"></use><use x="427.635" y="107.1" width="37px" height="32px" id="svguse1x8" xlink:href="#polyhex"></use><use x="475.635" y="107.1" width="37px" height="32px" id="svguse1x9" xlink:href="#polyhex"></use><use x="523.635" y="107.1" width="37px" height="32px" id="svguse1x10" xlink:href="#polyhex"></use><use x="571.635" y="107.1" width="37px" height="32px" id="svguse1x11" xlink:href="#polyhex"></use><use x="619.635" y="107.1" width="37px" height="32px" id="svguse1x12" xlink:href="#polyhex"></use><use x="667.635" y="107.1" width="37px" height="32px" id="svguse1x13" xlink:href="#polyhex"></use><use x="715.635" y="107.1" width="37px" height="32px" id="svguse1x14" xlink:href="#polyhex"></use><use x="763.635" y="107.1" width="37px" height="32px" id="svguse1x15" xlink:href="#polyhex"></use><use x="811.635" y="107.1" width="37px" height="32px" id="svguse1x16" xlink:href="#polyhex"></use><use x="859.635" y="107.1" width="37px" height="32px" id="svguse1x17" xlink:href="#polyhex"></use><use x="907.635" y="107.1" width="37px" height="32px" id="svguse1x18" xlink:href="#polyhex"></use><use x="955.635" y="107.1" width="37px" height="32px" id="svguse1x19" xlink:href="#polyhex"></use><use x="1003.635" y="107.1" width="37px" height="32px" id="svguse1x20" xlink:href="#polyhex"></use><use x="115.635" y="119.1" width="37px" height="32px" id="svguse2x1" xlink:href="#polyhex"></use><use x="163.635" y="119.1" width="37px" height="32px" id="svguse2x2" xlink:href="#polyhex"></use><use x="211.635" y="119.1" width="37px" height="32px" id="svguse2x3" xlink:href="#polyhex"></use><use x="259.635" y="119.1" width="37px" height="32px" id="svguse2x4" xlink:href="#polyhex"></use><use x="307.635" y="119.1" width="37px" height="32px" id="svguse2x5" xlink:href="#polyhex"></use><use x="355.635" y="119.1" width="37px" height="32px" id="svguse2x6" xlink:href="#polyhex"></use><use x="403.635" y="119.1" width="37px" height="32px" id="svguse2x7" xlink:href="#polyhex"></use><use x="451.635" y="119.1" width="37px" height="32px" id="svguse2x8" xlink:href="#polyhex"></use><use x="499.635" y="119.1" width="37px" height="32px" id="svguse2x9" xlink:href="#polyhex"></use><use x="547.635" y="119.1" width="37px" height="32px" id="svguse2x10" xlink:href="#polyhex"></use><use x="595.635" y="119.1" width="37px" height="32px" id="svguse2x11" xlink:href="#polyhex"></use><use x="643.635" y="119.1" width="37px" height="32px" id="svguse2x12" xlink:href="#polyhex"></use><use x="691.635" y="119.1" width="37px" height="32px" id="svguse2x13" xlink:href="#polyhex"></use><use x="739.635" y="119.1" width="37px" height="32px" id="svguse2x14" xlink:href="#polyhex"></use><use x="787.635" y="119.1" width="37px" height="32px" id="svguse2x15" xlink:href="#polyhex"></use><use x="835.635" y="119.1" width="37px" height="32px" id="svguse2x16" xlink:href="#polyhex"></use><use x="883.635" y="119.1" width="37px" height="32px" id="svguse2x17" xlink:href="#polyhex"></use><use x="931.635" y="119.1" width="37px" height="32px" id="svguse2x18" xlink:href="#polyhex"></use><use x="979.635" y="119.1" width="37px" height="32px" id="svguse2x19" xlink:href="#polyhex"></use><use x="1027.635" y="119.1" width="37px" height="32px" id="svguse2x20" xlink:href="#polyhex"></use><use x="91.635" y="131.1" width="37px" height="32px" id="svguse3x1" xlink:href="#polyhex"></use><use x="139.635" y="131.1" width="37px" height="32px" id="svguse3x2" xlink:href="#polyhex"></use><use x="187.635" y="131.1" width="37px" height="32px" id="svguse3x3" xlink:href="#polyhex"></use><use x="235.635" y="131.1" width="37px" height="32px" id="svguse3x4" xlink:href="#polyhex"></use><use x="283.635" y="131.1" width="37px" height="32px" id="svguse3x5" xlink:href="#polyhex"></use><use x="331.635" y="131.1" width="37px" height="32px" id="svguse3x6" xlink:href="#polyhex"></use><use x="379.635" y="131.1" width="37px" height="32px" id="svguse3x7" xlink:href="#polyhex"></use><use x="427.635" y="131.1" width="37px" height="32px" id="svguse3x8" xlink:href="#polyhex"></use><use x="475.635" y="131.1" width="37px" height="32px" id="svguse3x9" xlink:href="#polyhex"></use><use x="523.635" y="131.1" width="37px" height="32px" id="svguse3x10" xlink:href="#polyhex"></use><use x="571.635" y="131.1" width="37px" height="32px" id="svguse3x11" xlink:href="#polyhex"></use><use x="619.635" y="131.1" width="37px" height="32px" id="svguse3x12" xlink:href="#polyhex"></use><use x="667.635" y="131.1" width="37px" height="32px" id="svguse3x13" xlink:href="#polyhex"></use><use x="715.635" y="131.1" width="37px" height="32px" id="svguse3x14" xlink:href="#polyhex"></use><use x="763.635" y="131.1" width="37px" height="32px" id="svguse3x15" xlink:href="#polyhex"></use><use x="811.635" y="131.1" width="37px" height="32px" id="svguse3x16" xlink:href="#polyhex"></use><use x="859.635" y="131.1" width="37px" height="32px" id="svguse3x17" xlink:href="#polyhex"></use><use x="907.635" y="131.1" width="37px" height="32px" id="svguse3x18" xlink:href="#polyhex"></use><use x="955.635" y="131.1" width="37px" height="32px" id="svguse3x19" xlink:href="#polyhex"></use><use x="1003.635" y="131.1" width="37px" height="32px" id="svguse3x20" xlink:href="#polyhex"></use><use x="115.635" y="143.1" width="37px" height="32px" id="svguse4x1" xlink:href="#polyhex"></use><use x="163.635" y="143.1" width="37px" height="32px" id="svguse4x2" xlink:href="#polyhex"></use><use x="211.635" y="143.1" width="37px" height="32px" id="svguse4x3" xlink:href="#polyhex"></use><use x="259.635" y="143.1" width="37px" height="32px" id="svguse4x4" xlink:href="#polyhex"></use><use x="307.635" y="143.1" width="37px" height="32px" id="svguse4x5" xlink:href="#polyhex"></use><use x="355.635" y="143.1" width="37px" height="32px" id="svguse4x6" xlink:href="#polyhex"></use><use x="403.635" y="143.1" width="37px" height="32px" id="svguse4x7" xlink:href="#polyhex"></use><use x="451.635" y="143.1" width="37px" height="32px" id="svguse4x8" xlink:href="#polyhex"></use><use x="499.635" y="143.1" width="37px" height="32px" id="svguse4x9" xlink:href="#polyhex"></use><use x="547.635" y="143.1" width="37px" height="32px" id="svguse4x10" xlink:href="#polyhex"></use><use x="595.635" y="143.1" width="37px" height="32px" id="svguse4x11" xlink:href="#polyhex"></use><use x="643.635" y="143.1" width="37px" height="32px" id="svguse4x12" xlink:href="#polyhex"></use><use x="691.635" y="143.1" width="37px" height="32px" id="svguse4x13" xlink:href="#polyhex"></use><use x="739.635" y="143.1" width="37px" height="32px" id="svguse4x14" xlink:href="#polyhex"></use><use x="787.635" y="143.1" width="37px" height="32px" id="svguse4x15" xlink:href="#polyhex"></use><use x="835.635" y="143.1" width="37px" height="32px" id="svguse4x16" xlink:href="#polyhex"></use><use x="883.635" y="143.1" width="37px" height="32px" id="svguse4x17" xlink:href="#polyhex"></use><use x="931.635" y="143.1" width="37px" height="32px" id="svguse4x18" xlink:href="#polyhex"></use><use x="979.635" y="143.1" width="37px" height="32px" id="svguse4x19" xlink:href="#polyhex"></use><use x="1027.635" y="143.1" width="37px" height="32px" id="svguse4x20" xlink:href="#polyhex"></use><use x="91.635" y="155.1" width="37px" height="32px" id="svguse5x1" xlink:href="#polyhex"></use><use x="139.635" y="155.1" width="37px" height="32px" id="svguse5x2" xlink:href="#polyhex"></use><use x="187.635" y="155.1" width="37px" height="32px" id="svguse5x3" xlink:href="#polyhex"></use><use x="235.635" y="155.1" width="37px" height="32px" id="svguse5x4" xlink:href="#polyhex"></use><use x="283.635" y="155.1" width="37px" height="32px" id="svguse5x5" xlink:href="#polyhex"></use><use x="331.635" y="155.1" width="37px" height="32px" id="svguse5x6" xlink:href="#polyhex"></use><use x="379.635" y="155.1" width="37px" height="32px" id="svguse5x7" xlink:href="#polyhex"></use><use x="427.635" y="155.1" width="37px" height="32px" id="svguse5x8" xlink:href="#polyhex"></use><use x="475.635" y="155.1" width="37px" height="32px" id="svguse5x9" xlink:href="#polyhex"></use><use x="523.635" y="155.1" width="37px" height="32px" id="svguse5x10" xlink:href="#polyhex"></use><use x="571.635" y="155.1" width="37px" height="32px" id="svguse5x11" xlink:href="#polyhex"></use><use x="619.635" y="155.1" width="37px" height="32px" id="svguse5x12" xlink:href="#polyhex"></use><use x="667.635" y="155.1" width="37px" height="32px" id="svguse5x13" xlink:href="#polyhex"></use><use x="715.635" y="155.1" width="37px" height="32px" id="svguse5x14" xlink:href="#polyhex"></use><use x="763.635" y="155.1" width="37px" height="32px" id="svguse5x15" xlink:href="#polyhex"></use><use x="811.635" y="155.1" width="37px" height="32px" id="svguse5x16" xlink:href="#polyhex"></use><use x="859.635" y="155.1" width="37px" height="32px" id="svguse5x17" xlink:href="#polyhex"></use><use x="907.635" y="155.1" width="37px" height="32px" id="svguse5x18" xlink:href="#polyhex"></use><use x="955.635" y="155.1" width="37px" height="32px" id="svguse5x19" xlink:href="#polyhex"></use><use x="1003.635" y="155.1" width="37px" height="32px" id="svguse5x20" xlink:href="#polyhex"></use><use x="115.635" y="167.1" width="37px" height="32px" id="svguse6x1" xlink:href="#polyhex"></use><use x="163.635" y="167.1" width="37px" height="32px" id="svguse6x2" xlink:href="#polyhex"></use><use x="211.635" y="167.1" width="37px" height="32px" id="svguse6x3" xlink:href="#polyhex"></use><use x="259.635" y="167.1" width="37px" height="32px" id="svguse6x4" xlink:href="#polyhex"></use><use x="307.635" y="167.1" width="37px" height="32px" id="svguse6x5" xlink:href="#polyhex"></use><use x="355.635" y="167.1" width="37px" height="32px" id="svguse6x6" xlink:href="#polyhex"></use><use x="403.635" y="167.1" width="37px" height="32px" id="svguse6x7" xlink:href="#polyhex"></use><use x="451.635" y="167.1" width="37px" height="32px" id="svguse6x8" xlink:href="#polyhex"></use><use x="499.635" y="167.1" width="37px" height="32px" id="svguse6x9" xlink:href="#polyhex"></use><use x="547.635" y="167.1" width="37px" height="32px" id="svguse6x10" xlink:href="#polyhex"></use><use x="595.635" y="167.1" width="37px" height="32px" id="svguse6x11" xlink:href="#polyhex"></use><use x="643.635" y="167.1" width="37px" height="32px" id="svguse6x12" xlink:href="#polyhex"></use><use x="691.635" y="167.1" width="37px" height="32px" id="svguse6x13" xlink:href="#polyhex"></use><use x="739.635" y="167.1" width="37px" height="32px" id="svguse6x14" xlink:href="#polyhex"></use><use x="787.635" y="167.1" width="37px" height="32px" id="svguse6x15" xlink:href="#polyhex"></use><use x="835.635" y="167.1" width="37px" height="32px" id="svguse6x16" xlink:href="#polyhex"></use><use x="883.635" y="167.1" width="37px" height="32px" id="svguse6x17" xlink:href="#polyhex"></use><use x="931.635" y="167.1" width="37px" height="32px" id="svguse6x18" xlink:href="#polyhex"></use><use x="979.635" y="167.1" width="37px" height="32px" id="svguse6x19" xlink:href="#polyhex"></use><use x="1027.635" y="167.1" width="37px" height="32px" id="svguse6x20" xlink:href="#polyhex"></use><use x="91.635" y="179.1" width="37px" height="32px" id="svguse7x1" xlink:href="#polyhex"></use><use x="139.635" y="179.1" width="37px" height="32px" id="svguse7x2" xlink:href="#polyhex"></use><use x="187.635" y="179.1" width="37px" height="32px" id="svguse7x3" xlink:href="#polyhex"></use><use x="235.635" y="179.1" width="37px" height="32px" id="svguse7x4" xlink:href="#polyhex"></use><use x="283.635" y="179.1" width="37px" height="32px" id="svguse7x5" xlink:href="#polyhex"></use><use x="331.635" y="179.1" width="37px" height="32px" id="svguse7x6" xlink:href="#polyhex"></use><use x="379.635" y="179.1" width="37px" height="32px" id="svguse7x7" xlink:href="#polyhex"></use><use x="427.635" y="179.1" width="37px" height="32px" id="svguse7x8" xlink:href="#polyhex"></use><use x="475.635" y="179.1" width="37px" height="32px" id="svguse7x9" xlink:href="#polyhex"></use><use x="523.635" y="179.1" width="37px" height="32px" id="svguse7x10" xlink:href="#polyhex"></use><use x="571.635" y="179.1" width="37px" height="32px" id="svguse7x11" xlink:href="#polyhex"></use><use x="619.635" y="179.1" width="37px" height="32px" id="svguse7x12" xlink:href="#polyhex"></use><use x="667.635" y="179.1" width="37px" height="32px" id="svguse7x13" xlink:href="#polyhex"></use><use x="715.635" y="179.1" width="37px" height="32px" id="svguse7x14" xlink:href="#polyhex"></use><use x="763.635" y="179.1" width="37px" height="32px" id="svguse7x15" xlink:href="#polyhex"></use><use x="811.635" y="179.1" width="37px" height="32px" id="svguse7x16" xlink:href="#polyhex"></use><use x="859.635" y="179.1" width="37px" height="32px" id="svguse7x17" xlink:href="#polyhex"></use><use x="907.635" y="179.1" width="37px" height="32px" id="svguse7x18" xlink:href="#polyhex"></use><use x="955.635" y="179.1" width="37px" height="32px" id="svguse7x19" xlink:href="#polyhex"></use><use x="1003.635" y="179.1" width="37px" height="32px" id="svguse7x20" xlink:href="#polyhex"></use><use x="115.635" y="191.1" width="37px" height="32px" id="svguse8x1" xlink:href="#polyhex"></use><use x="163.635" y="191.1" width="37px" height="32px" id="svguse8x2" xlink:href="#polyhex"></use><use x="211.635" y="191.1" width="37px" height="32px" id="svguse8x3" xlink:href="#polyhex"></use><use x="259.635" y="191.1" width="37px" height="32px" id="svguse8x4" xlink:href="#polyhex"></use><use x="307.635" y="191.1" width="37px" height="32px" id="svguse8x5" xlink:href="#polyhex"></use><use x="355.635" y="191.1" width="37px" height="32px" id="svguse8x6" xlink:href="#polyhex"></use><use x="403.635" y="191.1" width="37px" height="32px" id="svguse8x7" xlink:href="#polyhex"></use><use x="451.635" y="191.1" width="37px" height="32px" id="svguse8x8" xlink:href="#polyhex"></use><use x="499.635" y="191.1" width="37px" height="32px" id="svguse8x9" xlink:href="#polyhex"></use><use x="547.635" y="191.1" width="37px" height="32px" id="svguse8x10" xlink:href="#polyhex"></use><use x="595.635" y="191.1" width="37px" height="32px" id="svguse8x11" xlink:href="#polyhex"></use><use x="643.635" y="191.1" width="37px" height="32px" id="svguse8x12" xlink:href="#polyhex"></use><use x="691.635" y="191.1" width="37px" height="32px" id="svguse8x13" xlink:href="#polyhex"></use><use x="739.635" y="191.1" width="37px" height="32px" id="svguse8x14" xlink:href="#polyhex"></use><use x="787.635" y="191.1" width="37px" height="32px" id="svguse8x15" xlink:href="#polyhex"></use><use x="835.635" y="191.1" width="37px" height="32px" id="svguse8x16" xlink:href="#polyhex"></use><use x="883.635" y="191.1" width="37px" height="32px" id="svguse8x17" xlink:href="#polyhex"></use><use x="931.635" y="191.1" width="37px" height="32px" id="svguse8x18" xlink:href="#polyhex"></use><use x="979.635" y="191.1" width="37px" height="32px" id="svguse8x19" xlink:href="#polyhex"></use><use x="1027.635" y="191.1" width="37px" height="32px" id="svguse8x20" xlink:href="#polyhex"></use><use x="91.635" y="203.1" width="37px" height="32px" id="svguse9x1" xlink:href="#polyhex"></use><use x="139.635" y="203.1" width="37px" height="32px" id="svguse9x2" xlink:href="#polyhex"></use><use x="187.635" y="203.1" width="37px" height="32px" id="svguse9x3" xlink:href="#polyhex"></use><use x="235.635" y="203.1" width="37px" height="32px" id="svguse9x4" xlink:href="#polyhex"></use><use x="283.635" y="203.1" width="37px" height="32px" id="svguse9x5" xlink:href="#polyhex"></use><use x="331.635" y="203.1" width="37px" height="32px" id="svguse9x6" xlink:href="#polyhex"></use><use x="379.635" y="203.1" width="37px" height="32px" id="svguse9x7" xlink:href="#polyhex"></use><use x="427.635" y="203.1" width="37px" height="32px" id="svguse9x8" xlink:href="#polyhex"></use><use x="475.635" y="203.1" width="37px" height="32px" id="svguse9x9" xlink:href="#polyhex"></use><use x="523.635" y="203.1" width="37px" height="32px" id="svguse9x10" xlink:href="#polyhex"></use><use x="571.635" y="203.1" width="37px" height="32px" id="svguse9x11" xlink:href="#polyhex"></use><use x="619.635" y="203.1" width="37px" height="32px" id="svguse9x12" xlink:href="#polyhex"></use><use x="667.635" y="203.1" width="37px" height="32px" id="svguse9x13" xlink:href="#polyhex"></use><use x="715.635" y="203.1" width="37px" height="32px" id="svguse9x14" xlink:href="#polyhex"></use><use x="763.635" y="203.1" width="37px" height="32px" id="svguse9x15" xlink:href="#polyhex"></use><use x="811.635" y="203.1" width="37px" height="32px" id="svguse9x16" xlink:href="#polyhex"></use><use x="859.635" y="203.1" width="37px" height="32px" id="svguse9x17" xlink:href="#polyhex"></use><use x="907.635" y="203.1" width="37px" height="32px" id="svguse9x18" xlink:href="#polyhex"></use><use x="955.635" y="203.1" width="37px" height="32px" id="svguse9x19" xlink:href="#polyhex"></use><use x="1003.635" y="203.1" width="37px" height="32px" id="svguse9x20" xlink:href="#polyhex"></use><use x="115.635" y="215.1" width="37px" height="32px" id="svguse10x1" xlink:href="#polyhex"></use><use x="163.635" y="215.1" width="37px" height="32px" id="svguse10x2" xlink:href="#polyhex"></use><use x="211.635" y="215.1" width="37px" height="32px" id="svguse10x3" xlink:href="#polyhex"></use><use x="259.635" y="215.1" width="37px" height="32px" id="svguse10x4" xlink:href="#polyhex"></use><use x="307.635" y="215.1" width="37px" height="32px" id="svguse10x5" xlink:href="#polyhex"></use><use x="355.635" y="215.1" width="37px" height="32px" id="svguse10x6" xlink:href="#polyhex"></use><use x="403.635" y="215.1" width="37px" height="32px" id="svguse10x7" xlink:href="#polyhex"></use><use x="451.635" y="215.1" width="37px" height="32px" id="svguse10x8" xlink:href="#polyhex"></use><use x="499.635" y="215.1" width="37px" height="32px" id="svguse10x9" xlink:href="#polyhex"></use><use x="547.635" y="215.1" width="37px" height="32px" id="svguse10x10" xlink:href="#polyhex"></use><use x="595.635" y="215.1" width="37px" height="32px" id="svguse10x11" xlink:href="#polyhex"></use><use x="643.635" y="215.1" width="37px" height="32px" id="svguse10x12" xlink:href="#polyhex"></use><use x="691.635" y="215.1" width="37px" height="32px" id="svguse10x13" xlink:href="#polyhex"></use><use x="739.635" y="215.1" width="37px" height="32px" id="svguse10x14" xlink:href="#polyhex"></use><use x="787.635" y="215.1" width="37px" height="32px" id="svguse10x15" xlink:href="#polyhex"></use><use x="835.635" y="215.1" width="37px" height="32px" id="svguse10x16" xlink:href="#polyhex"></use><use x="883.635" y="215.1" width="37px" height="32px" id="svguse10x17" xlink:href="#polyhex"></use><use x="931.635" y="215.1" width="37px" height="32px" id="svguse10x18" xlink:href="#polyhex"></use><use x="979.635" y="215.1" width="37px" height="32px" id="svguse10x19" xlink:href="#polyhex"></use><use x="1027.635" y="215.1" width="37px" height="32px" id="svguse10x20" xlink:href="#polyhex"></use><use x="91.635" y="227.1" width="37px" height="32px" id="svguse11x1" xlink:href="#polyhex"></use><use x="139.635" y="227.1" width="37px" height="32px" id="svguse11x2" xlink:href="#polyhex"></use><use x="187.635" y="227.1" width="37px" height="32px" id="svguse11x3" xlink:href="#polyhex"></use><use x="235.635" y="227.1" width="37px" height="32px" id="svguse11x4" xlink:href="#polyhex"></use><use x="283.635" y="227.1" width="37px" height="32px" id="svguse11x5" xlink:href="#polyhex"></use><use x="331.635" y="227.1" width="37px" height="32px" id="svguse11x6" xlink:href="#polyhex"></use><use x="379.635" y="227.1" width="37px" height="32px" id="svguse11x7" xlink:href="#polyhex"></use><use x="427.635" y="227.1" width="37px" height="32px" id="svguse11x8" xlink:href="#polyhex"></use><use x="475.635" y="227.1" width="37px" height="32px" id="svguse11x9" xlink:href="#polyhex"></use><use x="523.635" y="227.1" width="37px" height="32px" id="svguse11x10" xlink:href="#polyhex"></use><use x="571.635" y="227.1" width="37px" height="32px" id="svguse11x11" xlink:href="#polyhex"></use><use x="619.635" y="227.1" width="37px" height="32px" id="svguse11x12" xlink:href="#polyhex"></use><use x="667.635" y="227.1" width="37px" height="32px" id="svguse11x13" xlink:href="#polyhex"></use><use x="715.635" y="227.1" width="37px" height="32px" id="svguse11x14" xlink:href="#polyhex"></use><use x="763.635" y="227.1" width="37px" height="32px" id="svguse11x15" xlink:href="#polyhex"></use><use x="811.635" y="227.1" width="37px" height="32px" id="svguse11x16" xlink:href="#polyhex"></use><use x="859.635" y="227.1" width="37px" height="32px" id="svguse11x17" xlink:href="#polyhex"></use><use x="907.635" y="227.1" width="37px" height="32px" id="svguse11x18" xlink:href="#polyhex"></use><use x="955.635" y="227.1" width="37px" height="32px" id="svguse11x19" xlink:href="#polyhex"></use><use x="1003.635" y="227.1" width="37px" height="32px" id="svguse11x20" xlink:href="#polyhex"></use><use x="115.635" y="239.1" width="37px" height="32px" id="svguse12x1" xlink:href="#polyhex"></use><use x="163.635" y="239.1" width="37px" height="32px" id="svguse12x2" xlink:href="#polyhex"></use><use x="211.635" y="239.1" width="37px" height="32px" id="svguse12x3" xlink:href="#polyhex"></use><use x="259.635" y="239.1" width="37px" height="32px" id="svguse12x4" xlink:href="#polyhex"></use><use x="307.635" y="239.1" width="37px" height="32px" id="svguse12x5" xlink:href="#polyhex"></use><use x="355.635" y="239.1" width="37px" height="32px" id="svguse12x6" xlink:href="#polyhex"></use><use x="403.635" y="239.1" width="37px" height="32px" id="svguse12x7" xlink:href="#polyhex"></use><use x="451.635" y="239.1" width="37px" height="32px" id="svguse12x8" xlink:href="#polyhex"></use><use x="499.635" y="239.1" width="37px" height="32px" id="svguse12x9" xlink:href="#polyhex"></use><use x="547.635" y="239.1" width="37px" height="32px" id="svguse12x10" xlink:href="#polyhex"></use><use x="595.635" y="239.1" width="37px" height="32px" id="svguse12x11" xlink:href="#polyhex"></use><use x="643.635" y="239.1" width="37px" height="32px" id="svguse12x12" xlink:href="#polyhex"></use><use x="691.635" y="239.1" width="37px" height="32px" id="svguse12x13" xlink:href="#polyhex"></use><use x="739.635" y="239.1" width="37px" height="32px" id="svguse12x14" xlink:href="#polyhex"></use><use x="787.635" y="239.1" width="37px" height="32px" id="svguse12x15" xlink:href="#polyhex"></use><use x="835.635" y="239.1" width="37px" height="32px" id="svguse12x16" xlink:href="#polyhex"></use><use x="883.635" y="239.1" width="37px" height="32px" id="svguse12x17" xlink:href="#polyhex"></use><use x="931.635" y="239.1" width="37px" height="32px" id="svguse12x18" xlink:href="#polyhex"></use><use x="979.635" y="239.1" width="37px" height="32px" id="svguse12x19" xlink:href="#polyhex"></use><use x="1027.635" y="239.1" width="37px" height="32px" id="svguse12x20" xlink:href="#polyhex"></use><use x="91.635" y="251.1" width="37px" height="32px" id="svguse13x1" xlink:href="#polyhex"></use><use x="139.635" y="251.1" width="37px" height="32px" id="svguse13x2" xlink:href="#polyhex"></use><use x="187.635" y="251.1" width="37px" height="32px" id="svguse13x3" xlink:href="#polyhex"></use><use x="235.635" y="251.1" width="37px" height="32px" id="svguse13x4" xlink:href="#polyhex"></use><use x="283.635" y="251.1" width="37px" height="32px" id="svguse13x5" xlink:href="#polyhex"></use><use x="331.635" y="251.1" width="37px" height="32px" id="svguse13x6" xlink:href="#polyhex"></use><use x="379.635" y="251.1" width="37px" height="32px" id="svguse13x7" xlink:href="#polyhex"></use><use x="427.635" y="251.1" width="37px" height="32px" id="svguse13x8" xlink:href="#polyhex"></use><use x="475.635" y="251.1" width="37px" height="32px" id="svguse13x9" xlink:href="#polyhex"></use><use x="523.635" y="251.1" width="37px" height="32px" id="svguse13x10" xlink:href="#polyhex"></use><use x="571.635" y="251.1" width="37px" height="32px" id="svguse13x11" xlink:href="#polyhex"></use><use x="619.635" y="251.1" width="37px" height="32px" id="svguse13x12" xlink:href="#polyhex"></use><use x="667.635" y="251.1" width="37px" height="32px" id="svguse13x13" xlink:href="#polyhex"></use><use x="715.635" y="251.1" width="37px" height="32px" id="svguse13x14" xlink:href="#polyhex"></use><use x="763.635" y="251.1" width="37px" height="32px" id="svguse13x15" xlink:href="#polyhex"></use><use x="811.635" y="251.1" width="37px" height="32px" id="svguse13x16" xlink:href="#polyhex"></use><use x="859.635" y="251.1" width="37px" height="32px" id="svguse13x17" xlink:href="#polyhex"></use><use x="907.635" y="251.1" width="37px" height="32px" id="svguse13x18" xlink:href="#polyhex"></use><use x="955.635" y="251.1" width="37px" height="32px" id="svguse13x19" xlink:href="#polyhex"></use><use x="1003.635" y="251.1" width="37px" height="32px" id="svguse13x20" xlink:href="#polyhex"></use><use x="115.635" y="263.1" width="37px" height="32px" id="svguse14x1" xlink:href="#polyhex"></use><use x="163.635" y="263.1" width="37px" height="32px" id="svguse14x2" xlink:href="#polyhex"></use><use x="211.635" y="263.1" width="37px" height="32px" id="svguse14x3" xlink:href="#polyhex"></use><use x="259.635" y="263.1" width="37px" height="32px" id="svguse14x4" xlink:href="#polyhex"></use><use x="307.635" y="263.1" width="37px" height="32px" id="svguse14x5" xlink:href="#polyhex"></use><use x="355.635" y="263.1" width="37px" height="32px" id="svguse14x6" xlink:href="#polyhex"></use><use x="403.635" y="263.1" width="37px" height="32px" id="svguse14x7" xlink:href="#polyhex"></use><use x="451.635" y="263.1" width="37px" height="32px" id="svguse14x8" xlink:href="#polyhex"></use><use x="499.635" y="263.1" width="37px" height="32px" id="svguse14x9" xlink:href="#polyhex"></use><use x="547.635" y="263.1" width="37px" height="32px" id="svguse14x10" xlink:href="#polyhex"></use><use x="595.635" y="263.1" width="37px" height="32px" id="svguse14x11" xlink:href="#polyhex"></use><use x="643.635" y="263.1" width="37px" height="32px" id="svguse14x12" xlink:href="#polyhex"></use><use x="691.635" y="263.1" width="37px" height="32px" id="svguse14x13" xlink:href="#polyhex"></use><use x="739.635" y="263.1" width="37px" height="32px" id="svguse14x14" xlink:href="#polyhex"></use><use x="787.635" y="263.1" width="37px" height="32px" id="svguse14x15" xlink:href="#polyhex"></use><use x="835.635" y="263.1" width="37px" height="32px" id="svguse14x16" xlink:href="#polyhex"></use><use x="883.635" y="263.1" width="37px" height="32px" id="svguse14x17" xlink:href="#polyhex"></use><use x="931.635" y="263.1" width="37px" height="32px" id="svguse14x18" xlink:href="#polyhex"></use><use x="979.635" y="263.1" width="37px" height="32px" id="svguse14x19" xlink:href="#polyhex"></use><use x="1027.635" y="263.1" width="37px" height="32px" id="svguse14x20" xlink:href="#polyhex"></use><use x="91.635" y="275.1" width="37px" height="32px" id="svguse15x1" xlink:href="#polyhex"></use><use x="139.635" y="275.1" width="37px" height="32px" id="svguse15x2" xlink:href="#polyhex"></use><use x="187.635" y="275.1" width="37px" height="32px" id="svguse15x3" xlink:href="#polyhex"></use><use x="235.635" y="275.1" width="37px" height="32px" id="svguse15x4" xlink:href="#polyhex"></use><use x="283.635" y="275.1" width="37px" height="32px" id="svguse15x5" xlink:href="#polyhex"></use><use x="331.635" y="275.1" width="37px" height="32px" id="svguse15x6" xlink:href="#polyhex"></use><use x="379.635" y="275.1" width="37px" height="32px" id="svguse15x7" xlink:href="#polyhex"></use><use x="427.635" y="275.1" width="37px" height="32px" id="svguse15x8" xlink:href="#polyhex"></use><use x="475.635" y="275.1" width="37px" height="32px" id="svguse15x9" xlink:href="#polyhex"></use><use x="523.635" y="275.1" width="37px" height="32px" id="svguse15x10" xlink:href="#polyhex"></use><use x="571.635" y="275.1" width="37px" height="32px" id="svguse15x11" xlink:href="#polyhex"></use><use x="619.635" y="275.1" width="37px" height="32px" id="svguse15x12" xlink:href="#polyhex"></use><use x="667.635" y="275.1" width="37px" height="32px" id="svguse15x13" xlink:href="#polyhex"></use><use x="715.635" y="275.1" width="37px" height="32px" id="svguse15x14" xlink:href="#polyhex"></use><use x="763.635" y="275.1" width="37px" height="32px" id="svguse15x15" xlink:href="#polyhex"></use><use x="811.635" y="275.1" width="37px" height="32px" id="svguse15x16" xlink:href="#polyhex"></use><use x="859.635" y="275.1" width="37px" height="32px" id="svguse15x17" xlink:href="#polyhex"></use><use x="907.635" y="275.1" width="37px" height="32px" id="svguse15x18" xlink:href="#polyhex"></use><use x="955.635" y="275.1" width="37px" height="32px" id="svguse15x19" xlink:href="#polyhex"></use><use x="1003.635" y="275.1" width="37px" height="32px" id="svguse15x20" xlink:href="#polyhex"></use><use x="115.635" y="287.1" width="37px" height="32px" id="svguse16x1" xlink:href="#polyhex"></use><use x="163.635" y="287.1" width="37px" height="32px" id="svguse16x2" xlink:href="#polyhex"></use><use x="211.635" y="287.1" width="37px" height="32px" id="svguse16x3" xlink:href="#polyhex"></use><use x="259.635" y="287.1" width="37px" height="32px" id="svguse16x4" xlink:href="#polyhex"></use><use x="307.635" y="287.1" width="37px" height="32px" id="svguse16x5" xlink:href="#polyhex"></use><use x="355.635" y="287.1" width="37px" height="32px" id="svguse16x6" xlink:href="#polyhex"></use><use x="403.635" y="287.1" width="37px" height="32px" id="svguse16x7" xlink:href="#polyhex"></use><use x="451.635" y="287.1" width="37px" height="32px" id="svguse16x8" xlink:href="#polyhex"></use><use x="499.635" y="287.1" width="37px" height="32px" id="svguse16x9" xlink:href="#polyhex"></use><use x="547.635" y="287.1" width="37px" height="32px" id="svguse16x10" xlink:href="#polyhex"></use><use x="595.635" y="287.1" width="37px" height="32px" id="svguse16x11" xlink:href="#polyhex"></use><use x="643.635" y="287.1" width="37px" height="32px" id="svguse16x12" xlink:href="#polyhex"></use><use x="691.635" y="287.1" width="37px" height="32px" id="svguse16x13" xlink:href="#polyhex"></use><use x="739.635" y="287.1" width="37px" height="32px" id="svguse16x14" xlink:href="#polyhex"></use><use x="787.635" y="287.1" width="37px" height="32px" id="svguse16x15" xlink:href="#polyhex"></use><use x="835.635" y="287.1" width="37px" height="32px" id="svguse16x16" xlink:href="#polyhex"></use><use x="883.635" y="287.1" width="37px" height="32px" id="svguse16x17" xlink:href="#polyhex"></use><use x="931.635" y="287.1" width="37px" height="32px" id="svguse16x18" xlink:href="#polyhex"></use><use x="979.635" y="287.1" width="37px" height="32px" id="svguse16x19" xlink:href="#polyhex"></use><use x="1027.635" y="287.1" width="37px" height="32px" id="svguse16x20" xlink:href="#polyhex"></use><use x="91.635" y="299.1" width="37px" height="32px" id="svguse17x1" xlink:href="#polyhex"></use><use x="139.635" y="299.1" width="37px" height="32px" id="svguse17x2" xlink:href="#polyhex"></use><use x="187.635" y="299.1" width="37px" height="32px" id="svguse17x3" xlink:href="#polyhex"></use><use x="235.635" y="299.1" width="37px" height="32px" id="svguse17x4" xlink:href="#polyhex"></use><use x="283.635" y="299.1" width="37px" height="32px" id="svguse17x5" xlink:href="#polyhex"></use><use x="331.635" y="299.1" width="37px" height="32px" id="svguse17x6" xlink:href="#polyhex"></use><use x="379.635" y="299.1" width="37px" height="32px" id="svguse17x7" xlink:href="#polyhex"></use><use x="427.635" y="299.1" width="37px" height="32px" id="svguse17x8" xlink:href="#polyhex"></use><use x="475.635" y="299.1" width="37px" height="32px" id="svguse17x9" xlink:href="#polyhex"></use><use x="523.635" y="299.1" width="37px" height="32px" id="svguse17x10" xlink:href="#polyhex"></use><use x="571.635" y="299.1" width="37px" height="32px" id="svguse17x11" xlink:href="#polyhex"></use><use x="619.635" y="299.1" width="37px" height="32px" id="svguse17x12" xlink:href="#polyhex"></use><use x="667.635" y="299.1" width="37px" height="32px" id="svguse17x13" xlink:href="#polyhex"></use><use x="715.635" y="299.1" width="37px" height="32px" id="svguse17x14" xlink:href="#polyhex"></use><use x="763.635" y="299.1" width="37px" height="32px" id="svguse17x15" xlink:href="#polyhex"></use><use x="811.635" y="299.1" width="37px" height="32px" id="svguse17x16" xlink:href="#polyhex"></use><use x="859.635" y="299.1" width="37px" height="32px" id="svguse17x17" xlink:href="#polyhex"></use><use x="907.635" y="299.1" width="37px" height="32px" id="svguse17x18" xlink:href="#polyhex"></use><use x="955.635" y="299.1" width="37px" height="32px" id="svguse17x19" xlink:href="#polyhex"></use><use x="1003.635" y="299.1" width="37px" height="32px" id="svguse17x20" xlink:href="#polyhex"></use><use x="115.635" y="311.1" width="37px" height="32px" id="svguse18x1" xlink:href="#polyhex"></use><use x="163.635" y="311.1" width="37px" height="32px" id="svguse18x2" xlink:href="#polyhex"></use><use x="211.635" y="311.1" width="37px" height="32px" id="svguse18x3" xlink:href="#polyhex"></use><use x="259.635" y="311.1" width="37px" height="32px" id="svguse18x4" xlink:href="#polyhex"></use><use x="307.635" y="311.1" width="37px" height="32px" id="svguse18x5" xlink:href="#polyhex"></use><use x="355.635" y="311.1" width="37px" height="32px" id="svguse18x6" xlink:href="#polyhex"></use><use x="403.635" y="311.1" width="37px" height="32px" id="svguse18x7" xlink:href="#polyhex"></use><use x="451.635" y="311.1" width="37px" height="32px" id="svguse18x8" xlink:href="#polyhex"></use><use x="499.635" y="311.1" width="37px" height="32px" id="svguse18x9" xlink:href="#polyhex"></use><use x="547.635" y="311.1" width="37px" height="32px" id="svguse18x10" xlink:href="#polyhex"></use><use x="595.635" y="311.1" width="37px" height="32px" id="svguse18x11" xlink:href="#polyhex"></use><use x="643.635" y="311.1" width="37px" height="32px" id="svguse18x12" xlink:href="#polyhex"></use><use x="691.635" y="311.1" width="37px" height="32px" id="svguse18x13" xlink:href="#polyhex"></use><use x="739.635" y="311.1" width="37px" height="32px" id="svguse18x14" xlink:href="#polyhex"></use><use x="787.635" y="311.1" width="37px" height="32px" id="svguse18x15" xlink:href="#polyhex"></use><use x="835.635" y="311.1" width="37px" height="32px" id="svguse18x16" xlink:href="#polyhex"></use><use x="883.635" y="311.1" width="37px" height="32px" id="svguse18x17" xlink:href="#polyhex"></use><use x="931.635" y="311.1" width="37px" height="32px" id="svguse18x18" xlink:href="#polyhex"></use><use x="979.635" y="311.1" width="37px" height="32px" id="svguse18x19" xlink:href="#polyhex"></use><use x="1027.635" y="311.1" width="37px" height="32px" id="svguse18x20" xlink:href="#polyhex"></use>
</g>






<polygon id="0" style="fill:url(#img1);stroke:#000000;stroke-width:0.43200001px" points="7.2,24.941532 0,12.470766 7.1999999,3.446201e-08 21.6,-4.3077517e-08 28.8,12.470766 21.6,24.941532 "></polygon>

</svg>
