<?xml version="1.0"?>
<svg xmlns:rdf="http://www.w3.org/1999/02/22-rdf-syntax-ns#" xmlns="http://www.w3.org/2000/svg" xmlns:cc="http://creativecommons.org/ns#" xmlns:xlink="http://www.w3.org/1999/xlink" xmlns:dc="http://purl.org/dc/elements/1.1/" xmlns:svg="http://www.w3.org/2000/svg" id="svg5168" viewBox="0 0 1311 1311.2" version="1.1">
  <defs id="defs5170">
    <linearGradient id="linearGradient3862">
      <stop id="stop3864" stop-color="#b07400" offset="0"/>
      <stop id="stop3866" stop-color="#b07400" stop-opacity="0" offset="1"/>
    </linearGradient>
    <filter id="filter4024" height="1.6744" width="1.6744" y="-.3372" x="-.3372" color-interpolation-filters="sRGB">
      <feGaussianBlur id="feGaussianBlur4026" stdDeviation="11.070262"/>
    </filter>
    <filter id="filter4248" height="1.943" width="1.8875" y="-.47149" x="-.44375" color-interpolation-filters="sRGB">
      <feGaussianBlur id="feGaussianBlur4250" stdDeviation="1.5875811"/>
    </filter>
    <filter id="filter4572" height="1.8413" width="1.7919" y="-.42067" x="-.39593" color-interpolation-filters="sRGB">
      <feGaussianBlur id="feGaussianBlur4574" stdDeviation="1.4164714"/>
    </filter>
    <filter id="filter4428" height="1.943" width="1.8875" y="-.47149" x="-.44375" color-interpolation-filters="sRGB">
      <feGaussianBlur id="feGaussianBlur4430" stdDeviation="1.5875811"/>
    </filter>
    <filter id="filter4792" height="1.9256" width="1.8712" y="-.46282" x="-.4356" color-interpolation-filters="sRGB">
      <feGaussianBlur id="feGaussianBlur4794" stdDeviation="1.5584129"/>
    </filter>
    <filter id="filter4956" height="1.9182" width="1.8642" y="-.45911" x="-.43211" color-interpolation-filters="sRGB">
      <feGaussianBlur id="feGaussianBlur4958" stdDeviation="1.5459123"/>
    </filter>
    <filter id="filter5956" color-interpolation-filters="sRGB">
      <feGaussianBlur id="feGaussianBlur5958" stdDeviation="12.75524"/>
    </filter>
    <radialGradient id="radialGradient5996" gradientUnits="userSpaceOnUse" cy="5278.8" cx="1450.6" gradientTransform="matrix(.65855 -.011302 .012495 .72805 429.35 1452)" r="473.25">
      <stop id="stop3925" stop-color="#a46800" offset="0"/>
      <stop id="stop3927" stop-color="#a46800" stop-opacity="0" offset="1"/>
    </radialGradient>
    <radialGradient id="radialGradient5998" xlink:href="#linearGradient3862" gradientUnits="userSpaceOnUse" cy="1738.1" cx="2804.6" gradientTransform="matrix(1.4757 .0021544 -.0020110 1.3851 -4040.8 -1970.7)" r="459.66"/>
    <radialGradient id="radialGradient6000" xlink:href="#linearGradient3862" gradientUnits="userSpaceOnUse" cy="1738.1" cx="2804.6" gradientTransform="matrix(1.9997 .023589 -.019208 1.6374 -5478.4 -2465.9)" r="459.66"/>
  </defs>
  <g id="layer1" transform="translate(565.14 230.21)">
    <g id="g6002">
      <g id="g5960" transform="matrix(.98077 0 0 .98077 -10.869 -4.4273)" fill-rule="evenodd">
        <path id="path5442" filter="url(#filter5956)" stroke-width="0" d="m101.52-199.56c-351.25 0-635.98 285.56-635.98 637.79s278.29 643.65 635.98 637.76c418.8-1.7006 636.96-327.74 639.43-659.97l-0.42063-2.1783c-9.83-332.83-307.76-613.45-639.01-613.45zm-1.7143 32.439c315.3 0 577.8 242.68 603.37 557.82l2.0125 49.219c0 335.27-271.05 607.07-605.39 607.07s-605.35-271.81-605.35-607.07c0-335.27 271.01-607.04 605.35-607.04z"/>
        <path id="path3921" d="m1923.3 5278.8c0 261.09-211.66 472.75-472.75 472.75s-472.75-211.66-472.75-472.75 211.66-472.75 472.75-472.75c246.23 0 451.23 189 471.19 434.41" transform="matrix(1.3453 0 0 1.3491 -1850.5 -6682.1)" stroke="#000" stroke-width="1px" fill="#f4e468"/>
        <path id="path3871" stroke-width="0" transform="matrix(1.3453 0 0 1.3491 -1850.5 -6682.1)" fill="url(#radialGradient5996)" d="m1923.3 5278.8c0 261.09-211.66 472.75-472.75 472.75s-472.75-211.66-472.75-472.75 211.66-472.75 472.75-472.75c246.23 0 451.23 189 471.19 434.41"/>
        <path id="path3807" stroke-width="0" fill="url(#radialGradient5998)" d="m81.2-106.12c-107.2 1.6611-212.66 34.845-302.1 96.444l12.465 8.0598c132.74 90.659 213.21 229.5 233.95 377.33-147.98-16.27-288.83-92.68-383.26-222.95l-8.41-12.25c-58.666 91.521-88.519 198.25-86.898 305.74 1.5138 100.36 30.428 201.39 88.96 291.31l14.398 20.956c34.736-51.544 78.818-97.965 131.76-136.55 74.794-54.517 158.73-87.255 244.32-99.455-10.638 82.964-40.398 164.73-90.573 238.6-39.409 58.018-87.962 106.07-142.4 143.55 193.82 124.98 438.42 112 616.16-16.55-0.58962-0.40015-1.1666-0.80843-1.7555-1.2106-129.05-88.15-208.67-221.87-232.06-365.08 143.46 19.071 279.18 94.79 370.98 221.44 0.41895 0.57786 0.84411 1.1434 1.2602 1.7225 122.7-182.08 128.16-427.64-2.3364-618.09-35.694 55.705-82.105 105.84-138.73 147.11-72.097 52.551-152.73 84.88-235.1 98.076 9.5453-86.153 39.658-171.29 91.71-247.92 36.846-54.244 81.769-99.847 132.08-136.24l-21.32-13.791c-91.43-55.92-193.01-81.809-293.09-80.259z"/>
        <path id="path3809" stroke="#000" stroke-width="1.4646px" fill="#f4e468" d="m83.537-106.07c-107.2 1.6611-212.66 34.845-302.1 96.444l12.465 8.0598c132.74 90.658 213.21 229.5 233.95 377.33-147.99-16.27-288.83-92.68-383.26-222.95l-8.4145-12.247c-58.666 91.521-88.519 198.25-86.898 305.74 1.5138 100.36 30.428 201.39 88.96 291.31l14.398 20.956c34.736-51.544 78.818-97.965 131.76-136.55 74.794-54.517 158.73-87.255 244.32-99.455-10.638 82.964-40.398 164.73-90.573 238.6-39.409 58.018-87.962 106.07-142.4 143.55 193.82 124.98 438.42 112 616.16-16.55-0.58962-0.40015-1.1666-0.80843-1.7555-1.2106-129.05-88.145-208.67-221.86-232.06-365.07 143.46 19.071 279.18 94.79 370.98 221.44 0.41896 0.57786 0.84411 1.1434 1.2602 1.7225 122.7-182.08 128.16-427.64-2.3364-618.09-35.694 55.705-82.105 105.84-138.73 147.11-72.097 52.551-152.73 84.88-235.1 98.076 9.5453-86.153 39.658-171.29 91.71-247.92 36.846-54.244 81.769-99.847 132.08-136.24l-21.33-13.803c-91.42-55.919-193-81.817-293.08-80.257z"/>
        <path id="path3811" stroke-width="0" fill="url(#radialGradient6000)" d="m83.537-102.66c-107.2 1.6611-212.66 34.845-302.1 96.444l12.465 8.0598c132.74 90.664 213.21 229.51 233.95 377.34-147.99-16.28-288.83-92.69-383.26-222.95l-8.4145-12.247c-58.666 91.521-88.519 198.25-86.898 305.74 1.5138 100.36 30.428 201.39 88.96 291.31l14.398 20.956c34.736-51.544 78.818-97.965 131.76-136.55 74.79-54.52 158.73-87.26 244.31-99.46-10.634 82.97-40.395 164.74-90.57 238.6-39.409 58.018-87.962 106.07-142.4 143.55 193.82 124.98 438.42 112 616.16-16.55-0.58962-0.40015-1.1666-0.80843-1.7555-1.2106-129.04-88.15-208.66-221.86-232.05-365.07 143.46 19.071 279.18 94.79 370.98 221.44 0.41896 0.57786 0.84411 1.1434 1.2602 1.7225 122.7-182.08 128.16-427.64-2.3364-618.09-35.694 55.705-82.105 105.84-138.73 147.11-72.097 52.551-152.73 84.88-235.1 98.076 9.5453-86.153 39.658-171.29 91.71-247.92 36.846-54.244 81.769-99.847 132.08-136.24l-21.33-13.796c-91.42-55.919-193-81.814-293.08-80.264z"/>
        <path id="path3813" stroke="#000" stroke-width=".93676px" fill="#dcb430" d="m24.816 101.19c-46.065 9.169-90.273 27.595-129.65 54.603l7.9715 5.1636c15.532 10.654 29.924 22.329 43.179 34.893 9.9737-5.7484 20.289-10.896 30.862-15.399l-0.7945-0.78775c17.884-7.6698 36.405-13.414 55.23-17.256 35.939-7.3339 73.024-7.6886 109.11-1.0187 34.06 6.2957 68.095 18.5 99.139 37.084 15.318-16.211 31.948-30.704 49.615-43.429l-13.62-8.854c-58.42-35.87-123.34-52.555-187.36-51.69-21.422 0.289-42.756 2.536-63.694 6.7zm-222.75 150.47c-37.638 58.462-56.869 126.68-55.968 195.43 0.8416 64.192 19.218 128.85 56.542 186.44l9.1764 13.407c11.514-17.013 24.617-33.136 39.276-48.153-19.792-30.978-32.67-65.12-39.854-100.15-11.262-54.92-6.3234-112.52 14.854-165.13l0.0513 0.16157c4.549-11.388 9.9149-22.417 15.996-33.05-12.409-12.609-24.041-26.312-34.72-41.106l-5.3589-7.8502zm583.2-7.5444c-12.957 20.133-28.099 39.126-45.381 56.588 5.1533 9.2102 9.7911 18.633 13.855 28.256 0.22683-0.23356 0.45724-0.46796 0.68323-0.70224 36.841 86.348 28.047 181.36-16.137 257.18 17.048 15.714 32.794 33.354 46.898 52.893 0.2669 0.37049 0.54477 0.73094 0.81024 1.1019 78.708-116.3 82.495-273.34-0.72783-395.32zm-429.52 452.19c-16.232 16.673-33.864 31.454-52.579 44.285 123.81 80.179 280.27 72.207 394.11-9.7865-0.37674-0.25616-0.75956-0.53254-1.1356-0.7905-19.614-13.455-37.41-28.553-53.38-44.99-75.398 48.341-172.07 60.344-260.76 24.435 0.22945-0.23188 0.4545-0.46963 0.68323-0.70235-9.1414-3.6621-18.143-7.8069-26.94-12.45z"/>
        <path id="path3118" stroke-width="0" fill="#d4a41c" d="m101.52-199.56c-351.25 0-635.98 285.56-635.98 637.79s278.29 643.65 635.98 637.76c418.8-1.7006 636.96-327.74 639.43-659.97l-0.42063-2.1783c-9.83-332.83-307.76-613.45-639.01-613.45zm-1.7143 32.439c315.3 0 577.8 242.68 603.37 557.82l2.0125 49.219c0 335.27-271.05 607.07-605.39 607.07s-605.35-271.81-605.35-607.07c0-335.27 271.01-607.04 605.35-607.04z"/>
        <path id="path3891" d="m2192 4926.3c0 21.758-17.638 39.396-39.396 39.396s-39.396-17.638-39.396-39.396 17.638-39.396 39.396-39.396c20.519 0 37.602 15.75 39.266 36.201" transform="matrix(2.0985 0 0 2.1043 -4419.8 -9918.6)" stroke="#000" stroke-width=".31826" fill="#d09c14"/>
        <path id="path3894" d="m2192 4926.3c0 21.758-17.638 39.396-39.396 39.396s-39.396-17.638-39.396-39.396 17.638-39.396 39.396-39.396c20.519 0 37.602 15.75 39.266 36.201" transform="matrix(1.1322 0 0 1.1353 -2342.2 -5145.2)" filter="url(#filter4024)" stroke-width="0" fill="#ecd858"/>
        <path id="path4037" stroke="#000" stroke-width="1.1942px" fill="#b47800" d="m-3.3612 145.41c0 8.4919-6.8649 15.376-15.333 15.376-8.4683 0-15.333-6.884-15.333-15.376 0-8.4919 6.8649-15.376 15.333-15.376 7.9862 0 14.635 6.147 15.283 14.129"/>
        <path id="path4040" stroke="#000" stroke-width="1.1942px" fill="#b47800" d="m223.23 145.41c0 8.4919-6.8649 15.376-15.333 15.376-8.4683 0-15.333-6.884-15.333-15.376 0-8.4919 6.8649-15.376 15.333-15.376 7.9862 0 14.635 6.147 15.283 14.129"/>
        <path id="path4042" stroke="#000" stroke-width="1.1942px" fill="#b47800" d="m6.8609 746.79c0 8.4919-6.8649 15.376-15.333 15.376-8.4683 0-15.333-6.884-15.333-15.376 0-8.4919 6.8649-15.376 15.333-15.376 7.9862 0 14.635 6.147 15.283 14.129"/>
        <path id="path4044" stroke="#000" stroke-width="1.1942px" fill="#b47800" d="m235.16 739.95c0 8.4919-6.8649 15.376-15.333 15.376-8.4683 0-15.333-6.884-15.333-15.376 0-8.4919 6.8649-15.376 15.333-15.376 7.9862 0 14.635 6.147 15.283 14.129"/>
        <path id="path4046" stroke="#000" stroke-width="1.1942px" fill="#b47800" d="m-202.18 311.21c8.4477 0.59161 14.818 7.9386 14.228 16.41-0.59009 8.4712-7.9166 14.859-16.364 14.267-8.4477-0.59174-14.818-7.9387-14.227-16.41 0.55646-7.9889 7.1346-14.212 15.12-14.304"/>
        <path id="path4048" stroke="#000" stroke-width="1.1942px" fill="#b47800" d="m-199.36 552.02c8.4477 0.59173 14.818 7.9388 14.227 16.41-0.59009 8.4712-7.9166 14.859-16.364 14.267-8.4477-0.59161-14.818-7.9386-14.228-16.41 0.55646-7.9889 7.1348-14.212 15.12-14.304"/>
        <path id="path4050" stroke="#000" stroke-width="1.1942px" fill="#b47800" d="m389 304.38c8.4477 0.59161 14.818 7.9386 14.228 16.41-0.59009 8.4712-7.9166 14.859-16.364 14.267-8.4477-0.59174-14.818-7.9387-14.227-16.41 0.55646-7.9889 7.1346-14.212 15.12-14.304"/>
        <path id="path4052" stroke="#000" stroke-width="1.1942px" fill="#b47800" d="m391.82 545.19c8.4477 0.59173 14.818 7.9388 14.227 16.41-0.59009 8.4712-7.9166 14.859-16.364 14.267-8.4477-0.59162-14.818-7.9386-14.228-16.41 0.55646-7.9889 7.1348-14.212 15.12-14.304"/>
        <path id="path4054" stroke="#000" stroke-width=".24124" fill="#b47800" d="m100.74-183.58c0 6.1674-4.6561 11.167-10.4 11.167-5.7437 0-10.4-4.9995-10.4-11.167 0-6.1672 4.6562-11.167 10.4-11.167 5.4167 0 9.9264 4.4643 10.366 10.261"/>
        <path id="path4073" stroke="#000" stroke-width=".24124" fill="#b47800" d="m732.81 424.63c0 6.1674-4.6561 11.167-10.4 11.167-5.7437 0-10.4-4.9995-10.4-11.167 0-6.1672 4.6562-11.167 10.4-11.167 5.4167 0 9.9264 4.4643 10.366 10.261"/>
        <path id="path4075" stroke="#000" stroke-width=".83818px" fill="#b47800" d="m-510.88 429.75c0 6.1674-4.6561 11.167-10.4 11.167-5.7437 0-10.4-4.9995-10.4-11.167 0-6.1672 4.6562-11.167 10.4-11.167 5.4167 0 9.9264 4.4643 10.366 10.261"/>
        <path id="path4077" stroke="#000" stroke-width=".83818px" fill="#b47800" d="m102.45 1061.9c0 6.1674-4.6561 11.167-10.4 11.167-5.7437 0-10.4-4.9995-10.4-11.167 0-6.1672 4.6562-11.167 10.4-11.167 5.4167 0 9.9264 4.4643 10.366 10.261"/>
        <path id="path4079" d="m3745.1 4845.5c0 2.2315-1.9221 4.0406-4.2932 4.0406-2.371 0-4.2931-1.8091-4.2931-4.0406 0-2.2316 1.9221-4.0406 4.2931-4.0406 2.2361 0 4.0977 1.6153 4.279 3.7129" transform="matrix(1.1926 0 0 1.1959 -3739 -5370.4)" filter="url(#filter4248)" stroke-width="0" fill="#f8f070"/>
        <path id="path4082" d="m3745.1 4845.5c0 2.2315-1.9221 4.0406-4.2932 4.0406-2.371 0-4.2931-1.8091-4.2931-4.0406 0-2.2316 1.9221-4.0406 4.2931-4.0406 2.2361 0 4.0977 1.6153 4.279 3.7129" transform="matrix(1.5433 0 0 1.5696 -5565.8 -7459.4)" filter="url(#filter4572)" stroke-width="0" fill="#f8f070"/>
        <path id="path4084" d="m3745.1 4845.5c0 2.2315-1.9221 4.0406-4.2932 4.0406-2.371 0-4.2931-1.8091-4.2931-4.0406 0-2.2316 1.9221-4.0406 4.2931-4.0406 2.2361 0 4.0977 1.6153 4.279 3.7129" transform="matrix(1.1926 0 0 1.1959 -4371.4 -5978.1)" filter="url(#filter4428)" stroke-width="0" fill="#f8f070"/>
        <path id="path4086" d="m3745.1 4845.5c0 2.2315-1.9221 4.0406-4.2932 4.0406-2.371 0-4.2931-1.8091-4.2931-4.0406 0-2.2316 1.9221-4.0406 4.2931-4.0406 2.2361 0 4.0977 1.6153 4.279 3.7129" transform="matrix(1.1926 0 0 1.1959 -4982.8 -5365.6)" filter="url(#filter4792)" stroke-width="0" fill="#f8f070"/>
        <path id="path4576" d="m3745.1 4845.5c0 2.2315-1.9221 4.0406-4.2932 4.0406-2.371 0-4.2931-1.8091-4.2931-4.0406 0-2.2316 1.9221-4.0406 4.2931-4.0406 2.2361 0 4.0977 1.6153 4.279 3.7129" transform="matrix(1.5433 0 0 1.5696 -5792.9 -7461.3)" filter="url(#filter4572)" stroke-width="0" fill="#f8f070"/>
        <path id="path4578" d="m3745.1 4845.5c0 2.2315-1.9221 4.0406-4.2932 4.0406-2.371 0-4.2931-1.8091-4.2931-4.0406 0-2.2316 1.9221-4.0406 4.2931-4.0406 2.2361 0 4.0977 1.6153 4.279 3.7129" transform="matrix(1.5433 0 0 1.5696 -5385.1 -7285.5)" filter="url(#filter4572)" stroke-width="0" fill="#f8f070"/>
        <path id="path4580" d="m3745.1 4845.5c0 2.2315-1.9221 4.0406-4.2932 4.0406-2.371 0-4.2931-1.8091-4.2931-4.0406 0-2.2316 1.9221-4.0406 4.2931-4.0406 2.2361 0 4.0977 1.6153 4.279 3.7129" transform="matrix(1.5433 0 0 1.5696 -5382.1 -7045.1)" filter="url(#filter4572)" stroke-width="0" fill="#f8f070"/>
        <path id="path4582" d="m3745.1 4845.5c0 2.2315-1.9221 4.0406-4.2932 4.0406-2.371 0-4.2931-1.8091-4.2931-4.0406 0-2.2316 1.9221-4.0406 4.2931-4.0406 2.2361 0 4.0977 1.6153 4.279 3.7129" transform="matrix(1.5433 0 0 1.5696 -5554.4 -6865.1)" filter="url(#filter4572)" stroke-width="0" fill="#f8f070"/>
        <path id="path4584" d="m3745.1 4845.5c0 2.2315-1.9221 4.0406-4.2932 4.0406-2.371 0-4.2931-1.8091-4.2931-4.0406 0-2.2316 1.9221-4.0406 4.2931-4.0406 2.2361 0 4.0977 1.6153 4.279 3.7129" transform="matrix(1.5433 0 0 1.5696 -5782 -6859)" filter="url(#filter4572)" stroke-width="0" fill="#f8f070"/>
        <path id="path4586" d="m3745.1 4845.5c0 2.2315-1.9221 4.0406-4.2932 4.0406-2.371 0-4.2931-1.8091-4.2931-4.0406 0-2.2316 1.9221-4.0406 4.2931-4.0406 2.2361 0 4.0977 1.6153 4.279 3.7129" transform="matrix(1.5433 0 0 1.5696 -5974.2 -7039)" filter="url(#filter4572)" stroke-width="0" fill="#f8f070"/>
        <path id="path4588" d="m3745.1 4845.5c0 2.2315-1.9221 4.0406-4.2932 4.0406-2.371 0-4.2931-1.8091-4.2931-4.0406 0-2.2316 1.9221-4.0406 4.2931-4.0406 2.2361 0 4.0977 1.6153 4.279 3.7129" transform="matrix(1.5433 0 0 1.5696 -5977.2 -7279.4)" filter="url(#filter4572)" stroke-width="0" fill="#f8f070"/>
        <path id="path4590" d="m3745.1 4845.5c0 2.2315-1.9221 4.0406-4.2932 4.0406-2.371 0-4.2931-1.8091-4.2931-4.0406 0-2.2316 1.9221-4.0406 4.2931-4.0406 2.2361 0 4.0977 1.6153 4.279 3.7129" transform="matrix(1.1926 0 0 1.1959 -4369 -4732.6)" filter="url(#filter4956)" stroke-width="0" fill="#f8f070"/>
      </g>
    </g>
  </g>
  <metadata>
    <rdf:RDF>
      <cc:Work>
        <dc:format>image/svg+xml</dc:format>
        <dc:type rdf:resource="http://purl.org/dc/dcmitype/StillImage"/>
        <cc:license rdf:resource="http://creativecommons.org/licenses/publicdomain/"/>
        <dc:publisher>
          <cc:Agent rdf:about="http://openclipart.org/">
            <dc:title>Openclipart</dc:title>
          </cc:Agent>
        </dc:publisher>
        <dc:title>golden shield</dc:title>
        <dc:date>2011-05-15T07:19:31</dc:date>
        <dc:description>armas, clip art, clipart, defensa, defensive, dorado, escudo, golden, guerra, shield, war, weapons, </dc:description>
        <dc:source>http://openclipart.org/detail/138787/golden-shield-by-pauthonic</dc:source>
        <dc:creator>
          <cc:Agent>
            <dc:title>pauthonic</dc:title>
          </cc:Agent>
        </dc:creator>
        <dc:subject>
          <rdf:Bag>
            <rdf:li>armas</rdf:li>
            <rdf:li>clip art</rdf:li>
            <rdf:li>clipart</rdf:li>
            <rdf:li>defensa</rdf:li>
            <rdf:li>defensive</rdf:li>
            <rdf:li>dorado</rdf:li>
            <rdf:li>escudo</rdf:li>
            <rdf:li>golden</rdf:li>
            <rdf:li>guerra</rdf:li>
            <rdf:li>shield</rdf:li>
            <rdf:li>war</rdf:li>
            <rdf:li>weapons</rdf:li>
          </rdf:Bag>
        </dc:subject>
      </cc:Work>
      <cc:License rdf:about="http://creativecommons.org/licenses/publicdomain/">
        <cc:permits rdf:resource="http://creativecommons.org/ns#Reproduction"/>
        <cc:permits rdf:resource="http://creativecommons.org/ns#Distribution"/>
        <cc:permits rdf:resource="http://creativecommons.org/ns#DerivativeWorks"/>
      </cc:License>
    </rdf:RDF>
  </metadata>
</svg>
