<?xml version="1.0"?>
<svg xmlns:rdf="http://www.w3.org/1999/02/22-rdf-syntax-ns#" xmlns="http://www.w3.org/2000/svg" xmlns:cc="http://creativecommons.org/ns#" xmlns:xlink="http://www.w3.org/1999/xlink" xmlns:dc="http://purl.org/dc/elements/1.1/" xmlns:svg="http://www.w3.org/2000/svg" id="svg4622" viewBox="0 0 1136.3 1135.9" version="1.1">
  <defs id="defs4624">
    <radialGradient id="radialGradient6061" gradientUnits="userSpaceOnUse" cy="2312.4" cx="-3340.4" gradientTransform="matrix(.44145 .0031053 -.0028687 .40782 1920.4 -43.902)" r="1220.4">
      <stop id="stop6057" stop-color="#666" offset="0"/>
      <stop id="stop6059" stop-color="#666" stop-opacity="0" offset="1"/>
    </radialGradient>
    <filter id="filter4099" color-interpolation-filters="sRGB">
      <feGaussianBlur id="feGaussianBlur4101" stdDeviation="33.885714"/>
    </filter>
    <filter id="filter4091" color-interpolation-filters="sRGB">
      <feGaussianBlur id="feGaussianBlur4093" stdDeviation="38.256245"/>
    </filter>
    <radialGradient id="radialGradient6187" gradientUnits="userSpaceOnUse" cy="2195.6" cx="-4311.5" gradientTransform="matrix(.23389 .0021787 -.00090460 .084478 1444.1 709.7)" r="719.76">
      <stop id="stop3950" stop-color="#fea" offset="0"/>
      <stop id="stop3952" stop-color="#fea" stop-opacity="0" offset="1"/>
    </radialGradient>
    <radialGradient id="radialGradient6184" gradientUnits="userSpaceOnUse" cy="1925.6" cx="-4410.6" gradientTransform="matrix(.20947 -.0040960 .0053548 .20686 1345.4 479.48)" r="637.33">
      <stop id="stop4020" stop-color="#1a1a1a" offset="0"/>
      <stop id="stop4022" stop-color="#1a1a1a" stop-opacity="0" offset="1"/>
    </radialGradient>
    <linearGradient id="linearGradient5652" y2="1744.7" gradientUnits="userSpaceOnUse" y1="1744.7" x2="-3785.6" x1="-4158.6">
      <stop id="stop4033" stop-color="#c0f" offset="0"/>
      <stop id="stop4035" stop-color="#c0f" stop-opacity="0" offset="1"/>
    </linearGradient>
    <filter id="filter4015" color-interpolation-filters="sRGB">
      <feGaussianBlur id="feGaussianBlur4017" stdDeviation="7.1697739"/>
    </filter>
    <linearGradient id="linearGradient5654" y2="1219" gradientUnits="userSpaceOnUse" y1="1219" x2="-7190.7" x1="-7564.9">
      <stop id="stop4025" stop-color="#c0f" offset="0"/>
      <stop id="stop4027" stop-color="#c0f" stop-opacity="0" offset="1"/>
    </linearGradient>
    <filter id="filter4395-1" color-interpolation-filters="sRGB">
      <feGaussianBlur id="feGaussianBlur4397-1" stdDeviation="0.86077036"/>
    </filter>
    <filter id="filter4423-1" color-interpolation-filters="sRGB">
      <feGaussianBlur id="feGaussianBlur4425-7" stdDeviation="0.33621064"/>
    </filter>
    <filter id="filter5909" color-interpolation-filters="sRGB">
      <feGaussianBlur id="feGaussianBlur5911" stdDeviation="0.77965741"/>
    </filter>
    <filter id="filter5873" color-interpolation-filters="sRGB">
      <feGaussianBlur id="feGaussianBlur5875" stdDeviation="0.60472209"/>
    </filter>
    <filter id="filter5929" color-interpolation-filters="sRGB">
      <feGaussianBlur id="feGaussianBlur5931" stdDeviation="1.447417"/>
    </filter>
    <filter id="filter4395-1-4" color-interpolation-filters="sRGB">
      <feGaussianBlur id="feGaussianBlur4397-1-1" stdDeviation="0.86077036"/>
    </filter>
    <filter id="filter4423-1-1" color-interpolation-filters="sRGB">
      <feGaussianBlur id="feGaussianBlur4425-7-7" stdDeviation="0.33621064"/>
    </filter>
    <filter id="filter5917" color-interpolation-filters="sRGB">
      <feGaussianBlur id="feGaussianBlur5919" stdDeviation="0.77965741"/>
    </filter>
    <filter id="filter5901" color-interpolation-filters="sRGB">
      <feGaussianBlur id="feGaussianBlur5903" stdDeviation="0.60472209"/>
    </filter>
    <linearGradient id="linearGradient6165" x1="-3144.8" xlink:href="#linearGradient4887" gradientUnits="userSpaceOnUse" y1="3758.9" gradientTransform="matrix(.053087 -.065161 .074348 .043133 455.22 593.81)" x2="-4028.7" y2="3813.1"/>
    <linearGradient id="linearGradient4887">
      <stop id="stop4889" stop-color="#808080" offset="0"/>
      <stop id="stop4891" stop-color="#808080" stop-opacity="0" offset="1"/>
    </linearGradient>
    <linearGradient id="linearGradient6162" x1="-3152.2" xlink:href="#linearGradient4879" gradientUnits="userSpaceOnUse" y1="3673.7" gradientTransform="matrix(.053087 -.065161 .074348 .043133 455.22 593.81)" x2="-3914.7" y2="3696.5"/>
    <linearGradient id="linearGradient4879">
      <stop id="stop4881" stop-color="#666" offset="0"/>
      <stop id="stop4883" stop-color="#666" stop-opacity="0" offset="1"/>
    </linearGradient>
    <linearGradient id="linearGradient6156" x1="-3146.6" xlink:href="#linearGradient4863" gradientUnits="userSpaceOnUse" y1="3737" gradientTransform="matrix(.053087 -.065161 .074348 .043133 455.22 593.81)" x2="-3987" y2="3782.7"/>
    <linearGradient id="linearGradient4863">
      <stop id="stop4865" stop-color="#d40000" offset="0"/>
      <stop id="stop4867" stop-color="#d40000" stop-opacity="0" offset="1"/>
    </linearGradient>
    <linearGradient id="linearGradient6158" x1="-6308.6" xlink:href="#linearGradient4871" gradientUnits="userSpaceOnUse" y1="212.36" gradientTransform="matrix(.053087 -.065161 .074348 .043133 455.22 593.81)" x2="-6308.6" y2="235.22"/>
    <linearGradient id="linearGradient4871">
      <stop id="stop4873" stop-color="#20edf3" offset="0"/>
      <stop id="stop4875" stop-color="#20edf3" stop-opacity="0" offset="1"/>
    </linearGradient>
    <linearGradient id="linearGradient6151" x1="732.28" xlink:href="#linearGradient3676" gradientUnits="userSpaceOnUse" y1="621.02" gradientTransform="matrix(.61835 -.76550 .76550 .61835 -368.89 1188.3)" x2="745.48" y2="621.02"/>
    <linearGradient id="linearGradient3676">
      <stop id="stop3678" stop-color="#fff" offset="0"/>
      <stop id="stop3680" stop-color="#b3b3b3" offset="1"/>
    </linearGradient>
    <linearGradient id="linearGradient6148" x1="732.28" xlink:href="#linearGradient3676" gradientUnits="userSpaceOnUse" y1="621.02" gradientTransform="matrix(.61835 -.76550 .76550 .61835 -359.63 1174.6)" x2="745.48" y2="621.02"/>
    <linearGradient id="linearGradient6145" x1="732.28" xlink:href="#linearGradient3676" gradientUnits="userSpaceOnUse" y1="621.02" gradientTransform="matrix(.61835 -.76550 .76550 .61835 -350.04 1160.2)" x2="745.48" y2="621.02"/>
    <linearGradient id="linearGradient6142" x1="732.28" xlink:href="#linearGradient3676" gradientUnits="userSpaceOnUse" y1="621.02" gradientTransform="matrix(.60149 -.77881 .77881 .60149 -336.13 1166)" x2="745.48" y2="621.02"/>
    <linearGradient id="linearGradient6139" x1="732.28" xlink:href="#linearGradient3676" gradientUnits="userSpaceOnUse" y1="621.02" gradientTransform="matrix(.60149 -.77881 .77881 .60149 -326.8 1152)" x2="745.48" y2="621.02"/>
    <linearGradient id="linearGradient6136" x1="732.28" xlink:href="#linearGradient3676" gradientUnits="userSpaceOnUse" y1="621.02" gradientTransform="matrix(.60149 -.77881 .77881 .60149 -317.42 1138.4)" x2="745.48" y2="621.02"/>
    <linearGradient id="linearGradient6133" x1="732.28" xlink:href="#linearGradient3676" gradientUnits="userSpaceOnUse" y1="621.02" gradientTransform="matrix(.57402 -.79928 .79928 .57402 -301.47 1155.8)" x2="745.48" y2="621.02"/>
    <linearGradient id="linearGradient6130" x1="732.28" xlink:href="#linearGradient3676" gradientUnits="userSpaceOnUse" y1="621.02" gradientTransform="matrix(.57402 -.79928 .79928 .57402 -293.1 1140.9)" x2="745.48" y2="621.02"/>
    <linearGradient id="linearGradient6127" x1="732.28" xlink:href="#linearGradient3676" gradientUnits="userSpaceOnUse" y1="621.02" gradientTransform="matrix(.52746 -.83074 .83074 .52746 -269.78 1179.2)" x2="745.48" y2="621.02"/>
    <linearGradient id="linearGradient6124" x1="732.28" xlink:href="#linearGradient3676" gradientUnits="userSpaceOnUse" y1="621.02" gradientTransform="matrix(.52746 -.83074 .83074 .52746 -262.05 1164.6)" x2="745.48" y2="621.02"/>
    <linearGradient id="linearGradient6121" x1="732.28" xlink:href="#linearGradient3676" gradientUnits="userSpaceOnUse" y1="621.02" gradientTransform="matrix(.53274 -.82648 .78454 .49015 -229.25 1170)" x2="745.48" y2="621.02"/>
    <linearGradient id="linearGradient6118" x1="732.28" xlink:href="#linearGradient3676" gradientUnits="userSpaceOnUse" y1="621.02" gradientTransform="matrix(.53274 -.82648 .78454 .49015 -221.79 1155.6)" x2="745.48" y2="621.02"/>
    <linearGradient id="linearGradient6113" x1="-3144.8" xlink:href="#linearGradient4887" gradientUnits="userSpaceOnUse" y1="3758.9" gradientTransform="matrix(-.053087 -.065161 -.074348 .043133 406.18 595.59)" x2="-4028.7" y2="3813.1"/>
    <linearGradient id="linearGradient6110" x1="-3152.2" xlink:href="#linearGradient4879" gradientUnits="userSpaceOnUse" y1="3673.7" gradientTransform="matrix(-.053087 -.065161 -.074348 .043133 406.18 595.59)" x2="-3914.7" y2="3696.5"/>
    <linearGradient id="linearGradient6104" x1="-3146.6" xlink:href="#linearGradient4863" gradientUnits="userSpaceOnUse" y1="3737" gradientTransform="matrix(-.053087 -.065161 -.074348 .043133 406.18 595.59)" x2="-3987" y2="3782.7"/>
    <linearGradient id="linearGradient6106" x1="-6308.6" xlink:href="#linearGradient4871" gradientUnits="userSpaceOnUse" y1="212.36" gradientTransform="matrix(-.053087 -.065161 -.074348 .043133 406.18 595.59)" x2="-6308.6" y2="235.22"/>
    <linearGradient id="linearGradient6099" x1="732.28" xlink:href="#linearGradient3676" gradientUnits="userSpaceOnUse" y1="621.02" gradientTransform="matrix(-.61835 -.76550 -.76550 .61835 1230.3 1190.1)" x2="745.48" y2="621.02"/>
    <linearGradient id="linearGradient6096" x1="732.28" xlink:href="#linearGradient3676" gradientUnits="userSpaceOnUse" y1="621.02" gradientTransform="matrix(-.61835 -.76550 -.76550 .61835 1221 1176.3)" x2="745.48" y2="621.02"/>
    <linearGradient id="linearGradient6093" x1="732.28" xlink:href="#linearGradient3676" gradientUnits="userSpaceOnUse" y1="621.02" gradientTransform="matrix(-.61835 -.76550 -.76550 .61835 1211.4 1162)" x2="745.48" y2="621.02"/>
    <linearGradient id="linearGradient6090" x1="732.28" xlink:href="#linearGradient3676" gradientUnits="userSpaceOnUse" y1="621.02" gradientTransform="matrix(-.60149 -.77881 -.77881 .60149 1197.5 1167.8)" x2="745.48" y2="621.02"/>
    <linearGradient id="linearGradient6087" x1="732.28" xlink:href="#linearGradient3676" gradientUnits="userSpaceOnUse" y1="621.02" gradientTransform="matrix(-.60149 -.77881 -.77881 .60149 1188.2 1153.8)" x2="745.48" y2="621.02"/>
    <linearGradient id="linearGradient6084" x1="732.28" xlink:href="#linearGradient3676" gradientUnits="userSpaceOnUse" y1="621.02" gradientTransform="matrix(-.60149 -.77881 -.77881 .60149 1178.8 1140.2)" x2="745.48" y2="621.02"/>
    <linearGradient id="linearGradient6081" x1="732.28" xlink:href="#linearGradient3676" gradientUnits="userSpaceOnUse" y1="621.02" gradientTransform="matrix(-.57402 -.79928 -.79928 .57402 1162.9 1157.5)" x2="745.48" y2="621.02"/>
    <linearGradient id="linearGradient6078" x1="732.28" xlink:href="#linearGradient3676" gradientUnits="userSpaceOnUse" y1="621.02" gradientTransform="matrix(-.57402 -.79928 -.79928 .57402 1154.5 1142.7)" x2="745.48" y2="621.02"/>
    <linearGradient id="linearGradient6075" x1="732.28" xlink:href="#linearGradient3676" gradientUnits="userSpaceOnUse" y1="621.02" gradientTransform="matrix(-.52746 -.83074 -.83074 .52746 1131.2 1180.9)" x2="745.48" y2="621.02"/>
    <linearGradient id="linearGradient6072" x1="732.28" xlink:href="#linearGradient3676" gradientUnits="userSpaceOnUse" y1="621.02" gradientTransform="matrix(-.52746 -.83074 -.83074 .52746 1123.4 1166.4)" x2="745.48" y2="621.02"/>
    <linearGradient id="linearGradient6069" x1="732.28" xlink:href="#linearGradient3676" gradientUnits="userSpaceOnUse" y1="621.02" gradientTransform="matrix(-.53274 -.82648 -.78454 .49015 1090.6 1171.7)" x2="745.48" y2="621.02"/>
    <linearGradient id="linearGradient6066" x1="732.28" xlink:href="#linearGradient3676" gradientUnits="userSpaceOnUse" y1="621.02" gradientTransform="matrix(-.53274 -.82648 -.78454 .49015 1083.2 1157.4)" x2="745.48" y2="621.02"/>
  </defs>
  <g id="layer1" transform="translate(316.75 -1.4458)">
    <g id="g4257" transform="matrix(1.3826 0 0 1.3826 -355.63 -659.3)">
      <path id="path3397" stroke-width="0" fill="#fff" d="m243.99 478.06c-68.21 0-215.72 1.5254-215.72 1.5254s214.62 157.68 214.62 225.89c0 136.42-214.35 242.12-214.35 378.54 0 68.21-0.2735 214.09-0.2735 214.09s147.51-214.09 215.72-214.09c136.42 0 254.08 215.45 390.5 215.45 68.21 0 212.29-1.3571 212.29-1.3571s-212.29-145.88-212.29-214.09c0-136.42 215.45-254.08 215.45-390.5v-215.45s-147.24 215.45-215.45 215.45c-136.42 0-254.08-215.45-390.5-215.45zm187.73 320.14 35.347 56.093 58.344 29.056-56.103 35.347-29.056 58.344-35.337-56.103-58.344-29.056 56.093-35.337 29.056-58.344z"/>
      <path id="path6025" stroke-width="0" fill="url(#radialGradient6061)" d="m243.99 478.06c-68.21 0-215.72 1.5254-215.72 1.5254s214.62 157.68 214.62 225.89c0 136.42-214.35 242.12-214.35 378.54 0 68.21-0.2735 214.09-0.2735 214.09s147.51-214.09 215.72-214.09c136.42 0 254.08 215.45 390.5 215.45 68.21 0 212.29-1.3571 212.29-1.3571s-212.29-145.88-212.29-214.09c0-136.42 215.45-254.08 215.45-390.5v-215.45s-147.24 215.45-215.45 215.45c-136.42 0-254.08-215.45-390.5-215.45zm187.73 320.14 35.347 56.093 58.344 29.056-56.103 35.347-29.056 58.344-35.337-56.103-58.344-29.056 56.093-35.337 29.056-58.344z"/>
      <path id="path6015" stroke-width="0" fill-opacity=".96154" fill="#b3b3b3" d="m243.99 478.06c-68.21 0-215.72 1.5254-215.72 1.5254s214.62 157.68 214.62 225.89c0 136.42-214.35 242.12-214.35 378.54 0 68.21-0.2735 214.09-0.2735 214.09s147.51-214.09 215.72-214.09c136.42 0 254.08 215.45 390.5 215.45 68.21 0 212.29-1.3571 212.29-1.3571s-212.29-145.88-212.29-214.09c0-136.42 215.45-254.08 215.45-390.5v-215.45s-147.24 215.45-215.45 215.45c-136.42 0-254.08-215.45-390.5-215.45zm-180.17 15.096s137.73 2.514 201.39 4.3342c127.33 3.6406 231.42 207.89 358.75 211.53 63.668 1.8203 206.84-195.36 206.84-195.36l-5.744 201.1c-3.6404 127.33-207.89 231.41-211.53 358.74-1.8202 63.667 192.44 205.51 192.44 205.51s-134.52-2.5877-198.19-4.4079c-127.33-3.6405-231.42-207.87-358.75-211.52-63.667-1.8203-207.07 194.08-207.07 194.08s4.1446-136.17 5.9648-199.84c3.6405-127.33 206.53-220.27 210.17-347.6 1.8202-63.667-194.29-216.58-194.29-216.58z"/>
      <path id="path5238" d="m-2039.1 997.06c1301.2 425.11 1613.7 1259.4 697.93 1863.5-915.72 604.05-2712.9 749.12-4014.1 324.01s-1613.7-1259.4-697.93-1863.5c883.35-582.7 2595.7-741.58 3893.6-361.29" fill-rule="evenodd" transform="matrix(.13543 0 0 .22687 938.15 406.59)" stroke="#000" stroke-width="1px"/>
      <path id="path5240" d="m-457.14 5075.2c0 681.68-964.51 1234.3-2154.3 1234.3s-2154.3-552.61-2154.3-1234.3c0-681.68 964.51-1234.3 2154.3-1234.3s2154.3 552.61 2154.3 1234.3z" fill-rule="evenodd" transform="matrix(.15535 0 0 .15535 844.14 99.769)" filter="url(#filter4099)" stroke="#000" stroke-width="1px" fill="#383838"/>
      <path id="path5242" d="m-1828.6 4778.1-243.3-72.036 73.438 242.26-216.37-132.55 8.2341 253.01-174.69-184.03-57.531 246.52-121.1-222.98-119.38 223.23-59.265-246.72-173.09 184.73 6.6104-253.65-215 133.64 72.036-243.3-242.26 73.438 132.55-216.37-253.01 8.2341 184.03-174.69-246.52-57.531 222.98-121.1-223.23-119.38 246.72-59.265-184.73-173.09 253.65 6.6104-133.64-215 243.3 72.036-73.438-242.26 216.37 132.55-8.2341-253.01 174.69 184.03 57.531-246.52 121.1 222.98 119.38-223.23 59.265 246.72 173.09-184.73-6.6104 253.65 215-133.64-72.036 243.3 242.26-73.438-132.55 216.37 253.01-8.2341-184.03 174.69 246.52 57.531-222.98 121.1 223.23 119.38-246.72 59.265 184.73 173.09-253.65-6.6104z" fill-rule="evenodd" transform="matrix(.36344 0 0 .19726 1369.9 58.81)" filter="url(#filter4091)" stroke="#000" stroke-width="1px" fill="#606060"/>
      <path id="path5244" stroke-width="0" fill-rule="evenodd" fill="url(#radialGradient6187)" d="m521.09 827.42c1.8536 6.9568 3.4337 14.158 4.718 21.57v-21.475c0-0.054-0.036-0.095-0.083-0.095zm-41.337 5.6191c-14.176-0.018-30.6 2.3363-47.703 1.8979-20.99-0.5379-39.66-3.2447-54.257-0.09-20.003 4.3236-32.357 19.652-32.559 66.642-0.3501 81.28 39.486-8.3261 89.241-7.0511 49.755 1.2751 90.633 81.95 90.984 0.6699 0.2298-53.34-18.642-62.034-45.706-62.069z"/>
      <path id="path5246" fill="url(#radialGradient6184)" d="m417.48 730.66c-47.577 11.011-84.281 79.213-84.641 162.67-0.3966 92.086 43.61 167.87 98.291 169.27 54.681 1.4012 99.331-72.112 99.728-164.2 0.3967-92.086-43.61-167.87-98.291-169.27-5.1263-0.1314-10.165 0.3927-15.087 1.5317zm-38.603 105.45c14.597-3.155 33.265-0.445 54.255 0.093 49.755 1.2751 93.76-21.113 93.41 60.168-0.3501 81.28-43.004-2.4817-92.759-3.7567s-87.816 91.42-87.466 10.14c0.2024-46.99 12.557-62.319 32.56-66.643z"/>
      <path id="path5248" opacity=".7551" d="m-3926.2 1673.8 95.314 2.8571c9.0314 0.2708 22.092-47.381 22.343-39.086 2.4416 80.612 30.556 170.73-64.286 215.31 0 0-62.532-30.629-53.772-29.086l24.686-37.143c-16.118 24.251-151.03-44.122-129.49-50.914l-110 34.686c-0.483 0.1523 214.69-96.644 215.2-96.629z" fill-rule="evenodd" transform="matrix(.13199 -.0081675 .0094605 .11395 1000.9 638.02)" filter="url(#filter4015)" stroke-width="0" fill="url(#linearGradient5652)"/>
      <path id="path5250" opacity=".7551" d="m-7331.9 1148.1 95.314 2.8571c9.0314 0.2708 22.092-47.381 22.343-39.086 2.4416 80.612 30.556 170.73-64.286 215.31 0 0-62.532-30.629-53.772-29.086l24.686-37.143c-16.118 24.251-151.03-44.122-129.49-50.914l-110 34.686c-0.483 0.1523 214.69-96.644 215.2-96.629z" fill-rule="evenodd" transform="matrix(-.13629 -.011892 -.011045 .14093 -612.81 609.5)" filter="url(#filter4015)" stroke-width="0" fill="url(#linearGradient5654)"/>
      <path id="path5252" opacity=".99592" stroke-width="0" fill="#ececec" d="m461.12 885.07c3.9864-3.6248 7.431-8.6233 12.838-11.166 6.0984-2.2626 9.9172-1.5305 13.674-0.7165 5.3289 0.9314 10.02 3.9135 13.656 4.8559-5.2183 5.6859-9.416 7.8741-15.008 10.118-7.452 2.3649-16.451-0.8072-25.159-3.0916"/>
      <path id="path5254" opacity=".57143" style="color:#000000" d="m669.57 827.08c0 9.5079-8.3557 17.216-18.663 17.216s-18.663-7.7076-18.663-17.216c0-9.5078 8.0394-16.902 18.347-16.902 10.307 0 18.979 7.3946 18.979 16.902z" transform="matrix(.43902 .015894 -.020529 .38632 212.26 549.42)" filter="url(#filter4395-1)" stroke-width="0" fill="#006680"/>
      <path id="path5256" style="color:#000000" d="m588.41 762.45c0 2.7894-2.1482 5.0508-4.7982 5.0508s-4.7982-2.2613-4.7982-5.0508 2.1482-5.0508 4.7982-5.0508 4.7982 2.2613 4.7982 5.0508z" transform="matrix(.72356 .026195 -.030533 .57459 82.077 425.38)" filter="url(#filter4423-1)" stroke-width="0"/>
      <path id="path5258" style="color:#000000" d="m798.71 744.26c-2.4327-0.14071-8.4426 2.5983-8.4426 2.5983l4.8739-5.2728-9.906 4.026 5.9257-5.6276-10.3 4.1331 4.5334-6.3427s-7.9514 3.8555-9.3602 4.1543c-1.4089 0.2988 3.1522-5.6571 2.486-4.8574-4.7511 0.17224-10.315 2.0752-10.315 2.0752l-3.7694-1.714c-3.2461-12.458-47.298 14.979-48.463 30.241-0.34106 4.4669 4.9911-8.0742 0.83532 2.4373-6.1363 10.67 6.578-16.881 21.838-22.939 8.43-3.3466 19.219-10.368 49.551 7.086z" transform="matrix(.54990 .019908 -.025444 .47882 86.875 502.1)" filter="url(#filter5909)" stroke-width="0"/>
      <path id="path5260" opacity=".50653" style="color:#000000" d="m468.47 867.61c32.132-16.131 29.442-18.976 49.753-10.535l-1.8982 6.0994c-14.128-7.054-30.892 5.3437-46.556 9.6228-4.4943-1.2379-3.1783-2.3546-1.2985-5.1872z" stroke-width="0" fill="#520"/>
      <path id="path5262" style="color:#000000" d="m786.4 753.36c-16.28 16.741-33.42 27.358-68.69 16.668l6.0609 7.0711c50.922 13.012 55.992-10.569 78.287-17.173z" transform="matrix(.54990 .019908 -.025444 .47882 86.875 502.1)" filter="url(#filter5873)" stroke-miterlimit="0" stroke-width="0" fill="#1a1a1a"/>
      <path id="path5264" style="color:#000000" d="m585.36 759.86c0 0.98623-0.71954 1.7857-1.6071 1.7857-0.8876 0-1.6071-0.79949-1.6071-1.7857 0-0.98622 0.71954-1.7857 1.6071-1.7857 0.8876 0 1.6071 0.79949 1.6071 1.7857z" stroke-opacity=".97596" transform="matrix(.54990 .019908 -.025444 .47882 177.98 502.15)" stroke="#080504" stroke-width=".17874" fill="#f9f9f9"/>
      <path id="path5266" opacity=".50653" style="color:#000000" d="m727.86 733.08c56.764-36.05 51.607-41.777 89.286-25.714l-2.8571 12.857c-26.322-13.637-55.554 13.47-83.571 23.571-8.2766-2.2412-5.9959-4.668-2.8571-10.714z" transform="matrix(-.54990 -.019908 -.025444 .47882 823.4 531.6)" filter="url(#filter5929)" stroke-width="0" fill="#520"/>
      <path id="path5268" opacity=".99592" stroke-width="0" fill="#ececec" d="m409.64 884.87c-3.9864-3.6248-7.431-8.6233-12.838-11.166-6.0984-2.2626-9.9172-1.5306-13.674-0.7165-5.3289 0.9314-10.02 3.9135-13.656 4.8559 5.2184 5.6858 9.4161 7.874 15.008 10.118 7.4519 2.3649 16.451-0.8072 25.159-3.0916"/>
      <path id="path5270" opacity=".57143" style="color:#000000" d="m669.57 827.08c0 9.5079-8.3557 17.216-18.663 17.216s-18.663-7.7076-18.663-17.216c0-9.5078 8.0394-16.902 18.347-16.902 10.307 0 18.979 7.3946 18.979 16.902z" transform="matrix(-.43902 .015894 .020529 .38632 660.12 548.88)" filter="url(#filter4395-1-4)" stroke-width="0" fill="#006680"/>
      <path id="path5272" style="color:#000000" d="m588.41 762.45c0 2.7894-2.1482 5.0508-4.7982 5.0508s-4.7982-2.2613-4.7982-5.0508 2.1482-5.0508 4.7982-5.0508 4.7982 2.2613 4.7982 5.0508z" transform="matrix(-.72356 .026195 .030533 .57459 789.9 424.85)" filter="url(#filter4423-1-1)" stroke-width="0"/>
      <path id="path5274" style="color:#000000" d="m798.71 744.26c-2.4327-0.14071-8.4426 2.5983-8.4426 2.5983l4.8739-5.2728-9.906 4.026 5.9257-5.6276-10.3 4.1331 4.5334-6.3427s-7.9514 3.8555-9.3602 4.1543c-1.4089 0.2988 3.1522-5.6571 2.486-4.8574-4.7511 0.17224-10.315 2.0752-10.315 2.0752l-3.7694-1.714c-3.2461-12.458-47.298 14.979-48.463 30.241-0.34106 4.4669 4.9911-8.0742 0.83532 2.4373-6.1363 10.67 6.578-16.881 21.838-22.939 8.43-3.3466 19.219-10.368 49.551 7.086z" transform="matrix(-.54990 .019908 .025444 .47882 783.89 501.9)" filter="url(#filter5917)" stroke-width="0"/>
      <path id="path5276" style="color:#000000" d="m786.4 753.36c-16.28 16.741-33.42 27.358-68.69 16.668l6.0609 7.0711c50.922 13.012 55.992-10.569 78.287-17.173z" transform="matrix(-.54990 .019908 .025444 .47882 783.89 501.9)" filter="url(#filter5901)" stroke-miterlimit="0" stroke-width="0" fill="#1a1a1a"/>
      <path id="path5278" style="color:#000000" d="m585.36 759.86c0 0.98623-0.71954 1.7857-1.6071 1.7857-0.8876 0-1.6071-0.79949-1.6071-1.7857 0-0.98622 0.71954-1.7857 1.6071-1.7857 0.8876 0 1.6071 0.79949 1.6071 1.7857z" stroke-opacity=".97596" transform="matrix(-.54990 .019908 .025444 .47882 691.58 501.62)" stroke="#080504" stroke-width=".17874" fill="#f9f9f9"/>
      <path id="path5280" fill-rule="evenodd" fill="url(#linearGradient6165)" d="m560.35 955.58s-21.37 30.391-50.178 70.312l17.848 10.355c28.807-39.922 50.178-70.312 50.178-70.312l-17.849-10.355z"/>
      <path id="path5282" fill-rule="evenodd" fill="url(#linearGradient6162)" d="m559.59 956.53s-20.876 29.76-49.06 68.896l6.0315 3.4992c28.156-39.158 49.01-68.924 49.01-68.924l-5.9824-3.4707z"/>
      <path id="path5284" fill-rule="evenodd" fill="#313131" d="m558.76 953.01s43.383-61.03 62.661-91.919 52.907-92.997 52.907-92.997l17.246 9.1996s-32.15 63.378-51.649 94.082-61.259 91.497-61.259 91.497l-19.905-9.863z"/>
      <path id="path5286" d="m559.9 955.43s-0.2306 0.3257-0.2394 0.3378l13.695 7.532s-5.3677 0.7142-7.4574 6.1276c-0.6402 1.6582-0.1754 4.0558-1.5496 5.9961-1.4065 1.9855-4.9907 3.8139-6.6978 6.2185-1.2761 1.7976 0.585 5.99-3.888 6.6413-2.5503 0.3715-3.7223 3.3729-5.2104 5.4611-2.8023 7.2427 0.1408 5.2296-5.846 10.335-1.2683 1.7734-4.8393 1.8501-5.8082 5.5272-0.501 1.9016-2.4878 4.5819-3.7333 6.318-1.8668 2.6021-1.9827 3.0541-3.3604 7.3287-0.9483 2.9421-3.5139 5.4835-7.3517 7.1103-1.241 0.526-2.4318 1.2534-3.502 2.1625l7.9026 4.5847c29.179-40.42 50.895-71.326 50.895-71.326l-17.848-10.355z" fill-rule="evenodd" stroke="url(#linearGradient6158)" stroke-width=".084465" fill="url(#linearGradient6156)"/>
      <rect id="rect5288" transform="matrix(.62837 -.77791 .77791 .62837 0 0)" fill-rule="evenodd" rx="5.634" ry="5.634" height="43.661" width="11.169" y="1023.1" x="-393.54" fill="#252525"/>
      <rect id="rect5290" opacity=".5" fill-rule="evenodd" rx="5.5359" ry="5.5359" transform="matrix(.62837 -.77791 .77791 .62837 0 0)" width="7.9817" y="1030" x="-391.51" height="30.786" fill="#585858"/>
      <path id="path5292" fill-rule="evenodd" fill="url(#linearGradient6151)" d="m578.45 945.12-4.7038-11.269 12.058 0.511 4.6148 11.782-11.969-1.0244z"/>
      <path id="path5294" fill-rule="evenodd" fill="url(#linearGradient6148)" d="m587.7 931.37-4.7037-11.268 12.058 0.5109 4.6148 11.782-11.969-1.0246z"/>
      <path id="path5296" fill-rule="evenodd" fill="url(#linearGradient6145)" d="m597.3 917.02-4.7039-11.269 12.058 0.5111 4.6148 11.782-11.969-1.0246z"/>
      <path id="path5298" fill-rule="evenodd" fill="url(#linearGradient6142)" d="m607.14 902.59-4.9486-11.163 12.067 0.2477 4.8709 11.679-11.989-0.763z"/>
      <path id="path5300" fill-rule="evenodd" fill="url(#linearGradient6139)" d="m616.47 888.56-4.9486-11.163 12.067 0.2478 4.8709 11.679-11.989-0.7631z"/>
      <path id="path5302" fill-rule="evenodd" fill="url(#linearGradient6136)" d="m625.85 874.97-4.9486-11.163 12.067 0.2477 4.8709 11.679-11.989-0.7631z"/>
      <path id="path5304" fill-rule="evenodd" fill="url(#linearGradient6133)" d="m634.4 860.29-5.3341-10.984 12.068-0.1723 5.2742 11.502-12.008-0.3453z"/>
      <path id="path5306" fill-rule="evenodd" fill="url(#linearGradient6130)" d="m642.76 845.48-5.3343-10.984 12.068-0.1725 5.2742 11.502-12.008-0.3453z"/>
      <path id="path5308" fill-rule="evenodd" fill="url(#linearGradient6127)" d="m651.54 831.73-5.9525-10.662 12.038-0.8609 5.9223 11.182-12.008 0.3406z"/>
      <path id="path5310" fill-rule="evenodd" fill="url(#linearGradient6124)" d="m659.27 817.2-5.9525-10.662 12.038-0.861 5.9224 11.182-12.008 0.3407z"/>
      <path id="path5312" fill-rule="evenodd" fill="url(#linearGradient6121)" d="m667.23 802.46-5.4172-10.229 11.622-1.1978 5.3726 10.738-11.577 0.689z"/>
      <path id="path5314" fill-rule="evenodd" fill="url(#linearGradient6118)" d="m674.69 788.12-5.4172-10.229 11.622-1.1978 5.3726 10.738-11.577 0.689z"/>
      <rect id="rect5316" transform="rotate(-60.494)" fill-rule="evenodd" rx="1.8817" ry="1.8817" height="21.821" width="5.281" y="963.82" x="-336.7" fill="#1b1b1b"/>
      <rect id="rect5318" opacity=".5" fill-rule="evenodd" rx="5.5359" transform="rotate(-60.494)" ry="5.5359" width="3.9647" y="967.37" x="-335.95" height="15.292" fill="#585858"/>
      <path id="path5320" fill-rule="evenodd" fill="url(#linearGradient6113)" d="m301.05 957.35s21.37 30.391 50.178 70.312l-17.848 10.355c-28.807-39.922-50.178-70.312-50.178-70.312l17.848-10.355z"/>
      <path id="path5322" fill-rule="evenodd" fill="url(#linearGradient6110)" d="m301.81 958.31s20.876 29.76 49.06 68.896l-6.0314 3.4992c-28.156-39.158-49.011-68.924-49.011-68.924l5.9824-3.4707z"/>
      <path id="path5324" fill-rule="evenodd" fill="#313131" d="m302.64 954.79s-43.383-61.03-62.661-91.919-52.907-92.997-52.907-92.997l-17.246 9.1996s32.15 63.379 51.649 94.082c19.499 30.704 61.259 91.497 61.259 91.497l19.904-9.863z"/>
      <path id="path5326" d="m301.5 957.2s0.2305 0.3257 0.2393 0.3378l-13.695 7.532s5.3677 0.7141 7.4574 6.1275c0.6401 1.6582 0.1753 4.0559 1.5495 5.9961 1.4065 1.9856 4.9907 3.814 6.6979 6.2186 1.2761 1.7975-0.585 5.99 3.888 6.6413 2.5503 0.3715 3.7223 3.3728 5.2104 5.4611 2.8023 7.2426-0.1408 5.2296 5.846 10.335 1.2682 1.7735 4.8393 1.8501 5.8082 5.5273 0.501 1.9015 2.4878 4.5818 3.7333 6.318 1.8668 2.602 1.9826 3.0541 3.3603 7.3287 0.9483 2.9421 3.5139 5.4835 7.3518 7.1102 1.241 0.5261 2.4318 1.2535 3.502 2.1625l-7.9026 4.5847c-29.179-40.42-50.895-71.326-50.895-71.326l17.848-10.355z" fill-rule="evenodd" stroke="url(#linearGradient6106)" stroke-width=".084465" fill="url(#linearGradient6104)"/>
      <rect id="rect5328" ry="5.634" fill-rule="evenodd" rx="5.634" transform="matrix(-.62837 -.77791 -.77791 .62837 0 0)" height="43.661" width="11.169" y="354.09" x="-936.2" fill="#232323"/>
      <rect id="rect5330" opacity=".5" fill-rule="evenodd" rx="5.5359" transform="matrix(-.62837 -.77791 -.77791 .62837 0 0)" ry="5.5359" width="7.9817" y="360.99" x="-934.17" height="30.786" fill="#585858"/>
      <path id="path5332" fill-rule="evenodd" fill="url(#linearGradient6099)" d="m282.94 946.9 4.7039-11.269-12.058 0.511-4.6147 11.782 11.969-1.0245z"/>
      <path id="path5334" fill-rule="evenodd" fill="url(#linearGradient6096)" d="m273.69 933.15 4.7038-11.268-12.058 0.511-4.6147 11.782 11.969-1.0246z"/>
      <path id="path5336" fill-rule="evenodd" fill="url(#linearGradient6093)" d="m264.1 918.8 4.7039-11.269-12.058 0.5111-4.6148 11.782 11.969-1.0246z"/>
      <path id="path5338" fill-rule="evenodd" fill="url(#linearGradient6090)" d="m254.26 904.37 4.9487-11.163-12.067 0.2478-4.8708 11.679 11.989-0.7631z"/>
      <path id="path5340" fill-rule="evenodd" fill="url(#linearGradient6087)" d="m244.93 890.34 4.9487-11.163-12.067 0.2476-4.8708 11.679 11.989-0.763z"/>
      <path id="path5342" fill-rule="evenodd" fill="url(#linearGradient6084)" d="m235.55 876.75 4.9487-11.163-12.067 0.2477-4.8709 11.679 11.989-0.7631z"/>
      <path id="path5344" fill-rule="evenodd" fill="url(#linearGradient6081)" d="m226.99 862.07 5.3341-10.984-12.068-0.1723-5.2743 11.502 12.008-0.3454z"/>
      <path id="path5346" fill-rule="evenodd" fill="url(#linearGradient6078)" d="m218.63 847.25 5.3343-10.984-12.068-0.1725-5.2743 11.502 12.008-0.3454z"/>
      <path id="path5348" fill-rule="evenodd" fill="url(#linearGradient6075)" d="m209.85 833.51 5.9524-10.662-12.038-0.8609-5.9222 11.182 12.008 0.3406z"/>
      <path id="path5350" fill-rule="evenodd" fill="url(#linearGradient6072)" d="m202.12 818.98 5.9525-10.662-12.038-0.861-5.9223 11.182 12.008 0.3407z"/>
      <path id="path5352" fill-rule="evenodd" fill="url(#linearGradient6069)" d="m194.17 804.24 5.4172-10.229-11.622-1.1977-5.3726 10.738 11.577 0.689z"/>
      <path id="path5354" fill-rule="evenodd" fill="url(#linearGradient6066)" d="m186.71 789.9 5.4172-10.229-11.622-1.1979-5.3727 10.738 11.577 0.689z"/>
      <rect id="rect5356" ry="1.8817" fill-rule="evenodd" rx="1.8817" transform="matrix(-.49252 -.87030 -.87030 .49252 0 0)" height="21.821" width="5.281" y="215.02" x="-762.5" fill="#1c1c1c"/>
      <rect id="rect5358" opacity=".5" fill-rule="evenodd" rx="5.5359" ry="5.5359" transform="matrix(-.49252 -.87030 -.87030 .49252 0 0)" width="3.9647" y="218.58" x="-761.75" height="15.292" fill="#565656"/>
    </g>
  </g>
  <metadata>
    <rdf:RDF>
      <cc:Work>
        <dc:format>image/svg+xml</dc:format>
        <dc:type rdf:resource="http://purl.org/dc/dcmitype/StillImage"/>
        <cc:license rdf:resource="http://creativecommons.org/licenses/publicdomain/"/>
        <dc:publisher>
          <cc:Agent rdf:about="http://openclipart.org/">
            <dc:title>Openclipart</dc:title>
          </cc:Agent>
        </dc:publisher>
        <dc:title>Ninja woman</dc:title>
        <dc:date>2011-05-01T07:52:44</dc:date>
        <dc:description>Made using the katana uploaded by Ehecalt1138</dc:description>
        <dc:source>http://openclipart.org/detail/134905/ninja-woman-by-pauthonic</dc:source>
        <dc:creator>
          <cc:Agent>
            <dc:title>pauthonic</dc:title>
          </cc:Agent>
        </dc:creator>
        <dc:subject>
          <rdf:Bag>
            <rdf:li>clip art</rdf:li>
            <rdf:li>clipart</rdf:li>
            <rdf:li>espada japonesa</rdf:li>
            <rdf:li>face</rdf:li>
            <rdf:li>inkscape</rdf:li>
            <rdf:li>mujer</rdf:li>
            <rdf:li>ninja</rdf:li>
            <rdf:li>sword</rdf:li>
            <rdf:li>weapons</rdf:li>
            <rdf:li>woman</rdf:li>
          </rdf:Bag>
        </dc:subject>
      </cc:Work>
      <cc:License rdf:about="http://creativecommons.org/licenses/publicdomain/">
        <cc:permits rdf:resource="http://creativecommons.org/ns#Reproduction"/>
        <cc:permits rdf:resource="http://creativecommons.org/ns#Distribution"/>
        <cc:permits rdf:resource="http://creativecommons.org/ns#DerivativeWorks"/>
      </cc:License>
    </rdf:RDF>
  </metadata>
</svg>
